<svg width="219" height="220" viewBox="0 0 219 220" fill="none" xmlns="http://www.w3.org/2000/svg">
<g opacity="0.2">
<path d="M152.811 11.3759C154.468 14.1505 156.369 16.8112 157.731 19.7243C160.507 25.6567 161.363 32.0197 161.07 38.5223C160.992 40.2391 161.457 41.432 162.745 42.6405C178.987 57.8748 195.187 73.1531 211.357 88.4636C217.48 94.2616 219.51 101.298 217.181 109.447C216.258 112.677 214.43 115.401 212.118 117.854C193.333 137.79 174.58 157.757 155.818 177.715C144.986 189.237 134.159 200.76 123.322 212.278C114.758 221.38 102.693 221.72 93.5687 213.116C77.8012 198.247 62.0067 183.408 46.3196 168.455C44.3786 166.606 42.5832 165.912 39.8891 166.174C32.8777 166.856 26.0246 165.901 19.5785 162.853C9.83013 158.243 4.17619 150.376 1.9342 140C-0.510295 128.685 1.38449 117.713 5.15224 107.014C10.217 92.6313 18.4236 80.1466 28.752 69.0459C39.7489 57.2258 50.8498 45.5044 61.9138 33.7476C71.695 23.3547 82.7478 14.6341 95.6411 8.41101C105.129 3.832 115.036 0.693393 125.697 0.531198C133.481 0.411745 140.777 2.10898 147.286 6.6065C147.551 6.79021 147.882 6.87657 148.183 7.00803C149.726 8.46502 151.269 9.91982 152.811 11.3759ZM144.744 177.881C153.67 168.386 162.596 158.893 171.521 149.399C177.676 142.85 177.478 136.176 170.945 130.011C154.319 114.323 137.713 98.6144 121.035 82.9826C119.201 81.2633 118.54 79.4741 118.749 77.014C118.971 74.3879 118.942 71.713 118.737 69.0821C117.635 54.8981 108.028 45.5556 93.8866 44.8145C83.7623 44.2834 74.3377 47.0119 65.4453 51.4745C41.6763 63.4035 24.4827 81.6873 14.0279 106.173C9.9539 115.716 7.71259 125.709 9.26331 136.193C10.469 144.344 14.2123 150.956 21.6565 155.026C28.2196 158.614 35.2865 159.024 42.4851 157.971C45.0706 157.592 46.9787 158.164 48.9114 160.002C65.5265 175.797 82.2247 191.505 98.9029 207.234C105.038 213.019 111.905 212.804 117.694 206.653C126.715 197.064 135.729 187.471 144.744 177.881ZM64.3622 42.5159C64.4904 42.6634 64.6183 42.8098 64.7465 42.9573C66.6501 42.2146 68.5397 41.4297 70.4614 40.7361C78.7009 37.763 87.1663 36.1389 95.9538 37.0025C107.978 38.1837 117.28 43.6902 122.843 54.7207C126.079 61.1379 127.129 68.0496 126.802 75.1711C126.729 76.7603 127.157 77.8403 128.34 78.9504C144.526 94.1405 160.652 109.393 176.809 124.613C179.355 127.011 181.416 129.724 182.646 133.017C183.03 134.046 183.301 135.119 183.705 136.442C184.335 135.771 184.775 135.303 185.216 134.835C192.103 127.509 198.991 120.185 205.876 112.858C211.924 106.423 211.71 99.6939 205.263 93.611C188.54 77.8321 171.828 62.041 155.07 46.2989C153.475 44.8002 152.848 43.2043 152.991 41.0313C153.174 38.2654 153.213 35.4641 153.006 32.7008C151.939 18.4495 142.6 9.32917 128.371 8.54747C120.142 8.0956 112.364 10.0791 104.811 13.0824C93.8883 17.4251 84.2185 23.8091 75.5082 31.6376C71.6498 35.1034 68.0685 38.8798 64.3622 42.5159Z" fill="#DEC582"/>
<path d="M99.8212 166.353C98.2295 166.634 96.8054 167.307 95.6921 166.963C94.5675 166.616 93.5911 165.372 92.8601 164.307C92.4327 163.684 92.554 162.647 92.5275 161.792C91.8966 141.678 91.2784 121.563 90.6602 101.448C90.5496 97.8344 91.8399 95.8774 94.4002 95.7545C97.0245 95.6285 98.5011 97.561 98.6168 101.286C99.2381 121.4 99.8726 141.515 100.445 161.631C100.485 163.077 100.073 164.537 99.8212 166.353Z" fill="#DEC582"/>
<path d="M74.3273 120.721C74.8124 122.364 75.4103 123.52 75.4595 124.699C75.7756 132.229 75.9991 139.764 76.1916 147.298C76.2657 150.222 74.7036 152.005 72.2678 152.007C69.9457 152.01 68.3703 150.326 68.2692 147.52C67.9994 139.988 67.7963 132.454 67.5579 124.919C67.498 123.037 68.112 121.329 69.8921 120.738C71.1712 120.315 72.7168 120.696 74.3273 120.721Z" fill="#DEC582"/>
<path d="M121.794 111.519C122.247 113.138 122.79 114.245 122.837 115.372C123.14 122.903 123.363 130.437 123.557 137.972C123.628 140.739 122.11 142.556 119.817 142.673C117.428 142.795 115.744 141.056 115.639 138.168C115.367 130.635 115.148 123.102 114.934 115.568C114.879 113.645 115.461 111.837 117.449 111.332C118.766 110.997 120.276 111.426 121.794 111.519Z" fill="#DEC582"/>
<path d="M73.8344 111.065C72.3701 112.577 69.7735 112.623 68.2809 111.162C66.7954 109.709 66.7491 107.046 68.1842 105.577C69.6296 104.096 72.2862 104.059 73.7636 105.499C75.2615 106.959 75.2944 109.559 73.8344 111.065Z" fill="#DEC582"/>
<path d="M123.019 157.325C121.634 158.844 118.979 158.951 117.446 157.548C115.904 156.137 115.801 153.542 117.225 151.988C118.646 150.44 121.234 150.324 122.776 151.74C124.297 153.137 124.413 155.794 123.019 157.325Z" fill="#DEC582"/>
<path d="M167.777 90.995C161.079 84.6762 154.458 78.2713 147.641 72.0844C145.307 69.9662 144.221 67.6509 143.954 64.5493C143.186 55.6176 140.366 47.3271 135.178 39.9702C133.318 37.3326 131.063 34.9695 128.932 32.5312C126.846 30.1444 127.221 27.0344 129.836 25.8909C131.625 25.1087 133.199 25.5981 134.549 26.9195C139.86 32.1169 144.063 38.0897 147.031 44.9143C149.557 50.725 151.197 56.7791 151.81 63.0854C151.959 64.6265 152.528 65.7422 153.671 66.8148C167.055 79.3687 180.389 91.975 193.737 104.568C194.026 104.841 194.316 105.113 194.604 105.387C197.074 107.729 197.499 110.104 195.775 111.942C194.05 113.781 191.648 113.51 189.174 111.178C182.039 104.454 174.908 97.7244 167.777 90.995Z" fill="#DEC582"/>
</g>
</svg>
