<svg width="222" height="170" viewBox="0 0 222 170" fill="none" xmlns="http://www.w3.org/2000/svg">
<g opacity="0.15">
<path d="M221.486 60.3969C220.558 68.4682 214.577 71.4051 207.845 73.5024C199.543 76.0889 191.278 75.8405 183.035 73.1617C182.214 72.8947 181.006 73.0918 180.224 73.5182C172.531 77.7149 164.463 80.5159 155.569 80.3702C153.957 80.3441 152.349 80.1425 150.53 80.0059C146.717 91.7759 137.439 93.3854 126.642 92.2589C126.1 93.4243 125.617 94.6336 124.995 95.7684C123.019 99.3697 120.086 101.906 116.315 103.614C115.4 104.029 114.646 105.043 114.092 105.946C112.915 107.866 111.919 109.893 110.72 112.112C113.769 115.056 116.306 118.766 117.652 123.199C117.8 123.688 118.069 124.187 118.05 124.673C117.927 127.846 119.892 129.187 122.435 130.639C126.106 132.734 129.757 135.125 132.758 138.054C138.72 143.872 138.214 150.711 131.859 156.149C126.822 160.459 120.782 162.947 114.447 164.447C109.02 165.734 103.408 166.861 97.8751 166.886C93.8951 166.903 90.1872 167.568 86.3858 168.296C74.9943 170.479 63.6605 170.728 52.4928 167.104C44.6961 164.574 38.261 160.16 33.4662 153.482C32.9284 152.732 32.1517 152.114 31.3882 151.569C12.5733 138.144 2.29811 119.944 0.73254 97.0128C0.111416 87.9102 1.22047 78.9132 3.67492 70.0822C3.98533 68.965 4.00305 67.5866 3.63881 66.5001C2.01482 61.6508 2.40588 56.8858 5.24306 52.7987C10.7231 44.9043 16.3544 37.0757 22.4625 29.6559C29.5815 21.0083 37.6525 13.2261 47.4776 7.52664C57.3807 1.78186 67.88 -0.666187 79.0834 3.00468C82.4671 4.11324 85.6136 6.00797 88.7371 7.77112C89.9574 8.4601 90.8303 8.61296 92.1536 8.1047C106.311 2.66813 120.892 -0.233498 136.134 1.08209C144.058 1.766 151.656 3.70098 158.946 6.85385C162.941 8.58148 166.309 11.0812 169.23 14.2796C169.916 15.032 171.132 15.6074 172.159 15.7063C178.964 16.3568 185.533 17.8808 191.825 20.5204C195.53 22.0747 197.51 25.1155 197.105 28.9896C196.963 30.3492 197.435 30.8937 198.488 31.5228C205.9 35.9547 212.34 41.4659 217.097 48.706C218.524 50.8787 219.56 53.3046 220.775 55.6142C221.015 57.2098 221.251 58.8034 221.486 60.3969ZM9.83412 61.8276C10.0641 61.9597 10.2931 62.0919 10.5232 62.2249C11.232 61.8413 11.9407 61.4569 12.6498 61.0751C21.7443 56.1725 31.4028 53.2277 41.7896 53.033C56.4141 52.758 69.3983 57.6838 81.3608 65.5982C93.4065 73.5669 103.246 83.7632 111.485 95.5038C112.496 96.9454 113.296 97.0597 114.683 96.1934C117.94 94.1571 119.747 91.0672 120.027 87.4927C120.366 83.1593 120.618 78.6381 119.769 74.427C115.409 52.8085 105.096 34.1472 89.8825 18.2273C82.5585 10.5634 73.4698 6.96541 62.6241 9.33234C56.8405 10.5943 51.6711 13.2683 46.9275 16.7083C32.4327 27.2187 21.6908 41.0613 12.0293 55.8099C10.8868 57.5513 10.5462 59.809 9.83412 61.8276ZM26.8979 138.161C26.796 136.387 26.7435 135.318 26.672 134.252C26.2672 128.191 27.3876 122.402 30.3689 117.1C37.7169 104.033 49.6124 98.6672 64.0693 98.6514C77.272 98.637 89.8674 102.069 102.067 106.894C103.419 107.428 104.568 107.79 105.452 106.284C106.338 104.774 108 103.426 106.563 101.397C97.3571 88.3954 86.4857 77.066 72.5771 68.95C54.3447 58.3105 35.6981 57.511 16.6572 67.1281C12.8437 69.0546 10.1274 71.452 9.9016 75.9417C9.8545 76.8797 9.50875 77.7997 9.34614 78.7357C5.85701 98.8354 9.16531 117.315 22.5207 133.377C23.763 134.869 25.1421 136.249 26.8979 138.161ZM85.4036 160.953C76.3958 147.552 93.944 122.09 110.116 125.023C110.07 124.711 110.059 124.427 109.982 124.162C109.861 123.742 109.713 123.329 109.546 122.925C107.28 117.435 102.636 114.582 97.3392 112.914C90.4743 110.751 83.4946 108.869 76.461 107.318C68.9265 105.657 61.3198 105.265 53.688 107.411C41.9201 110.719 34.1327 120.465 33.9267 132.525C33.7302 144.042 41.7344 155.287 53.3369 159.578C63.7675 163.436 74.4271 163.085 85.4036 160.953ZM96.8143 14.2488C114.176 34.8719 127.202 57.2099 128.26 84.8852C137.133 86.8226 142.79 83.5087 144.124 74.9154C144.972 69.4475 145.46 63.8592 145.393 58.3347C145.281 49.1774 146.458 40.4161 150.96 32.2668C153.944 26.8652 157.905 22.2856 163.206 18.0129C160.376 16.3439 157.949 14.5641 155.255 13.3821C143.407 8.18245 130.964 7.16803 118.225 8.83048C110.912 9.78413 103.805 11.5925 96.8143 14.2488ZM152.28 72.4664C157.743 73.7032 167.046 71.9929 173.667 68.7415C175.707 67.7395 176.324 66.5095 176.42 64.2196C176.952 51.4989 179.436 39.3807 188.865 29.7759C190.247 28.3686 189.886 27.6693 188.172 26.9936C182.587 24.7909 176.821 23.3792 170.816 23.0801C169.765 23.028 168.462 23.4009 167.641 24.0399C159.685 30.2276 154.557 38.2689 153.441 48.23C152.542 56.2545 152.63 64.3839 152.28 72.4664ZM104.496 159.223C104.533 159.319 104.572 159.414 104.61 159.511C109.19 158.138 113.873 157.025 118.318 155.305C121.499 154.074 124.547 152.281 127.315 150.277C130.097 148.262 130.107 146.127 127.836 143.531C126.736 142.274 125.51 140.978 124.068 140.188C119.241 137.547 114.331 135.041 109.365 132.662C107.424 131.731 105.323 132.1 103.388 133.114C95.9335 137.027 91.5756 143.137 90.3949 151.385C89.7435 155.937 92.9951 159.615 97.6573 159.677C99.9333 159.707 102.216 159.386 104.496 159.223ZM192.578 36.5647C192.03 37.2542 191.536 37.7903 191.136 38.3893C185.863 46.2982 184.278 55.2402 183.749 64.4567C183.724 64.8931 184.316 65.6397 184.768 65.7822C193.408 68.5034 201.979 68.9964 210.327 64.6568C213.487 63.014 214.339 61.2317 213.459 57.8324C213.152 56.6449 212.67 55.4572 212.041 54.4039C207.362 46.5795 200.53 41.0649 192.578 36.5647Z" fill="#B92E2D"/>
<path d="M198.923 124.15C191.86 125.174 185.266 120.363 184.18 113.393C183.086 106.384 188.111 99.6564 195.21 98.6289C202.351 97.5953 208.957 102.529 209.954 109.641C210.935 116.626 205.994 123.124 198.923 124.15ZM202.53 110.596C202.091 107.623 199.36 105.548 196.369 105.917C193.351 106.289 191.115 109.211 191.552 112.21C191.995 115.239 194.879 117.301 197.969 116.796C201.003 116.3 202.977 113.617 202.53 110.596Z" fill="#B92E2D"/>
<path d="M161.819 114.66C162.159 116.566 160.781 118.54 158.849 118.916C156.847 119.305 154.76 117.837 154.472 115.835C154.196 113.921 155.644 111.97 157.573 111.657C159.498 111.347 161.477 112.745 161.819 114.66Z" fill="#B92E2D"/>
<path d="M172.893 113.079C170.892 113.39 169.064 112.074 168.733 110.084C168.396 108.056 169.652 106.272 171.672 105.909C173.794 105.528 175.67 106.865 175.964 108.969C176.243 110.969 174.901 112.767 172.893 113.079Z" fill="#B92E2D"/>
<path d="M66.6769 33.143C69.9498 33.2201 72.3073 33.1584 74.6406 33.3633C76.9499 33.5657 78.3743 35.2914 78.2026 37.3165C78.0225 39.4372 76.2367 40.8437 73.8308 40.614C68.8552 40.1392 64.4222 41.389 60.2372 44.144C53.4636 48.6018 47.7784 54.1903 42.4479 60.1936C39.99 62.9621 37.7478 63.4904 35.9048 61.7618C34.1389 60.1057 34.4935 58.019 36.9088 55.2871C42.9168 48.4939 49.2979 42.0807 57.1826 37.4385C60.365 35.5657 63.9445 34.3583 66.6769 33.143Z" fill="#B92E2D"/>
</g>
</svg>
