<svg width="51" height="48" viewBox="0 0 51 48" fill="none" xmlns="http://www.w3.org/2000/svg">
<path d="M17.1393 24.4648C17.1275 24.2861 17.3391 24.2632 17.5624 24.3039C17.6319 24.3162 17.8127 24.5109 17.8695 24.5276C17.9802 24.5599 17.9178 24.436 18.0426 24.4822C18.0848 24.4984 18.3778 24.7998 18.4151 24.8102C18.6173 24.8653 18.6018 24.725 18.7343 24.7135C19.3877 24.6577 19.8285 24.4153 20.3036 24.1854C20.46 24.1094 20.8732 24.2246 20.8653 23.9884C20.8641 23.9606 20.5864 23.7181 20.5667 23.6947C20.266 23.3353 20.7975 23.8562 20.8958 23.8956C21.2845 24.0507 21.4239 23.9507 21.419 23.7473C21.416 23.66 20.8379 23.2069 21.1811 23.4411C21.2044 23.4568 21.4802 23.7349 21.5223 23.7509C21.6173 23.7866 21.6158 23.6855 21.6589 23.6847C21.7432 23.6847 21.7468 23.675 21.7872 23.6382C21.8448 23.5903 22.0475 23.658 22.0369 23.5392C22.0338 23.513 21.7247 23.2563 21.6932 23.1899C21.6619 23.1236 21.7358 23.0941 21.8215 23.1407C21.9073 23.1874 22.1311 23.4097 22.187 23.4558C22.6576 23.8455 22.0957 23.2091 22.0877 23.187C21.96 22.8016 22.4264 23.0069 22.5502 22.8718C22.6434 22.7686 22.6284 22.5515 22.7345 22.4694C22.862 22.3727 23.1122 22.423 23.1892 22.2854C23.1976 22.2712 22.8394 21.9638 22.8491 21.9458C22.9518 21.7548 23.1313 21.6373 23.5067 21.7013C23.5446 21.708 23.8294 22.0098 23.8855 22.0334C24.2219 22.1714 24.9586 22.5798 23.6903 21.296C23.801 21.2804 23.926 21.2528 24.245 21.4435C24.4504 21.5662 24.7475 21.9091 24.6485 21.7329C24.6265 21.6936 24.325 21.4377 24.3139 21.399C24.2677 21.2363 24.4269 21.2538 24.3365 21.0513C24.3174 21.0095 24.0549 20.7719 24.0116 20.7248C23.6622 20.3424 24.3347 20.8726 24.3904 20.9037C24.808 21.1338 24.7324 20.9478 24.8143 20.8764C24.8334 20.86 24.4651 20.5578 24.471 20.5303C24.5063 20.3923 24.6245 20.3253 24.8624 20.3793C24.9162 20.3921 25.1957 20.6864 25.2365 20.7066C25.4131 20.7924 24.8617 20.262 25.0202 20.3343C25.0529 20.3489 25.3023 20.5898 25.3316 20.6142C25.7919 20.9972 25.1913 20.3991 25.1834 20.3801C25.0698 20.1271 25.7642 20.679 25.7435 20.5175C25.7403 20.4975 25.4 20.2192 25.4108 20.1815C25.4811 19.9281 25.7374 19.8295 26.1517 19.8994C26.2157 19.9099 26.4395 20.1532 26.4708 20.1792C26.9607 20.5846 26.3542 19.9878 26.3387 19.9574C26.2328 19.7327 26.8138 20.1554 26.1148 19.4193C26.6388 19.3724 26.4875 18.6997 27.4164 19.0338C27.4274 19.0374 27.7281 19.3292 27.7488 19.335C28.0018 19.4085 27.5096 18.9817 26.98 18.3819C26.8471 18.2312 27.5919 18.842 27.6471 18.8861C27.8504 19.0489 28.293 19.4881 28.3343 19.5176C28.66 19.7473 27.145 18.3498 27.1938 18.2963C27.1979 18.297 27.4692 18.5623 27.5009 18.5836C27.6005 18.6504 27.5029 18.534 27.6111 18.6095C27.8611 18.7843 28.6046 19.4555 28.2219 19.0112C28.1721 18.9537 27.3076 18.1664 27.392 18.1567C27.4264 18.1535 27.4895 18.0563 27.5667 18.0845C27.6439 18.1127 27.9048 18.3854 27.9183 18.3948C28.3417 18.6712 28.4706 18.8357 29.04 19.3065C29.6073 19.7755 28.3161 18.5905 28.1848 18.4444C28.054 18.2986 28.3979 18.5324 28.5131 18.6184C28.6283 18.7044 28.7904 18.8816 28.859 18.9267C29.3082 19.2198 28.2495 18.3048 28.0663 18.0933C27.6324 17.5927 28.6217 18.4375 28.7592 18.4767C28.7963 18.4872 28.5698 18.2961 28.5602 18.2658C28.5251 18.1484 28.8474 18.3973 28.6232 18.0924C28.5867 18.0426 28.0534 17.4686 28.4984 17.8322C28.5625 17.8847 28.7895 18.1162 28.8606 18.1463C28.9672 18.1915 29.0675 18.1877 29.0172 18.0829C28.9798 18.0054 28.5647 17.6682 28.7129 17.7522C28.779 17.7898 28.9855 18.0262 29.0907 18.0791C29.1957 18.1321 29.2427 18.0615 29.2565 18.0308C29.2701 18 28.9619 17.737 28.9436 17.7165C28.8399 17.5987 28.7385 17.4211 28.7425 17.4175C28.8917 17.1846 29.5622 17.4657 29.5773 17.1179C29.5789 17.091 29.2569 16.8104 29.2539 16.8033C29.1715 16.6293 29.9642 17.4435 30.2763 17.6659C29.6371 17.0811 29.7719 17.1664 29.7365 17.065C29.719 17.0157 29.4644 16.7968 29.4408 16.7718C29.0921 16.3985 29.5909 16.8285 29.6939 16.9155C30.0726 17.2354 29.6618 16.818 29.9151 17.0316C30.1667 17.2436 30.4979 17.6025 30.5261 17.5631C30.3083 17.342 29.6906 16.8161 29.6193 16.6999C29.3494 16.2607 29.9901 16.5056 30.1139 16.4695C30.2375 16.4335 30.2199 16.3684 30.3458 16.3976C30.5734 16.4504 30.1042 16.0721 29.9519 15.8318C29.7997 15.5913 30.8589 16.6247 31.0988 16.8337C31.3385 17.0428 31.1065 16.8117 31.2431 16.9214C31.3797 17.0311 31.5193 17.1985 31.5876 17.2214C31.6559 17.2442 31.2974 16.7993 31.0612 16.565C30.5606 16.0688 29.9942 15.5921 30.2382 15.7113C30.2526 15.7184 30.5273 15.9942 30.568 16.0082C30.8812 16.1112 30.9925 16.0188 31.2803 16.0983C31.3204 16.1096 31.6256 16.4168 31.6525 16.4267C31.9334 16.5311 31.3712 16.0642 30.8207 15.466C31.6008 16.2111 32.1077 16.6351 32.1718 16.5756C32.2106 16.54 31.8595 16.2258 31.6395 15.9748C31.5732 15.8991 31.8353 16.0923 31.6776 15.9365C31.1625 15.4269 30.5451 14.9003 30.8427 15.0543C30.8566 15.0619 31.1383 15.3411 31.1652 15.3475C31.3402 15.39 30.7928 14.8663 30.7905 14.7341C30.7887 14.6304 31.2173 14.8478 31.3302 14.8368C32.2169 15.6641 32.0683 15.4162 31.4783 14.8228C31.5409 14.8057 31.5469 14.7299 31.6678 14.7696C31.7092 14.783 31.958 15.031 31.9874 15.0551C32.4473 15.4345 31.868 14.8629 31.8528 14.8324C31.7137 14.5267 32.2368 14.8697 31.8795 14.3691C31.8666 14.3511 31.2546 13.7721 31.7274 14.167C31.7599 14.1943 32.0128 14.4852 32.074 14.4629C32.1352 14.4408 32.5402 14.6684 32.3092 14.3436C32.2537 14.2653 31.7865 13.7634 32.2047 14.0985C32.2614 14.144 32.4343 14.3128 32.538 14.3988C32.8683 14.6726 32.2541 14.0828 32.8034 14.5544C33.3526 15.026 33.7902 15.351 33.48 14.9516C33.4712 14.9399 32.9901 14.4661 33.0153 14.4547C33.056 14.4369 33.1983 14.4903 33.224 14.4562C33.2362 14.4397 32.9205 14.1638 32.9173 14.156C32.8386 13.8958 33.1785 14.0789 33.3971 14.0819C33.4378 14.0831 33.0721 13.6372 33.4383 13.9069C33.8393 14.2019 35.3056 15.6462 35.0362 15.2162C34.9288 15.0439 33.0635 13.2169 34.1184 14.0683C33.9989 13.7048 34.622 14.0512 34.3978 13.5897C34.388 13.5692 33.8726 13.0537 33.8931 13.0461C33.9248 13.0358 34.1849 13.256 34.2155 13.2561C34.3498 13.2623 34.1907 13.0056 34.281 12.9751C34.3147 12.963 34.5649 13.2109 34.6052 13.1965C34.6452 13.1819 34.323 12.8476 34.522 12.9625C34.6734 13.0503 35.3935 13.6673 35.5095 13.7048C34.8266 13.0667 34.8648 13.0539 34.727 12.8398C34.7002 12.7983 34.4532 12.5862 34.4282 12.5552C34.3213 12.4239 34.5334 12.5918 34.4148 12.4513C34.3864 12.4175 34.1529 12.1999 34.1165 12.16C33.7978 11.8125 34.3654 12.2564 34.4641 12.3338C34.8393 12.6275 34.5483 12.3308 34.7064 12.4354C34.8644 12.54 35.0039 12.7332 35.1116 12.7839C35.3346 12.8887 35.3627 12.7828 35.4254 12.7369C35.449 12.7173 35.1229 12.4423 35.1191 12.4327C35.0829 12.313 35.4581 12.575 34.8605 11.9714C36.4969 13.4341 34.7305 11.7986 35.1135 12.0319C35.1443 12.0509 35.9103 12.7511 36.0032 12.8748C36.0961 12.9984 35.8305 12.8077 35.9786 12.9971C36.0133 13.0416 36.6904 13.7415 36.7287 13.7868C37.0285 14.1404 35.8878 13.0899 35.8235 13.034C35.1281 12.4319 35.8525 13.1914 35.8942 13.2527C36.0857 13.5339 35.8823 13.4323 36.0127 13.6398C36.0966 13.7742 36.8375 14.4691 36.7927 14.4716C36.644 14.4805 35.581 13.5428 36.4114 14.4541C36.5884 14.6485 37.416 15.3889 36.7237 14.8513C36.68 14.8175 36.0559 14.3159 36.4029 14.6845C36.4467 14.7309 36.6837 14.9512 36.6998 14.9738C36.8032 15.1207 36.5976 14.9633 36.6604 15.077C36.7233 15.1907 36.8249 15.3517 36.7131 15.3108C36.646 15.2865 36.1804 14.902 36.0632 14.8112C35.7263 14.5492 36.2092 15.0536 35.8164 14.7199C35.4215 14.3847 34.8775 13.8158 34.5907 13.6332C35.2046 14.2075 35.8328 14.799 36.4492 15.3775C36.3355 15.4563 36.0459 15.3685 35.9808 15.493C35.9733 15.509 36.3159 15.8043 36.3165 15.8294C36.3172 15.9339 36.0361 15.7631 36.0764 15.9082C36.1088 16.0217 36.4135 16.3966 36.4583 16.5254C35.7275 15.8988 35.9021 16.1905 35.7909 16.181C35.7523 16.1779 35.5653 16.0018 35.4922 15.9572C35.2213 15.7934 35.8642 16.3502 35.9501 16.4543C36.3163 16.8989 34.9032 15.5931 34.877 15.6911C34.8751 15.6959 35.5865 16.4369 35.6278 16.4863C35.8981 16.8071 35.3607 16.2493 35.2836 16.221C35.1426 16.1691 34.9358 16.0318 35.1094 16.2863C35.161 16.3615 35.5966 16.8318 35.2083 16.5232C35.1574 16.4828 34.9111 16.2499 34.8938 16.2393C34.6012 16.068 35.3797 16.795 35.6151 17.0716C35.8503 17.3482 35.2676 16.8952 35.1034 16.7605C34.6783 16.4125 34.95 16.5815 34.9119 16.5434C34.4582 16.0912 34.5065 16.2011 34.4421 16.1909C33.6738 15.4833 33.6851 15.5633 34.3784 16.1831C34.4542 16.2508 34.4022 16.1637 34.4421 16.1909C35.1706 16.9122 35.2286 17.0425 34.4855 16.4354C34.1372 16.1509 33.7727 15.7745 33.8531 15.9691C33.8892 16.0572 34.4262 16.5357 34.5458 16.695C34.8186 17.0585 34.2564 16.678 34.2774 16.8106C34.285 16.8587 34.5931 17.1054 34.6083 17.1475C34.6494 17.2602 34.4004 17.0942 34.4739 17.2373C34.4809 17.2506 34.7908 17.5224 34.7831 17.5385C34.7302 17.6656 34.4605 17.568 34.3633 17.6617C34.3165 17.7071 34.4037 17.9471 34.3243 17.9653C34.1885 17.9986 33.6519 17.6957 33.6904 17.868C33.7143 17.9791 34.0258 18.2494 34.2124 18.4611C34.5742 18.8713 33.7954 18.2769 33.6762 18.1835C33.6722 18.1804 33.6393 18.0732 33.464 17.9509C33.1294 17.6634 33.6752 18.1817 33.6762 18.1835C33.599 18.1232 33.4543 18.1414 33.4968 18.2114C33.5201 18.2495 33.8106 18.5106 33.8173 18.5255C33.9712 18.8731 33.9418 19.0504 33.7047 19.0372C33.6971 19.0338 33.3801 18.7333 33.3662 18.729C33.1641 18.6611 33.517 19.0662 33.6999 19.3354C33.8827 19.6044 33.7658 19.5742 33.1876 19.0948C33.2195 19.1992 32.9233 19.0308 32.7453 18.9269C32.5673 18.8229 33.1855 19.4066 33.1951 19.421C33.5046 19.8781 33.0995 19.5991 32.9565 19.6416C32.8874 19.6608 32.8952 19.8336 32.9182 19.9454C32.9374 20.0346 32.7701 19.922 32.8305 20.0441C32.8385 20.0604 33.1202 20.3135 33.1295 20.3248C33.4245 20.6727 32.7645 20.0234 32.6359 19.919C32.1685 19.539 31.9171 19.3392 32.0773 19.5822C32.1139 19.6379 33.058 20.5795 33.0953 20.6537C33.142 20.7486 32.802 20.4129 32.8599 20.5206C32.8645 20.5295 33.0807 20.7297 33.0546 20.7386C32.9364 20.7829 32.727 20.7562 32.6687 20.8622C32.6599 20.876 33.0161 21.1793 33.009 21.2043C32.9756 21.3216 32.8818 21.3971 32.6495 21.3256C32.5912 21.307 32.3628 21.0721 32.2878 21.01C31.8337 20.635 32.4256 21.2529 32.4319 21.27C32.6005 21.6915 31.9334 21.2735 32.0683 21.6689C32.0768 21.6915 32.6909 22.3759 32.0907 21.8679C32.0507 21.8342 31.4375 21.3136 31.8178 21.7115C31.8416 21.7364 32.1599 22.0015 32.102 22.0018C32.0441 22.0023 32.2028 22.2373 31.8329 21.9677C31.7163 21.8828 31.1016 21.3667 31.5342 21.8397C31.5646 21.8726 32.5681 22.915 31.819 22.2568C31.6957 22.1484 30.9267 21.4264 31.2807 21.8398C31.3495 21.9199 31.5363 22.0645 31.6227 22.1872C31.7562 22.3762 31.5065 22.2299 31.8108 22.5927C31.8647 22.6568 32.3594 23.1762 31.9379 22.8315C31.8719 22.7775 31.6211 22.53 31.5797 22.5166C31.3819 22.4518 31.4921 22.6791 31.2533 22.578C31.1693 22.5427 30.7634 22.1432 30.6294 22.0632C30.4954 21.9833 30.3431 21.9316 30.5103 22.1339C30.6775 22.3363 31.3673 22.9269 31.3855 23.0139C31.4645 23.392 30.9243 23.1912 30.7155 23.3013C30.6845 23.3175 30.9409 23.5186 30.9122 23.5585C30.8077 23.7063 30.8195 24.1405 30.2083 23.7846C29.7188 23.4996 29.5177 23.0981 29.2881 23.0147C29.1783 22.9754 29.9167 23.7303 29.9334 23.7611C30.1065 24.0703 29.713 23.8072 29.7515 23.9764C29.7595 24.0114 30.086 24.2882 30.0894 24.3148C30.1038 24.4082 29.9221 24.3233 29.9095 24.3881C29.9045 24.4179 30.1468 24.6369 30.1126 24.6367C30.0335 24.6387 29.8996 24.581 29.6388 24.412C29.615 24.3966 29.3402 24.0957 29.3013 24.1153C29.2391 24.148 28.962 24.0025 29.1383 24.2707C29.1916 24.3512 29.7374 24.8602 29.3269 24.5447C29.2412 24.4789 28.5939 23.8589 29.1223 24.4278C29.21 24.5224 29.9099 25.3035 29.3851 24.8791C29.247 24.7674 28.6887 24.2909 28.7545 24.3894C28.7655 24.4046 29.0691 24.6668 29.0823 24.71C29.124 24.8572 29.036 24.8891 29.0723 25.0343C29.0826 25.0737 29.4084 25.3325 29.4141 25.3821C29.43 25.5189 29.2767 25.5286 29.1222 25.5041C29.0646 25.4945 28.8282 25.2442 28.7992 25.2204C28.3282 24.8337 28.9141 25.4092 28.9406 25.451C29.0975 25.7032 28.7748 25.4839 28.8007 25.6059C28.8071 25.6388 29.1033 25.8952 29.1261 25.9219C29.348 26.1841 28.854 25.6829 28.7797 25.6491C28.5697 25.5527 28.5377 25.6332 28.5245 25.7209C28.52 25.7535 28.8729 26.0405 28.8651 26.0662C28.825 26.2241 28.692 26.3033 28.4138 26.235C28.3608 26.2216 28.1162 25.9714 28.054 25.921C27.6194 25.5682 28.1395 26.1276 28.184 26.1863C28.3872 26.4544 28.1456 26.2603 28.153 26.337C28.1934 26.7153 27.8336 26.8015 27.5806 26.8878C27.2524 27.0016 26.8467 26.9495 26.7105 27.2226C26.7016 27.2397 27.0548 27.5427 27.0514 27.5614C26.9924 27.7894 26.7206 27.8148 26.6776 28.0582C26.6735 28.0776 27.0129 28.3599 27.0171 28.4011C27.028 28.4879 26.9621 28.5235 26.8205 28.4691C26.752 28.4432 26.5003 28.1584 26.4371 28.1375C26.2891 28.0884 26.2188 28.1178 26.2252 28.2147C26.2287 28.2565 26.5879 28.5323 26.5666 28.5628C26.4286 28.7769 26.3177 29.01 25.7177 28.7979C25.6765 28.7833 24.9953 28.1703 25.0988 28.317C25.2831 28.4923 25.5022 28.6959 25.7003 28.8819C25.5589 29.2489 25.0803 29.297 24.7951 29.5315C24.7831 29.5415 25.1567 29.8526 25.1354 29.8736C25.0123 29.9953 24.9964 30.2099 24.5227 30.0107C24.4762 29.9914 23.857 29.403 23.9163 29.5289C23.9274 29.5516 23.9577 29.6862 24.0798 29.8273C24.0984 29.8483 24.3999 30.1094 24.3913 30.1357C24.3363 30.2838 24.1655 30.3337 23.888 30.2744C23.8427 30.2643 23.5489 29.9568 23.5139 29.9471C23.2681 29.8805 23.4164 30.1949 23.0569 30.0154C22.8152 29.8942 22.297 29.3738 21.7407 28.9113C21.6622 28.8461 21.6183 28.8695 21.309 28.585C20.531 27.8698 19.6993 27.0649 18.8682 26.3044C18.6892 26.1406 18.8376 26.3647 18.4338 25.938C18.4068 25.9094 18.2954 25.7434 18.1575 25.5997C18.0621 25.5003 17.7396 25.2195 17.6216 25.0879C17.5037 24.9564 17.778 25.1876 17.6446 25.0274C17.5093 24.8653 17.1454 24.5427 17.1393 24.4648ZM31.9486 18.4633C31.6212 18.2158 32.7119 19.2389 32.4807 18.9621C32.4683 18.9475 31.9648 18.4754 31.9486 18.4633ZM35.2206 14.5996C34.7004 14.1903 35.3851 14.8783 35.7843 15.1971C36.1831 15.5155 35.3783 14.7236 35.2206 14.5996ZM35.254 13.8567C34.8297 13.5492 36.3755 15.001 36.1082 14.6589C36.0932 14.6395 35.2787 13.8745 35.254 13.8567ZM21.7176 28.6342C21.7026 28.6211 21.6654 28.6327 21.6793 28.6467C22.0148 28.9834 22.0889 28.96 21.7176 28.6342ZM35.2532 13.0878C35.0296 12.907 35.2329 13.1746 35.5109 13.3995C35.7346 13.5803 35.5313 13.3127 35.2532 13.0878ZM29.2948 18.9726C29.2781 18.9579 29.2469 18.962 29.3394 19.0474C29.6376 19.3226 29.5767 19.2199 29.2948 18.9726ZM35.8863 12.3715C35.7317 12.4205 34.3908 11.29 34.6403 11.312C34.6854 11.316 35.0084 11.7365 35.1482 11.8181C35.403 11.9666 34.627 11.1859 35.1036 11.5389C35.1908 11.6036 35.898 12.3713 35.8879 12.3733C35.8874 12.3727 35.8868 12.3721 35.8863 12.3715ZM30.6171 17.2574C30.6021 17.2445 30.5655 17.2563 30.5793 17.2703C30.9145 17.607 30.9884 17.5834 30.6171 17.2574ZM27.6546 19.3781C27.6225 19.3507 27.5406 19.3809 27.5673 19.4092C28.1081 19.9677 28.2753 19.9084 27.6546 19.3781ZM31.3548 14.8578C31.0301 14.5057 31.0187 14.4353 31.4777 14.8225C31.4296 14.8274 31.4012 14.8511 31.3548 14.8578ZM0.552875 17.7575C0.424449 17.6556 0.566086 17.5277 0.759039 17.432C0.818888 17.402 1.0836 17.4226 1.13684 17.4021C1.24064 17.3621 1.11139 17.3206 1.23488 17.2814C1.27711 17.2684 1.69655 17.2932 1.73122 17.2794C1.91816 17.2039 1.81261 17.1272 1.90329 17.0489C2.3507 16.6631 2.51534 16.2788 2.71386 15.8836C2.77896 15.7533 3.16282 15.6005 2.9987 15.4616C2.97916 15.4454 2.61055 15.4482 2.58024 15.4446C2.11622 15.3888 2.85974 15.4181 2.95912 15.389C3.35155 15.2736 3.38797 15.1379 3.24793 15.0173C3.18727 14.966 2.45454 15.003 2.86622 14.96C2.89404 14.957 3.28506 14.9768 3.32704 14.9638C3.42147 14.9343 3.35262 14.8738 3.38406 14.8502C3.44663 14.8047 3.44283 14.7969 3.4481 14.7529C3.4587 14.6928 3.65449 14.6247 3.56702 14.5584C3.54718 14.5442 3.14577 14.5552 3.07792 14.5319C3.01018 14.5086 3.04525 14.451 3.14016 14.433C3.23511 14.4151 3.5502 14.4292 3.62252 14.4271C4.23293 14.4096 3.38947 14.3267 3.36874 14.3177C3.01569 14.153 3.49935 14.0261 3.50069 13.8776C3.50068 13.7648 3.34402 13.6414 3.36776 13.5345C3.39759 13.4072 3.61691 13.3029 3.58181 13.1781C3.57857 13.1649 3.10671 13.1717 3.1018 13.1556C3.05002 12.9846 3.10451 12.8167 3.42595 12.6532C3.45861 12.6368 3.87225 12.6662 3.92963 12.6503C4.27179 12.5527 5.09219 12.4033 3.29061 12.3087C3.36229 12.2397 3.43657 12.1556 3.8011 12.0993C4.03572 12.063 4.48606 12.1106 4.2945 12.0573C4.25183 12.0453 3.85654 12.0527 3.82242 12.0352C3.6791 11.9616 3.80892 11.8864 3.60611 11.8124C3.56393 11.7974 3.20991 11.7948 3.14624 11.7896C2.63068 11.7462 3.485 11.7052 3.54722 11.6939C4.0113 11.6084 3.8306 11.5364 3.84348 11.4491C3.84667 11.4288 3.3708 11.4442 3.35679 11.4244C3.29051 11.3217 3.33328 11.2174 3.54605 11.122C3.59453 11.1008 3.99914 11.1285 4.04302 11.1187C4.23159 11.0756 3.46687 11.0514 3.63296 11.0098C3.66699 11.001 4.01358 11.0126 4.05169 11.0116C4.64989 10.9956 3.80341 10.9568 3.78483 10.9496C3.53094 10.8575 4.41609 10.8178 4.29244 10.7311C4.27675 10.7207 3.83767 10.7355 3.82039 10.7068C3.70275 10.5154 3.8269 10.3176 4.18119 10.1368C4.23568 10.1086 4.56484 10.1354 4.6055 10.1343C5.24077 10.116 4.39066 10.0812 4.3588 10.0711C4.12962 9.99207 4.84411 9.93513 3.83207 9.86578C4.18938 9.55508 3.62631 9.22905 4.53954 8.9311C4.55012 8.9273 4.96884 8.9421 4.98815 8.93447C5.22509 8.84271 4.57378 8.84928 3.77878 8.7712C3.57915 8.75155 4.54127 8.72037 4.6118 8.71735C4.87173 8.70638 5.49458 8.73403 5.54496 8.72969C5.9406 8.69338 3.8797 8.66289 3.8801 8.60419C3.88358 8.60242 4.26275 8.61704 4.30055 8.61281C4.41923 8.59966 4.26878 8.58174 4.39963 8.56914C4.70238 8.54038 5.70396 8.54644 5.12213 8.48346C5.04662 8.47545 3.87747 8.46425 3.93365 8.41286C3.95704 8.39239 3.93869 8.29956 4.01491 8.27502C4.09105 8.25052 4.46742 8.27516 4.48376 8.27361C4.98315 8.21295 5.18911 8.24317 5.92721 8.22167C6.66252 8.20013 4.91007 8.17786 4.71475 8.16006C4.51999 8.14223 4.9319 8.09859 5.075 8.08863C5.21817 8.07868 5.45724 8.09871 5.53833 8.08902C6.06813 8.0246 4.66916 8.04066 4.39149 8.01118C3.73402 7.94165 5.03432 7.92055 5.16262 7.87021C5.19726 7.85659 4.90109 7.86281 4.87364 7.84962C4.76885 7.79744 5.17488 7.77462 4.80414 7.71066C4.74373 7.70021 3.96328 7.63974 4.53719 7.62028C4.61995 7.61755 4.94356 7.6355 5.01648 7.6154C5.12593 7.58539 5.19776 7.52904 5.09014 7.49267C5.01052 7.46582 4.4764 7.4852 4.64274 7.45626C4.71701 7.44341 5.02869 7.47542 5.14219 7.4508C5.25565 7.42631 5.24317 7.3582 5.23286 7.33217C5.22232 7.3062 4.8173 7.31292 4.79007 7.31034C4.63411 7.29489 4.43983 7.24186 4.4404 7.23749C4.39501 7.01607 5.08097 6.82516 4.85907 6.60634C4.84225 6.58918 4.41522 6.59262 4.40825 6.58992C4.23047 6.52898 5.36447 6.59515 5.74504 6.56178C4.87879 6.55181 5.03605 6.53088 4.9418 6.48852C4.89568 6.46809 4.56011 6.47264 4.52581 6.47023C4.01694 6.4319 4.67527 6.42368 4.80996 6.42093C5.30543 6.41073 4.72079 6.37913 5.05198 6.37208C5.38069 6.365 5.86709 6.40397 5.86157 6.36489C5.55171 6.34831 4.74094 6.36246 4.61016 6.33048C4.11548 6.2098 4.755 6.01302 4.82267 5.92447C4.89029 5.8361 4.83361 5.80612 4.94661 5.75597C5.15094 5.66538 4.54916 5.68897 4.27506 5.62541C4.001 5.56168 5.4796 5.6172 5.79772 5.61456C6.1157 5.61207 5.7887 5.59706 5.9636 5.58994C6.13847 5.58285 6.35426 5.60903 6.42029 5.58607C6.48626 5.56309 5.92203 5.48669 5.58971 5.47206C4.88568 5.4411 4.14587 5.4574 4.40679 5.39817C4.42227 5.39478 4.81098 5.41381 4.85054 5.40044C5.152 5.29402 5.17267 5.17813 5.43953 5.07122C5.47683 5.05653 5.90925 5.07816 5.93585 5.0697C6.2143 4.98161 5.48415 5.0016 4.67466 4.93577C5.75295 4.9669 6.4133 4.95071 6.42095 4.88014C6.42594 4.83773 5.95477 4.83645 5.62328 4.80291C5.52336 4.79284 5.84733 4.76867 5.62591 4.75919C4.90212 4.72801 4.091 4.74155 4.4151 4.67456C4.4305 4.67165 4.82668 4.68905 4.85089 4.67844C5.00932 4.60989 4.25205 4.58754 4.16173 4.50867C4.09087 4.44685 4.5547 4.34766 4.63107 4.28013C5.84359 4.30369 5.56712 4.23355 4.73157 4.19191C4.76661 4.14782 4.72023 4.09866 4.83657 4.05755C4.87624 4.0434 5.22713 4.05957 5.2651 4.05839C5.86067 4.04048 5.04766 4.00621 5.01595 3.99598C4.70789 3.88572 5.32591 3.81174 4.72526 3.70093C4.70363 3.69699 3.86146 3.67589 4.47694 3.66042C4.51936 3.65947 4.90198 3.69942 4.93247 3.653C4.96302 3.60658 5.41616 3.52627 5.02706 3.45395C4.93338 3.43646 4.25035 3.38408 4.78517 3.36179C4.85779 3.35884 5.09927 3.36792 5.2338 3.36421C5.66249 3.35211 4.81136 3.32571 5.53503 3.3155C6.25867 3.30528 6.8012 3.26647 6.30341 3.19161C6.28894 3.18925 5.61447 3.16138 5.62551 3.1409C5.64373 3.10821 5.78515 3.06391 5.78138 3.02936C5.77933 3.01281 5.36015 3.01573 5.35254 3.01273C5.11977 2.89748 5.49474 2.82532 5.65902 2.7094C5.68996 2.68816 5.11975 2.61512 5.57223 2.58117C6.06757 2.54386 8.12369 2.62898 7.63557 2.51356C7.44034 2.46704 4.83166 2.36507 6.18514 2.31256C5.85283 2.15677 6.54735 2.03096 6.07169 1.87214C6.05062 1.865 5.32267 1.83037 5.33287 1.81469C5.34943 1.79142 5.69008 1.7847 5.71281 1.76829C5.81663 1.69967 5.52656 1.62986 5.5731 1.56273C5.59003 1.53722 5.94185 1.55267 5.96209 1.52225C5.98199 1.49184 5.51887 1.46289 5.74348 1.4253C5.91469 1.39693 6.86263 1.38274 6.97382 1.34297C6.03937 1.32434 6.05914 1.296 5.81339 1.2405C5.76571 1.22982 5.44027 1.2344 5.40094 1.22904C5.23365 1.20712 5.50353 1.19456 5.32137 1.17332C5.27763 1.16816 4.9585 1.16213 4.90472 1.15759C4.4353 1.11871 5.15406 1.08188 5.2792 1.07558C5.75448 1.05137 5.3397 1.02844 5.52708 1.00665C5.71444 0.98489 5.9474 1.02678 6.06136 0.999452C6.29707 0.942796 6.24695 0.863558 6.26275 0.80194C6.26708 0.777315 5.84078 0.786397 5.83151 0.78269C5.7244 0.729662 6.17847 0.686288 5.33044 0.642501C7.5251 0.647112 5.1182 0.607832 5.55874 0.542856C5.59437 0.537753 6.63203 0.549361 6.78395 0.574211C6.93572 0.599055 6.6108 0.626616 6.84768 0.661567C6.90326 0.669837 7.87474 0.729102 7.93354 0.735849C8.393 0.78864 6.84243 0.766656 6.75723 0.767455C5.83774 0.777334 6.88422 0.8472 6.95635 0.861886C7.28685 0.929088 7.06786 0.977073 7.30363 1.03254C7.45601 1.06878 8.47156 1.09058 8.43999 1.11628C8.33565 1.20173 6.91831 1.20638 8.14525 1.31107C8.40693 1.3335 9.51728 1.33621 8.64328 1.38351C8.58818 1.38648 7.78883 1.41886 8.2934 1.4552C8.35702 1.45976 8.68052 1.46556 8.70762 1.47054C8.88285 1.50385 8.62477 1.51923 8.7476 1.55428C8.87044 1.58932 9.05373 1.63211 8.94332 1.66755C8.8773 1.68892 8.27404 1.70688 8.12628 1.71499C7.70064 1.73774 8.39701 1.78316 7.88191 1.79266C7.36421 1.80229 6.57922 1.75071 6.24403 1.79458C7.08448 1.81175 7.94707 1.83174 8.79226 1.85013C8.76067 1.95909 8.48693 2.06188 8.52206 2.17242C8.52725 2.18614 8.97936 2.18045 8.99657 2.19537C9.06723 2.25829 8.74415 2.30622 8.87126 2.37245C8.97137 2.42374 9.44879 2.4867 9.56837 2.54061C8.60606 2.55466 8.93114 2.63734 8.84224 2.69148C8.81151 2.71046 8.55468 2.70447 8.47062 2.71683C8.15974 2.76356 9.01008 2.75451 9.14357 2.77131C9.71326 2.84334 7.78949 2.81354 7.8357 2.88705C7.8375 2.89093 8.86204 2.95668 8.92578 2.96432C9.34141 3.01309 8.56875 2.96463 8.49252 2.98902C8.35321 3.03354 8.10773 3.06176 8.40706 3.12244C8.49573 3.14016 9.13415 3.19042 8.63922 3.21266C8.57441 3.21559 8.23553 3.20714 8.21561 3.21009C7.88366 3.26396 8.9486 3.28496 9.30866 3.32577C9.66863 3.36658 8.9325 3.40606 8.72042 3.41296C8.17178 3.43112 8.48656 3.38711 8.43281 3.38461C7.793 3.35502 7.90251 3.3956 7.84789 3.42408C6.80359 3.4093 6.86552 3.45166 7.79546 3.45368C7.89703 3.45384 7.80007 3.42913 7.84789 3.42408C8.87193 3.46863 9.00231 3.51632 8.044 3.54888C7.59486 3.56412 7.07208 3.53244 7.26218 3.60706C7.34799 3.64092 8.06721 3.64156 8.26271 3.67362C8.70877 3.74687 8.03653 3.81921 8.14098 3.88824C8.1789 3.91329 8.57291 3.89675 8.61239 3.91411C8.71839 3.96023 8.42237 3.9938 8.57284 4.04092C8.58697 4.0452 8.99914 4.04289 9.00414 4.05678C9.05008 4.16223 8.78453 4.24848 8.77523 4.35753C8.77092 4.41023 8.99642 4.50869 8.94974 4.56251C8.87127 4.65583 8.27005 4.76143 8.41411 4.845C8.50631 4.89947 8.91859 4.89541 9.19894 4.92314C9.74239 4.9767 8.76612 5.03617 8.61498 5.04381C8.60998 5.04404 8.51367 4.99685 8.3017 5.01723C7.86068 5.02328 8.61308 5.04327 8.61498 5.04381C8.51735 5.04887 8.42215 5.13788 8.50059 5.15733C8.54346 5.1679 8.93398 5.16955 8.94895 5.17493C9.29613 5.3026 9.39314 5.42593 9.20835 5.54564C9.20042 5.54766 8.76377 5.53643 8.75059 5.54129C8.55512 5.60897 9.08852 5.66432 9.40463 5.72885C9.72059 5.79337 9.61356 5.83801 8.86322 5.85911C8.95681 5.90515 8.62421 5.96268 8.42243 5.99561C8.22065 6.02852 9.07065 6.04913 9.08739 6.05266C9.62345 6.16288 9.13582 6.21205 9.05819 6.31484C9.01983 6.36368 9.14134 6.46417 9.23332 6.51949C9.30743 6.56323 9.10775 6.58513 9.23442 6.6265C9.25134 6.63209 9.62994 6.63366 9.64448 6.63554C10.0965 6.68738 9.17161 6.64956 9.00619 6.65554C8.40464 6.6772 8.0842 6.69152 8.36589 6.75249C8.4304 6.76654 9.76203 6.82834 9.83952 6.85322C9.93782 6.88553 9.46047 6.86531 9.57557 6.89936C9.58498 6.90227 9.87961 6.90707 9.86626 6.92655C9.80817 7.01704 9.63492 7.11369 9.66271 7.20934C9.66537 7.22238 10.133 7.21425 10.1445 7.23323C10.1983 7.32232 10.1793 7.41854 9.95896 7.50035C9.90327 7.52047 9.57632 7.50126 9.47908 7.50407C8.89074 7.5215 9.74411 7.57699 9.76026 7.58387C10.1678 7.74846 9.39269 7.8546 9.75778 8.02143C9.77922 8.03054 10.6936 8.11433 9.9078 8.12994C9.85552 8.13104 9.05158 8.146 9.6004 8.1822C9.63473 8.18446 10.0487 8.17355 10.0059 8.20498C9.96329 8.23642 10.2385 8.29328 9.7833 8.32926C9.63989 8.34067 8.83786 8.35917 9.47594 8.41263C9.52049 8.41616 10.9638 8.50705 9.96676 8.51191C9.80264 8.51265 8.74803 8.4895 9.28787 8.54926C9.39253 8.5607 9.62809 8.54769 9.77453 8.57548C10.0002 8.61809 9.71682 8.66392 10.1858 8.71979C10.2688 8.72956 10.984 8.77773 10.4402 8.79599C10.355 8.79885 10.0031 8.78405 9.96337 8.7982C9.77307 8.8655 10.0072 8.94386 9.76231 9.01124C9.67625 9.03511 9.10727 9.01173 8.95424 9.03546C8.80127 9.05921 8.65361 9.10996 8.91323 9.14246C9.17295 9.17496 10.0807 9.16118 10.1525 9.20409C10.4645 9.39061 9.92907 9.55998 9.84793 9.73907C9.83582 9.76563 10.1608 9.74935 10.1663 9.78892C10.1878 9.93482 10.4876 10.1915 9.79549 10.3051C9.24116 10.3962 8.82287 10.2613 8.59664 10.3344C8.48871 10.3698 9.54269 10.4294 9.57573 10.439C9.91142 10.5331 9.44309 10.5857 9.58499 10.6674C9.61444 10.6843 10.0422 10.6761 10.0626 10.6904C10.1358 10.7392 9.9441 10.7857 9.97818 10.8317C9.99445 10.8524 10.321 10.8546 10.2955 10.8729C10.2381 10.9167 10.1002 10.9539 9.79334 10.992C9.76538 10.9955 9.35972 10.9612 9.34401 10.9941C9.31974 11.0474 9.01664 11.1085 9.32726 11.176C9.42071 11.1961 10.1669 11.2104 9.65085 11.2404C9.54307 11.2467 8.64723 11.2198 9.4206 11.2798C9.54911 11.2899 10.592 11.3861 9.91816 11.4116C9.74082 11.4184 9.00713 11.4305 9.12195 11.4546C9.14029 11.458 9.54132 11.4533 9.58008 11.4723C9.70972 11.539 9.66572 11.6057 9.79006 11.6742C9.82405 11.6924 10.2393 11.6737 10.2767 11.7007C10.3802 11.775 10.273 11.8635 10.1419 11.9319C10.0927 11.9571 9.74949 11.9328 9.71206 11.934C9.10336 11.9535 9.92389 11.9865 9.97157 11.9975C10.257 12.0658 9.87056 12.1067 9.97153 12.1667C9.99836 12.1832 10.39 12.179 10.4248 12.1828C10.7652 12.2222 10.0628 12.1847 9.98489 12.2042C9.76444 12.2589 9.7947 12.3249 9.84363 12.3852C9.86218 12.4074 10.3165 12.3911 10.3279 12.4109C10.4039 12.5282 10.3583 12.6478 10.1061 12.7562C10.0578 12.7767 9.70853 12.7569 9.62863 12.7599C9.06964 12.7803 9.83053 12.839 9.9029 12.8506C10.2333 12.9035 9.92397 12.9161 9.9809 12.9585C10.2644 13.166 10.0552 13.412 9.92524 13.6006C9.75796 13.8464 9.42199 14.0333 9.50399 14.2721C9.50877 14.2873 9.97394 14.2806 9.98402 14.2938C10.093 14.4636 9.90836 14.6255 10.0396 14.7961C10.0495 14.8101 10.4906 14.7982 10.5214 14.8209C10.5876 14.8676 10.5626 14.9247 10.421 14.968C10.3528 14.9892 9.97517 14.9523 9.91424 14.9737C9.7715 15.0236 9.73908 15.0793 9.80875 15.1345C9.83936 15.1581 10.2907 15.1317 10.2954 15.1616C10.3364 15.3656 10.4104 15.5666 9.82296 15.7613C9.78262 15.7746 8.86629 15.7702 9.04143 15.8034C9.29563 15.8103 9.5947 15.8156 9.86643 15.8215C10.0074 16.12 9.68449 16.407 9.62998 16.7027C9.62779 16.7152 10.1136 16.7025 10.1118 16.7266C10.1021 16.8666 10.2341 17.0052 9.74899 17.1397C9.70154 17.1531 8.84775 17.1302 8.97613 17.1745C8.99957 17.1823 9.1123 17.2475 9.29737 17.2672C9.32529 17.27 9.72408 17.2657 9.73533 17.2863C9.7937 17.4056 9.70044 17.5278 9.45476 17.6414C9.41435 17.6597 8.99026 17.6317 8.95779 17.6446C8.73072 17.7367 9.05147 17.8473 8.66442 17.9322C8.4038 17.989 7.67051 17.9529 6.9477 17.9724C6.84572 17.9752 6.82889 18.013 6.40865 18.0073C5.35193 17.9931 4.19527 17.9535 3.06887 17.9406C2.82625 17.9377 3.0866 17.9935 2.50093 17.9526C2.46173 17.9498 2.26784 17.9092 2.06914 17.8965C1.93176 17.8877 1.50421 17.8913 1.32845 17.8751C1.15284 17.859 1.51132 17.8513 1.30492 17.8261C1.09596 17.8008 0.609641 17.8014 0.552875 17.7575ZM7.52053 6.14395C7.11167 6.17039 8.6068 6.20266 8.24973 6.15949C8.2307 6.15737 7.54059 6.14257 7.52053 6.14395ZM7.35911 2.04069C6.69881 2.07296 7.66798 2.12095 8.17788 2.09899C8.68724 2.07703 7.55928 2.03085 7.35911 2.04069ZM6.886 1.57264C6.36508 1.61492 8.48521 1.66173 8.0576 1.59848C8.03343 1.59481 6.91625 1.57016 6.886 1.57264ZM6.74482 17.817C6.72495 17.8171 6.7051 17.8441 6.72477 17.8451C7.19938 17.8684 7.23875 17.8143 6.74482 17.817ZM6.37011 1.10733C6.083 1.11826 6.41325 1.17083 6.77026 1.15725C7.05748 1.14632 6.72726 1.09372 6.37011 1.10733ZM5.8925 7.88209C5.87021 7.88222 5.84979 7.9015 5.97574 7.9034C6.38142 7.90946 6.26743 7.88004 5.8925 7.88209ZM6.35983 0.332295C6.27793 0.445283 4.52521 0.482728 4.72511 0.361705C4.76128 0.339787 5.28275 0.420529 5.44118 0.394687C5.72981 0.34737 4.63075 0.292414 5.22101 0.249523C5.32905 0.241782 6.36839 0.325918 6.36226 0.332541C6.36145 0.332456 6.36064 0.332375 6.35983 0.332295ZM5.72421 6.13071C5.70443 6.13103 5.68518 6.15787 5.70478 6.15889C6.17919 6.18226 6.21824 6.12818 5.72421 6.13071ZM4.94707 9.01131C4.90491 9.01204 4.86436 9.07442 4.90314 9.07719C5.67879 9.12426 5.76308 8.99819 4.94707 9.01131ZM4.66343 4.27964C4.18643 4.24126 4.13085 4.20474 4.73096 4.19203C4.69859 4.22093 4.69336 4.25053 4.66343 4.27964ZM28.3929 37.0058C28.527 36.8821 28.6872 37.0297 28.8046 37.227C28.8414 37.2883 28.8079 37.552 28.8327 37.6061C28.8813 37.7118 28.9379 37.5845 28.9849 37.7098C29.0004 37.7526 28.9573 38.1708 28.974 38.2061C29.0658 38.3965 29.1669 38.2945 29.2649 38.3888C29.7476 38.8541 30.2359 39.0365 30.7373 39.2534C30.9026 39.3245 31.0882 39.7154 31.2707 39.5578C31.292 39.539 31.2985 39.1703 31.3039 39.1402C31.388 38.6789 31.3303 39.4209 31.3649 39.5216C31.5023 39.9193 31.6753 39.962 31.8337 39.8276C31.9011 39.7693 31.8736 39.0351 31.9176 39.4486C31.9207 39.4766 31.8846 39.8666 31.9002 39.9092C31.9355 40.0049 32.0149 39.9389 32.0443 39.9714C32.101 40.0361 32.1111 40.0327 32.1674 40.04C32.2441 40.0534 32.3262 40.2523 32.4136 40.1679C32.4323 40.1488 32.4291 39.7469 32.4608 39.6802C32.4925 39.6136 32.5655 39.6513 32.5859 39.747C32.6063 39.8428 32.5797 40.1571 32.5805 40.2295C32.5864 40.8406 32.7155 40.0012 32.7276 39.9809C32.9484 39.6356 33.098 40.125 33.2884 40.1333C33.433 40.1385 33.5955 39.9876 33.7319 40.0163C33.8943 40.0521 34.0222 40.2762 34.1832 40.2469C34.2002 40.2443 34.2043 39.7722 34.2251 39.7681C34.4458 39.7243 34.6596 39.7865 34.8605 40.1155C34.8806 40.1489 34.8317 40.5611 34.8506 40.6192C34.9665 40.9658 35.1359 41.7929 35.3059 39.9962C35.3925 40.0711 35.4983 40.1493 35.5606 40.5163C35.6008 40.7526 35.5276 41.2006 35.6012 41.0115C35.6177 40.9694 35.6189 40.5739 35.6423 40.5406C35.7406 40.4007 35.8335 40.534 35.9338 40.3347C35.9542 40.2932 35.9671 39.9394 35.9755 39.876C36.0451 39.3626 36.0746 40.2186 36.0873 40.2813C36.1845 40.7493 36.2816 40.572 36.3933 40.5889C36.4192 40.593 36.4124 40.1166 36.4382 40.1035C36.5716 40.042 36.7041 40.0896 36.8208 40.3068C36.8466 40.3562 36.8002 40.7594 36.8115 40.8038C36.8617 40.9943 36.9135 40.2309 36.9624 40.3989C36.9727 40.4333 36.9484 40.7793 36.9487 40.8174C36.953 41.4162 37.0256 40.5717 37.0354 40.5535C37.1603 40.304 37.1873 41.1907 37.3019 41.0711C37.3156 41.056 37.3086 40.6163 37.3458 40.6004C37.5944 40.4916 37.8447 40.625 38.067 40.9876C38.1016 41.0434 38.0583 41.3712 38.0586 41.4119C38.0649 42.0478 38.1326 41.1996 38.1463 41.1682C38.254 40.9427 38.3076 41.6597 38.4239 40.6511C38.8127 41.0228 39.246 40.475 39.6034 41.4019C39.608 41.4126 39.5777 41.8306 39.5869 41.8502C39.6982 42.0914 39.7074 41.4399 39.829 40.6488C39.8596 40.4501 39.8736 41.4134 39.8755 41.4841C39.8826 41.7444 39.8302 42.3658 39.8345 42.4164C39.8703 42.8136 39.9652 40.7547 40.0404 40.7578C40.0426 40.7614 40.0136 41.1398 40.018 41.1778C40.0317 41.297 40.0587 41.1475 40.0713 41.2788C40.1 41.5829 40.0651 42.5839 40.1616 42.0051C40.174 41.93 40.22 40.7617 40.2843 40.8203C40.31 40.8446 40.4295 40.8306 40.4589 40.9079C40.4883 40.9852 40.4465 41.3603 40.448 41.3767C40.5123 41.8788 40.468 42.0833 40.4756 42.8222C40.4833 43.5583 40.5593 41.8074 40.5874 41.6129C40.6155 41.419 40.6603 41.8329 40.6692 41.9764C40.6781 42.12 40.646 42.3581 40.6562 42.4396C40.7244 42.9722 40.7417 41.5729 40.787 41.2967C40.894 40.6426 40.8859 41.9435 40.9469 42.0741C40.9635 42.1094 40.9635 41.813 40.9812 41.7862C41.0509 41.6839 41.0692 42.0908 41.1612 41.7232C41.1763 41.6633 41.2749 40.8858 41.2844 41.4605C41.2856 41.5434 41.2538 41.8661 41.2776 41.9399C41.3132 42.0507 41.3835 42.1251 41.433 42.0192C41.4696 41.9409 41.4592 41.406 41.4918 41.5736C41.5063 41.6485 41.4568 41.9586 41.4853 42.0732C41.5137 42.1878 41.6013 42.1785 41.635 42.1694C41.6686 42.1601 41.6709 41.7548 41.675 41.7277C41.699 41.5725 41.7723 41.3808 41.7778 41.3815C42.063 41.3464 42.2893 42.0411 42.5759 41.8295C42.5983 41.8134 42.6055 41.3863 42.6091 41.3795C42.6921 41.2046 42.5765 42.3352 42.609 42.7173C42.6453 41.8517 42.6678 42.0099 42.7247 41.9176C42.7522 41.8725 42.7554 41.5368 42.7594 41.5026C42.8223 40.9956 42.8151 41.6542 42.815 41.789C42.8146 42.2848 42.871 41.7018 42.871 42.0332C42.8712 42.3622 42.8081 42.8466 42.8584 42.8429C42.888 42.5339 42.8918 41.7227 42.9363 41.5934C43.1045 41.1045 43.3395 41.753 43.4512 41.8248C43.5627 41.8965 43.6027 41.8412 43.664 41.9565C43.7746 42.165 43.7606 41.5623 43.8496 41.2912C43.9387 41.0202 43.8275 42.4958 43.8223 42.814C43.8169 43.132 43.845 42.8058 43.8494 42.981C43.8537 43.1561 43.8143 43.3706 43.842 43.4377C43.8696 43.5047 43.9829 42.9442 44.0106 42.6127C44.0694 41.9102 44.0685 41.1699 44.1374 41.4335C44.1413 41.4491 44.1064 41.8368 44.1225 41.877C44.2508 42.1833 44.3988 42.2094 44.5287 42.4811C44.5465 42.5191 44.5071 42.9504 44.5172 42.9774C44.6227 43.2599 44.6168 42.529 44.7231 41.7228C44.654 42.7993 44.6569 43.4603 44.7472 43.4712C44.8014 43.4782 44.8158 43.0072 44.8678 42.6773C44.8834 42.5779 44.9056 42.9029 44.9238 42.682C44.9834 41.9598 44.9879 41.1483 45.0651 41.4754C45.0684 41.491 45.0354 41.8862 45.0483 41.9109C45.1319 42.0725 45.1811 41.3165 45.2847 41.2298C45.3659 41.1619 45.4805 41.6302 45.565 41.7097C45.502 42.9208 45.5994 42.6477 45.6754 41.8143C45.731 41.8513 45.7953 41.8073 45.8449 41.9255C45.862 41.9658 45.8317 42.3158 45.8322 42.3539C45.8391 42.9501 45.905 42.1389 45.919 42.1077C46.0687 41.8048 46.1469 42.4261 46.3052 41.8308C46.3109 41.8093 46.3607 40.9684 46.3639 41.5844C46.364 41.6269 46.3024 42.0075 46.3611 42.0402C46.4198 42.0729 46.5105 42.5296 46.6138 42.144C46.6387 42.0512 46.7244 41.3707 46.7385 41.9064C46.7403 41.9792 46.7221 42.2202 46.7232 42.3549C46.7272 42.784 46.784 41.9343 46.7776 42.6583C46.7711 43.3822 46.8062 43.9264 46.9156 43.4322C46.919 43.4179 46.973 42.7449 46.999 42.7568C47.0404 42.7766 47.0934 42.92 47.1378 42.9179C47.1591 42.9166 47.1667 42.4974 47.1707 42.4899C47.3248 42.2626 47.4072 42.6408 47.5514 42.8104C47.5778 42.8423 47.6869 42.2757 47.7182 42.7296C47.7526 43.2266 47.5879 45.2782 47.7491 44.7956C47.814 44.6025 48.0154 41.9993 48.0461 43.3549C48.2549 43.0299 48.3974 43.7301 48.6139 43.2619C48.6236 43.2412 48.6877 42.515 48.7076 42.526C48.737 42.5436 48.7364 42.8845 48.7568 42.908C48.842 43.0149 48.9394 42.7282 49.0242 42.7778C49.0564 42.796 49.0271 43.147 49.0656 43.1686C49.104 43.1899 49.1537 42.7283 49.1958 42.9546C49.2275 43.127 49.2201 44.0754 49.2681 44.1884C49.3173 43.2551 49.3531 43.2762 49.4309 43.0331C49.4459 42.9859 49.4488 42.6603 49.4567 42.6212C49.4894 42.455 49.4982 42.7254 49.5303 42.5443C49.5381 42.5008 49.5545 42.182 49.5618 42.1285C49.6243 41.661 49.6521 42.3813 49.6568 42.5067C49.675 42.983 49.7156 42.5693 49.7385 42.7577C49.7613 42.946 49.7013 43.177 49.7333 43.2922C49.7996 43.5304 49.9025 43.484 49.9811 43.5027C50.0126 43.5082 50.0125 43.0816 50.0175 43.0725C50.0884 42.9678 50.1317 43.4238 50.2108 42.578C50.1455 44.7719 50.261 42.3675 50.3324 42.8109C50.338 42.8468 50.295 43.8836 50.259 44.0343C50.2231 44.1849 50.1965 43.8588 50.1453 44.094C50.1332 44.1492 50.0309 45.1177 50.0206 45.1761C49.9405 45.633 50.0107 44.0839 50.0119 43.9986C50.0242 43.0789 49.9063 44.1219 49.8855 44.1933C49.7903 44.5206 49.7347 44.2994 49.6572 44.5326C49.6066 44.6832 49.5512 45.6975 49.5191 45.6647C49.4123 45.5565 49.4447 44.1393 49.2773 45.361C49.2414 45.6216 49.2079 46.7315 49.1709 45.8556C49.1686 45.8003 49.1487 44.9997 49.0885 45.5024C49.0809 45.5658 49.0647 45.889 49.0576 45.9158C49.0101 46.0895 48.9974 45.8307 48.9491 45.9519C48.9009 46.0731 48.841 46.2543 48.7986 46.1423C48.7729 46.0753 48.7662 45.4714 48.7598 45.3233C48.7422 44.8967 48.6651 45.5908 48.6668 45.0754C48.6685 44.5573 48.7559 43.775 48.7087 43.4378C48.6639 44.2772 48.615 45.1387 48.5685 45.9828C48.4297 45.9462 48.3053 45.6677 48.1625 45.6977C48.1448 45.7022 48.1399 46.1545 48.1203 46.171C48.0377 46.2387 47.985 45.9135 47.8966 46.0375C47.8281 46.1352 47.7345 46.6096 47.6621 46.7266C47.6701 45.7639 47.5553 46.085 47.4883 45.9936C47.4648 45.962 47.4794 45.7055 47.4658 45.6209C47.4143 45.308 47.4029 46.1585 47.3777 46.2912C47.27 46.8574 47.3602 44.9355 47.2647 44.9783C47.2597 44.9799 47.1477 46.0011 47.1361 46.0645C47.0623 46.4777 47.1454 45.7075 47.1162 45.6302C47.0629 45.4888 47.0333 45.2421 46.9474 45.5385C46.9223 45.6264 46.8406 46.2623 46.8254 45.7664C46.8234 45.7015 46.8434 45.3631 46.8402 45.3431C46.7801 45.0087 46.7243 46.0724 46.6623 46.4304C46.6002 46.7884 46.5695 46.0507 46.5664 45.8383C46.5579 45.289 46.6059 45.6057 46.6105 45.5521C46.6658 44.9138 46.6108 45.0214 46.5757 44.9655C46.6229 43.9221 46.5669 43.9821 46.5392 44.9117C46.5362 45.0132 46.5706 44.9174 46.5757 44.9655C46.4909 45.9872 46.4262 46.1153 46.4104 45.1557C46.403 44.706 46.4578 44.1848 46.3569 44.3714C46.3112 44.4556 46.2909 45.1746 46.2445 45.3686C46.1385 45.8111 46.0639 45.1357 45.9726 45.2369C45.9394 45.2737 45.95 45.6683 45.9267 45.707C45.8646 45.8108 45.8296 45.5133 45.7651 45.6616C45.7592 45.6755 45.7511 46.0877 45.7331 46.092C45.5966 46.133 45.4932 45.8635 45.3536 45.8492C45.2862 45.8424 45.1538 46.0633 45.0861 46.0141C44.9685 45.9313 44.8494 45.3253 44.7383 45.4655C44.666 45.5551 44.66 45.9675 44.6169 46.2465C44.5335 46.7873 44.4836 45.8085 44.4779 45.6571C44.4778 45.652 44.5409 45.5579 44.5205 45.3451C44.5247 44.9039 44.4787 45.6552 44.4779 45.6571C44.4741 45.5592 44.3625 45.4599 44.3355 45.5374C44.3207 45.5798 44.3081 45.9701 44.3008 45.9848C44.1276 46.326 43.9669 46.4172 43.8184 46.2269C43.816 46.2189 43.8422 45.7829 43.8363 45.7695C43.7548 45.5709 43.6694 46.1016 43.5781 46.4146C43.4868 46.7275 43.4325 46.6184 43.4257 45.8673C43.3642 45.9587 43.2994 45.6235 43.2626 45.4203C43.2259 45.217 43.1764 46.0658 43.1715 46.0824C43.0156 46.6132 42.9658 46.1234 42.836 46.041C42.7745 46.0004 42.6423 46.1172 42.5689 46.2066C42.5108 46.2787 42.4881 46.078 42.4316 46.2027C42.424 46.2194 42.4117 46.5978 42.4089 46.6123C42.3302 47.0618 42.4037 46.1389 42.4006 45.9732C42.389 45.3708 42.3794 45.0498 42.2936 45.3286C42.2738 45.3924 42.1585 46.7208 42.1245 46.7971C42.0804 46.8939 42.1193 46.4176 42.0725 46.5311C42.0685 46.5404 42.0544 46.8347 42.0297 46.8205C41.9153 46.7582 41.796 46.5805 41.6726 46.6038C41.6558 46.6059 41.6536 47.0737 41.629 47.0844C41.5133 47.134 41.3904 47.1105 41.2914 46.8864C41.2672 46.8298 41.3006 46.5039 41.2997 46.4065C41.2932 45.8175 41.199 46.6681 41.1897 46.6839C40.9676 47.0837 40.8525 46.3039 40.6287 46.6611C40.6164 46.6821 40.4842 47.5924 40.4855 46.806C40.4855 46.7537 40.488 45.9493 40.4268 46.4963C40.423 46.5305 40.4257 46.9448 40.3866 46.9006C40.3474 46.8565 40.2671 47.1291 40.2332 46.6723C40.2225 46.5284 40.2205 45.7257 40.1347 46.3611C40.1289 46.4055 39.9733 47.8442 39.9941 46.8472C39.9976 46.6831 40.0558 45.6298 39.9645 46.1668C39.947 46.2709 39.9573 46.507 39.9177 46.6521C39.857 46.8757 39.8059 46.5903 39.7216 47.0565C39.7068 47.1391 39.6257 47.8518 39.617 47.3073C39.6156 47.222 39.6441 46.8708 39.627 46.8305C39.5459 46.6371 39.4391 46.8676 39.3593 46.6196C39.331 46.5324 39.3764 45.9647 39.3501 45.8106C39.3238 45.6566 39.2627 45.5066 39.214 45.7646C39.1653 46.0228 39.1584 46.9309 39.1014 47.0007C38.8538 47.304 38.6511 46.7608 38.4236 46.6713C38.3899 46.658 38.402 46.9837 38.3511 46.9873C38.1634 47.002 37.8262 47.2898 37.6992 46.5926C37.5974 46.0342 37.7818 45.6223 37.694 45.3927C37.6516 45.2831 37.5467 46.3341 37.5335 46.3667C37.4038 46.6979 37.349 46.2272 37.2403 46.3653C37.2178 46.3939 37.2168 46.822 37.198 46.8417C37.1333 46.9126 37.0789 46.7188 37.019 46.7507C36.992 46.766 36.9803 47.0924 36.9576 47.066C36.903 47.0067 36.859 46.867 36.8184 46.5585C36.8147 46.5304 36.8697 46.1264 36.8279 46.1092C36.7602 46.0824 36.69 45.7766 36.5951 46.084C36.5669 46.1765 36.5283 46.9218 36.5038 46.4045C36.4986 46.2964 36.5573 45.4021 36.4594 46.1725C36.443 46.3005 36.2915 47.3386 36.277 46.6638C36.2731 46.4862 36.2774 45.7521 36.2434 45.8658C36.2386 45.8839 36.2337 46.2851 36.2083 46.323C36.1192 46.4495 36.0349 46.4024 35.9438 46.5235C35.9194 46.5566 35.9322 46.9726 35.8965 47.0088C35.7984 47.1088 35.6879 46.9975 35.6037 46.8632C35.5727 46.8129 35.6132 46.4709 35.6126 46.4334C35.6042 45.824 35.5396 46.6428 35.5242 46.6899C35.4289 46.9721 35.3869 46.5838 35.3072 46.682C35.2853 46.7081 35.2801 47.0998 35.2743 47.1344C35.2147 47.4729 35.2817 46.7724 35.2588 46.6936C35.1946 46.4707 35.1091 46.4979 35.0305 46.544C35.0016 46.5615 35.0101 47.0164 34.9844 47.0269C34.832 47.0975 34.6799 47.0463 34.5476 46.7891C34.5227 46.7398 34.5575 46.3916 34.5559 46.3116C34.5449 45.7518 34.449 46.5098 34.4321 46.5816C34.3553 46.9095 34.3476 46.5996 34.2916 46.6546C34.0179 46.9283 33.7081 46.7077 33.4698 46.5691C33.1591 46.3904 32.9284 46.0458 32.62 46.1167C32.6004 46.1207 32.5965 46.5861 32.5793 46.5956C32.3585 46.6967 32.1559 46.5045 31.9336 46.6278C31.9154 46.637 31.9187 47.0786 31.8887 47.1083C31.8271 47.1723 31.7546 47.1447 31.7028 47.0011C31.6775 46.9319 31.7351 46.5561 31.7093 46.4942C31.6491 46.3492 31.5786 46.3142 31.5059 46.3813C31.4749 46.4108 31.4965 46.8633 31.458 46.8665C31.1953 46.898 30.9356 46.9627 30.7018 46.3663C30.6858 46.3254 30.7162 45.4095 30.6689 45.583C30.6532 45.8368 30.6383 46.1356 30.6233 46.407C30.2368 46.534 29.8775 46.1979 29.4997 46.1296C29.4838 46.1268 29.487 46.6131 29.4561 46.6102C29.2768 46.594 29.0956 46.7195 28.9361 46.2283C28.9203 46.1802 28.9727 45.3277 28.9125 45.454C28.9018 45.477 28.8151 45.5867 28.7849 45.7708C28.7806 45.7986 28.7753 46.1975 28.7486 46.2078C28.594 46.2606 28.4398 46.1617 28.3008 45.9108C28.2785 45.8695 28.3259 45.4469 28.3101 45.4138C28.1981 45.1825 28.0477 45.498 27.9493 45.1071C27.8835 44.8439 27.9497 44.1125 27.9442 43.389C27.9434 43.2869 27.8954 43.2683 27.914 42.8484C27.9608 41.7927 28.0429 40.6381 28.09 39.5126C28.1002 39.2702 28.0216 39.5279 28.0899 38.9443C28.0946 38.9052 28.1518 38.7133 28.1735 38.5152C28.1886 38.3783 28.1955 37.9507 28.221 37.7757C28.2464 37.6009 28.2466 37.9596 28.2845 37.7545C28.3226 37.5467 28.335 37.0605 28.3929 37.0058ZM43.0968 44.5117C43.074 44.1017 42.9921 45.595 43.0571 45.24C43.0604 45.2211 43.098 44.5318 43.0968 44.5117ZM48.3629 44.5412C48.3394 43.8795 48.2517 44.8462 48.266 45.357C48.2804 45.8673 48.3701 44.7417 48.3629 44.5412ZM48.9759 44.0899C48.9358 43.5672 48.8184 45.6846 48.9111 45.26C48.9165 45.236 48.9783 44.1203 48.9759 44.0899ZM28.149 43.1934C28.1494 43.1735 28.1152 43.1524 28.1134 43.172C28.0708 43.6454 28.139 43.6873 28.149 43.1934ZM49.5866 43.5958C49.5803 43.3083 49.504 43.636 49.5117 43.9936C49.518 44.2812 49.5944 43.9535 49.5866 43.5958ZM40.912 42.8033C40.9124 42.781 40.8882 42.7597 40.8824 42.8855C40.8636 43.2908 40.9044 43.1782 40.912 42.8033ZM50.5807 43.6216C50.4381 43.5345 50.4375 41.7804 50.5872 41.9859C50.6144 42.0231 50.4967 42.5407 50.5256 42.7003C50.5784 42.991 50.6787 41.8948 50.7177 42.4869C50.7247 42.5953 50.5887 43.6304 50.5803 43.624C50.5805 43.6232 50.5806 43.6224 50.5807 43.6216ZM43.1624 42.7165C43.1625 42.6967 43.1286 42.6762 43.1268 42.6957C43.084 43.169 43.1522 43.2105 43.1624 42.7165ZM39.4895 41.8056C39.4897 41.7634 39.4108 41.72 39.4062 41.7586C39.3249 42.5319 39.4842 42.622 39.4895 41.8056ZM45.5648 41.7421C45.6269 41.267 45.6752 41.2131 45.6753 41.8136C45.6391 41.7799 45.6013 41.7733 45.5648 41.7421Z" fill="#B92E2D"/>
</svg>
