<svg width="370" height="49" viewBox="0 0 370 49" fill="none" xmlns="http://www.w3.org/2000/svg">
<path d="M694.05 57.7796C679.198 63.0232 669.06 57.4518 655.281 56.5638C624.951 54.613 584.953 56.37 553.932 56.2306C530.452 56.1249 506.593 55.7507 483.255 55.4506C482.058 55.4358 481.344 54.8609 480.801 54.8537C475.691 54.786 467.123 55.3068 462.054 55.2308C451.391 55.0723 432.837 55.1619 423.071 54.6229C418.924 54.3947 414.67 54.2996 413.058 52.9311C411.543 52.8614 410.716 54.0979 410.32 54.1652C410.315 54.164 410.311 54.1628 410.306 54.1615C409.032 54.3703 405.814 53.5033 405.103 53.5573C404.997 53.5658 405.651 54.4614 403.928 54.1908C403.774 54.1676 403.916 53.5586 402.465 53.55C402.088 53.5479 397.235 54.4816 395.849 54.5387C391.234 54.7246 380.213 53.9915 374.696 54.0041C373.852 54.0041 373.366 54.3603 372.475 54.3666C372.015 54.3703 371.324 53.9836 371.183 53.9858C370.562 53.9995 367.85 55.7554 368.824 52.2902C365.993 52.51 366.827 53.6556 366.763 54.3996C363.689 54.507 362.208 52.875 361.405 54.6046C346.291 54.3959 331.178 54.1872 316.064 53.9784C316.059 54.2604 316.055 54.5424 316.05 54.8243C311.595 53.6981 310.067 55.6031 307.524 53.9674C305.956 54.3275 304.387 54.6876 302.819 55.0477C262.516 53.9382 222.308 55.257 182.459 55.2528C180.777 55.2528 180.358 54.6528 177.584 54.6486C174.522 54.6443 170.215 55.3417 166.179 55.3333C162.638 55.327 157.416 54.7594 153.468 54.6705C152.577 54.6515 151.932 55.0315 151.832 55.0294C151.242 55.0146 151.213 54.4129 150.64 54.3959C149.956 54.3769 149.129 54.8225 148.338 54.795C145.384 54.6958 142.163 54.8494 141.789 54.839C139.987 54.782 139.589 54.1936 139.441 54.1871C137.436 54.1153 138.188 54.6464 137.689 54.6156C135.098 54.4528 133.267 53.1272 129.721 54.3995C129.817 53.9076 129.914 53.4157 130.01 52.9238C127.296 52.647 129.089 53.9541 128.534 54.1908C128.308 54.2785 122.466 54.1189 122.015 54.0956C120.446 54.0111 120.404 53.3574 120.268 53.3485C119.938 53.3274 115.99 54.0693 113.966 53.4987C111.571 52.8224 114.389 51.4926 113.795 51.2429C113.695 51.2006 111.187 51.3369 110.851 50.9206C110.479 50.4728 112.647 50.4823 112.614 50.2944C112.591 50.1655 108.991 49.2423 109.681 48.6209C110.235 47.9977 115.119 48.7968 116.154 48.5037C116.325 48.4552 116.003 47.686 116.154 47.6578C116.762 47.5543 128.014 47.5311 128.529 47.6578C127.943 48.0081 127.357 48.3585 126.771 48.7088C127.55 48.7442 128.329 48.7796 129.108 48.815C128.001 49.0957 126.893 49.3765 125.785 49.6572C127.431 52.5419 132.39 49.6176 132.594 48.1778C132.683 47.512 129.651 45.799 132.472 44.8014C132.043 44.6305 131.615 44.4597 131.186 44.2888C130.302 44.5695 129.418 44.8503 128.534 45.131C129.123 45.308 129.711 45.485 130.3 45.662C130.083 45.8622 129.867 46.0624 129.65 46.2626C127.998 46.5836 126.346 46.9046 124.694 47.2257C123.844 47.0777 124.021 46.4867 123.437 46.3724C116.155 44.9331 120.905 46.7647 116.138 46.5006C115.457 46.1832 114.776 45.8659 114.096 45.5485C114.336 46.8611 112.224 46.0369 109.67 46.6031C109.975 46.1784 110.28 45.7536 110.585 45.3288C106.885 45.5549 99.3852 43.4133 101.409 45.7572C100.561 45.557 99.7137 45.3568 98.866 45.1567C98.15 45.5399 97.4343 45.9232 96.7182 46.3065C95.7286 46.2626 94.7393 46.2186 93.7498 46.1747C93.7452 45.9672 93.7408 45.7597 93.7362 45.5521C94.5253 45.5509 95.3143 45.5497 96.1034 45.5485C95.5112 44.9162 94.919 44.2839 94.3267 43.6516C93.7444 43.7565 93.162 43.8615 92.5797 43.9665C95.0224 44.5645 91.802 45.5413 91.0224 46.3761C88.9632 46.6846 87.6474 45.601 86.957 45.5521C86.6325 45.5289 82.8092 47.4406 84.3082 45.3398C82.3409 45.5949 80.3737 45.85 78.4065 46.1051C77.6373 45.944 76.8681 45.7829 76.0989 45.6217C77.7684 44.6432 72.9302 43.4641 76.4943 43.0583C79.1556 42.754 79.8115 43.6689 81.0743 43.6626C82.2126 43.6581 82.8147 43.0419 84.0536 43.0144C92.3857 42.8411 99.1729 42.9541 107.086 43.2268C108.649 43.2816 110.071 42.9794 111.122 43.0217C112.307 43.0704 110.822 43.8433 112.332 43.6552C113.919 43.4564 114.262 42.8257 114.681 42.813C114.941 42.8058 115.767 43.3733 116.528 43.3733C119.652 43.3731 124.23 42.8244 124.675 42.8276C125.176 42.834 134.013 43.346 134.436 43.4392C134.66 43.4899 134.195 45.5853 136.142 43.3513C136.75 43.3098 137.357 43.2683 137.965 43.2268C137.867 43.6455 137.768 44.0642 137.67 44.4828C141.269 42.8956 140.031 43.7836 143.501 43.6589C151.81 43.3588 164.066 43.7116 173.153 43.5637C175.182 43.5298 175.955 43.0285 178.356 42.9924C180.586 42.9607 186.41 44.4566 185.143 42.3845C190.106 44.1788 190.903 41.0847 193.388 43.0144C193.688 42.7336 193.989 42.4529 194.29 42.1721C196.986 43.3768 197.819 42.3181 200.763 42.1721C202.031 42.1087 200.569 43.3901 203.13 41.9634C203.619 42.0696 204.109 42.1758 204.598 42.282C204.484 42.592 204.37 42.9021 204.257 43.2121C207.101 42.9585 207.284 43.1201 206.96 41.9597C208.333 42.1709 209.706 42.3821 211.079 42.5933C211.25 42.2124 211.42 41.8316 211.591 41.4507C210.933 40.7243 179.754 41.8198 175.412 42.1685C170.32 41.3064 160.09 42.3842 155.976 42.1795C154.33 42.097 153.602 41.2357 151.207 41.1321C148.811 41.0286 145.797 41.811 144.522 41.8389C140.273 41.9361 120.144 41.7643 133.835 40.6927C133.441 40.2728 133.048 39.8529 132.654 39.433C127.214 40.8658 129.183 39.9837 124.669 39.8358C122.769 39.7726 118.25 40.7103 118.502 38.8031C122.031 38.448 125.78 39.0576 128.848 39.0301C129.153 39.0272 132.786 38.1563 134.655 38.3929C136.342 38.6089 135.181 40.4271 138.851 38.3856C141.576 40.3798 143.152 38.5706 143.872 38.3783C145.116 38.0448 145.253 39.029 146.497 39.1437C147.852 39.2703 148.784 38.6169 148.969 38.6127C150.827 38.5979 160.505 38.5088 160.949 38.9056C160.56 39.0802 160.171 39.2547 159.781 39.4293C162.295 39.7102 161.769 38.7038 162.43 38.5834C162.922 38.587 163.414 38.5907 163.906 38.5944C163.711 38.8031 163.516 39.0118 163.321 39.2206C166.29 39.1762 164.018 38.4508 168.232 38.4699C170.907 38.4826 173.67 39.2795 173.93 39.2206C174.007 39.2037 173.165 38.6664 174.255 38.5944C176.061 38.476 179.182 38.4897 179.531 39.2206C180.415 39.1171 180.34 38.4019 180.458 38.3856C180.971 38.3159 189.804 38.0727 191.386 38.0304C195.771 37.9142 200.652 38.0667 205.402 37.9462C205.891 37.9341 205.579 38.3931 206.069 38.3783C206.854 38.3548 210.888 37.6345 211.491 37.5837C212.995 37.459 216.951 37.7447 217.574 37.536C217.662 37.5065 216.36 36.8861 217.883 36.6938C219.573 36.481 218.663 37.3153 218.755 37.3237C222.195 37.609 224.367 37.0293 226.715 36.9172C227.476 36.8812 228.88 37.5092 229.954 37.3237C230.078 37.3026 229.833 36.7223 229.954 36.6938C231.577 36.3894 233.095 37.4663 233.798 37.536C235.516 37.7065 234.58 36.9118 234.67 36.9062C235.814 36.8808 237.355 37.1675 239.095 37.1296C246.855 36.9605 253.188 36.9119 261.437 36.9648C262.473 36.9711 263.703 37.5317 263.861 37.5324C264.351 37.5282 264.211 36.8694 265.627 36.8842C268.613 36.918 271.381 36.8862 274.337 36.8989C274.933 36.9015 275.186 37.5119 275.64 37.5251C277.162 37.5631 282.353 35.9649 282.438 37.9535C285.459 36.1931 287.466 37.7104 289.897 37.6935C295.657 37.6555 304.675 37.2968 310.416 37.5251C311.625 37.574 312.193 38.0835 312.865 38.111C314.071 38.1616 320.966 37.8769 321.326 37.9572C322.034 38.1115 321.61 40.3553 325.251 38.4003C327.385 38.261 327.133 39.1819 327.574 39.2316C331.015 39.6014 334.362 37.5461 333.736 39.4293C337.742 38.9179 340.338 37.8773 341.972 39.638C341.951 38.7788 343.835 38.2633 346.105 38.5907C343.781 40.0342 344.068 40.9567 338.446 40.6927C338.357 40.6885 338.526 40.0671 338.438 40.0628C337.635 40.0209 335.96 40.3346 334.592 40.3009C333.223 40.2671 333.983 39.8423 333.435 39.8504C332.934 39.8589 332.951 40.4535 332.225 40.462C329.87 40.4853 327.787 40.6492 326.448 40.6597C325.604 40.6659 324.66 40.1434 324.005 40.1434C321.473 40.1477 316.108 40.5557 312.887 40.4986C312.215 40.4853 312.497 39.899 311.029 39.8504C310.857 39.8448 310.231 40.4561 308.946 40.5828C307.66 40.7096 306.663 40.406 305.836 40.4693C305.146 40.5221 305.435 41.0652 304.019 41.0992C302.839 41.1267 289.472 40.7354 288.746 40.6487C287.702 40.5238 287.206 39.7611 286.569 39.8541C286.456 39.874 286.267 40.6107 285.878 40.6634C279.469 41.534 265.285 40.529 257.962 40.5352C242.655 40.5458 228.534 40.9792 213.092 41.1504C212.816 41.2786 212.541 41.4068 212.265 41.5349C213.826 41.5398 215.387 41.5447 216.948 41.5496C216.958 41.8963 216.968 42.2429 216.978 42.5896C219.088 42.6445 218.809 41.8246 218.749 41.3299C219.53 41.5398 220.311 41.7498 221.092 41.9597C221.766 40.7516 226.974 41.5551 229.659 41.5533C231.405 41.5533 233.483 41.0927 234.404 41.1285C236.35 41.2024 236.299 41.9479 236.452 41.9597C236.711 41.9766 239.427 41.3192 241.387 41.3445C244.283 41.3807 244.596 42.5254 248.561 41.5533C253.642 42.1471 259.271 41.8482 264.747 41.751C263.704 42.8091 268.611 41.8076 270.825 41.8242C284.326 41.9278 300.92 42.3799 314.598 42.7983C316.356 42.8512 317.684 43.4745 318.664 43.4538C319.195 43.4433 319.426 42.7084 320.164 42.8057C320.294 42.8244 320.384 43.5115 321.757 43.615C325.173 43.8749 333.684 42.7282 335.838 44.0471C347.519 43.8432 359.201 43.6394 370.882 43.4355C371.176 43.7163 371.469 43.997 371.763 44.2778C373.982 42.8431 382.754 43.6861 387.033 43.6186C394.562 43.4982 404.169 43.0521 410.767 43.0034C412.2 42.9929 413.375 43.3999 414.732 43.3916C415.316 43.3874 416.042 42.8597 416.649 42.8569C423.471 42.8168 432.707 43.3603 439.582 43.3477C455.19 43.3202 469.889 43.4002 485.704 43.377C538.978 43.2945 591.945 42.5185 644.765 42.8313C645.473 42.8356 645.437 43.4423 645.986 43.4465C649.226 43.4761 656.46 42.976 660.119 43.0034C663.034 43.0246 667.661 43.9523 668.664 43.0181C658.308 41.6041 647.366 41.7105 636.585 41.3153C635.819 41.2874 635.723 40.7106 635.629 40.7C633.884 40.4996 634.986 41.294 632.455 41.3299C631.609 41.342 623.795 39.5006 624.725 41.3336C622.854 40.6003 609.663 40.2338 607.117 40.4767C606.344 40.5506 606.892 41.0937 606.738 41.1212C606.072 41.2411 605.771 40.4924 605.175 40.473C603.588 40.4265 599.551 41.0339 598.784 41.0296C597.018 41.0231 591.727 40.4136 589.396 40.5572C587.26 40.6883 587.66 41.4704 585.813 41.5423C584.357 41.5969 585.943 40.939 582.693 40.7403C581.082 40.6431 575.447 41.1138 574.077 41.1138C572.708 41.1138 571.185 40.6458 569.297 40.6817C566.577 40.7325 560.66 40.9931 557.892 41.1431C557.726 41.1516 557.324 41.7601 556.917 41.7474C556.073 41.7219 556.326 40.9704 555.69 40.8941C555.052 40.8181 544.016 40.9099 542.142 40.9014C540.85 40.8972 539.958 41.3448 539.244 41.3409C538.684 41.3367 538.624 40.7107 538.052 40.7037C537.875 40.7037 536.369 41.2474 534.864 41.2347C533.443 41.2219 528.044 40.7049 527.419 40.7C527.012 40.6979 527.458 41.1427 526.254 41.1322C525.157 41.1213 524.437 40.5437 523.811 40.5352C522.36 40.5165 520.738 41.009 519.199 41.0113C514.773 41.0176 515.001 40.3022 514.735 40.2789C513.999 40.2143 513.704 40.8696 513.462 40.8831C512.442 40.9381 509.941 41.0591 509.031 41.0845C507.898 41.1162 507.418 40.4934 506.215 40.4913C505.317 40.4917 503.506 41.0989 501.459 41.1285C496.844 41.1982 491.357 41.3129 486.825 41.2896C485.474 41.2833 485.266 40.7148 484.853 40.7C482.682 40.622 481.467 41.2576 480.847 41.2493C476.428 41.1923 468.544 40.195 464.442 40.1105C462.772 40.0766 455.461 40.5371 451.336 40.4547C450.864 40.4461 451.306 40.0004 450.781 40.0702C449.525 40.2374 449.642 41.145 449.004 41.1175C448.697 41.1015 447.996 40.5898 447.1 40.5389C442.456 40.2747 439.263 40.6726 437.144 40.6451C416.798 40.3809 396.05 40.1432 377.049 40.0628C374.931 40.0544 372.304 40.5943 369.106 40.0702C369.007 39.7882 368.909 39.5062 368.81 39.2242C368.698 39.5013 368.586 39.7784 368.474 40.0555C364.852 40.2056 363.483 40.5622 359.783 40.2093C359.465 40.1797 358.492 38.8925 357.89 40.4913C354.225 39.3331 356.236 40.5007 353.516 40.6085C350.796 40.7162 348.153 40.3593 345.515 40.2789C344.069 39.7061 350.136 38.3851 350.531 38.3893C351.168 38.3944 351.83 39.1893 352.443 39.2316C354.26 39.358 356.017 38.7272 356.425 39.4366C358.773 38.6865 355.85 39.0613 356.143 38.3856C357.71 38.6652 359.278 38.9447 360.845 39.2242C361.643 36.9262 370.303 39.9231 369.701 38.1732C370.39 38.5236 371.079 38.8739 371.768 39.2242C374.789 37.029 376.565 38.5748 380.595 39.2279C380.304 38.9471 380.013 38.6664 379.723 38.3856C379.805 38.2685 383.361 37.8195 382.09 39.0155C385.735 37.4397 385.582 40.0609 388.85 38.1659C390.791 37.9229 389.624 39.0235 393.1 39.0045C395.159 38.994 397.716 38.4185 400.017 38.3783C400.547 38.3709 400.778 39.0082 401.249 39.0082C401.721 39.0079 401.951 38.3831 402.522 38.3673C403.702 38.3335 405.232 38.7721 405.97 38.7299C406.631 38.6938 407.576 38.1427 409.169 38.0561C414.732 37.7497 413.052 38.5367 413.93 38.8031C414.874 39.0863 415.553 38.0493 417.435 38.1696C417.624 38.1823 417.135 38.8285 417.749 38.8031C418.244 38.7832 418.493 38.0808 420.132 37.9499C420.785 37.897 430.92 37.7466 432.464 37.7338C434.83 37.7148 440.101 38.3093 442.55 38.3051C443.494 38.305 444.502 37.741 445.505 37.7448C448.827 37.7575 454.146 37.8052 458.359 37.8327C462.153 37.8582 468.813 39.103 470.891 37.9792C476.219 37.8334 477.513 38.7937 477.914 38.8068C479 38.8427 479.503 38.2065 480.872 38.1769C498.604 37.8071 521.954 38.2276 538.748 38.1769C577.706 38.0543 616.876 37.7067 655.969 37.9645C656.074 37.6826 656.179 37.4006 656.284 37.1186C651.663 36.9368 646.233 36.447 641.672 36.3349C635.582 36.1871 626.548 37.3614 622.081 35.4341C623.893 35.2651 626.844 36.0041 626.791 35.013C623.553 34.9422 620.315 34.8714 617.076 34.8006C617.173 35.2583 617.27 35.7161 617.366 36.1738C613.985 36.307 610.527 36.2072 607.134 36.2727C606.544 36.2835 606.962 36.699 606.448 36.7011C605.874 36.7027 606.263 36.2797 606.156 36.2764C604.705 36.2721 604.266 36.7 604.089 36.6938C603.635 36.6769 603.988 36.2696 602.678 36.1555C600.248 35.9423 598.508 37.0243 599.079 35.2217C598.294 35.2217 597.51 35.2217 596.725 35.2217C596.522 35.7124 596.319 36.2031 596.116 36.6938C591.29 34.7127 589.065 38.1879 586.398 35.4304C585.519 35.8516 584.639 36.2727 583.76 36.6938C583.264 36.2031 582.769 35.7124 582.273 35.2217C582.176 35.6428 582.08 36.064 581.983 36.4851C577.245 36.1746 572.2 36.6801 567.669 36.6316C564.512 36.5978 563.756 36.4315 560.96 36.4631C554.741 36.535 560.917 35.6993 555.749 34.7969C556.018 35.3132 556.287 35.8296 556.556 36.3459C555.7 36.5351 554.845 36.7243 553.989 36.9135C553.393 36.4924 552.797 36.0713 552.201 35.6501C549.558 37.8345 547.846 36.0713 547.486 36.0713C547.195 36.0751 546.196 37.3901 543.068 36.2763C544.366 38.0742 540.682 36.2869 540.387 36.2763C540.107 36.2691 536.52 36.6704 535.065 36.6535C533.92 36.6407 531.478 36.2537 529.773 36.2727C528.267 36.2895 528.42 36.8999 528.31 36.9062C526.457 36.9569 527.618 36.4827 526.279 36.4594C524.939 36.4362 523.9 36.9564 523.611 36.9099C523.465 36.8851 523.952 36.3166 523.286 36.2617C521.498 36.1119 518.264 36.6097 516.217 36.5949C515.491 36.5904 514.577 36.108 513.768 36.0932C512.53 36.0722 511.951 36.7128 511.231 36.6938C510.98 36.6855 509.382 35.6959 507.396 35.8479C507.018 35.8784 505.907 37.9724 504.432 35.0056C504.319 35.4231 504.205 35.8406 504.091 36.258C497.429 37.2916 495.575 33.9001 492.613 36.9099C487.775 36.5737 491.096 35.4013 490.565 35.2217C490.222 35.1082 488.645 35.4305 488.472 35.4121C488.165 35.3762 488.218 34.9999 487.881 35.002C481.715 35.0717 484.453 35.7822 482.5 36.2324C477.856 37.3039 474.232 34.925 482.31 35.6392C482.31 35.4292 482.31 35.2192 482.31 35.0093C480.321 35.21 475.272 35.1147 476.958 34.0498C478.286 33.2108 490.264 33.7584 483.48 32.5814C481.94 32.3151 481.142 33.103 478.475 31.6256C476.711 31.5455 476.457 33.4594 474.068 32.6912C474.461 33.359 474.854 34.0267 475.246 34.6944C471.989 35.5647 467.971 34.3972 465.469 34.7713C464.619 34.8987 461.556 38.0821 462.27 34.8994C460.841 35.0979 454.109 34.5116 452.858 34.7969C452.558 34.8658 452.166 36.5603 447.813 35.9687C447.51 35.7563 447.208 35.5439 446.905 35.3315C450.887 34.7145 443.855 34.0868 445.765 32.4788C446.414 33.2016 449.571 33.6424 450.08 34.0059C450.947 34.6315 448.363 35.4378 451.656 35.218C453.732 32.5306 447.797 33.7672 448.704 31.2155C444.381 32.4066 443.949 31.2701 442.97 31.2228C438.787 31.0305 436.154 31.3009 432.207 31.0031C431.245 31.5272 438.391 32.2839 439.276 32.0577C436.018 33.9155 441.625 33.9996 443.991 32.8963C444.19 33.4578 444.388 34.0193 444.587 34.5808C441.507 34.2765 438.502 34.1201 435.451 34.5808C435.253 34.3709 435.054 34.1609 434.855 33.951C435.54 33.6348 436.224 33.3187 436.909 33.0025C434.371 32.4848 435.893 34.1222 432.513 32.6876C432.408 33.3199 432.303 33.9522 432.199 34.5845C428.957 34.3745 425.716 34.1646 422.475 33.9546C420.788 35.2226 414.551 34.7503 415.693 33.1087C413.176 32.9928 416.284 33.8665 413.925 34.2659C412.898 34.4392 410.891 34.4879 410.396 34.0462C410.609 32.483 413.612 32.2889 414.521 31.2155C413.969 30.8691 400.004 31.9852 401.249 30.1571C400.134 29.9374 400.647 30.8791 398.636 31.1202C393 31.7924 384.271 29.931 379.733 32.2664C385.062 33.5663 386.638 32.1896 390.722 32.1346C393.33 32.0987 409.232 31.877 405.68 33.5298C406.264 33.3199 406.848 33.1099 407.433 32.9C408.023 33.3919 408.613 33.8838 409.204 34.3758C407.54 34.4466 405.876 34.5174 404.212 34.5882C403.815 34.0974 403.418 33.6067 403.021 33.116C402.837 33.4664 402.654 33.8167 402.471 34.167C401.77 34.2366 401.07 34.3062 400.369 34.3758C400.566 33.9546 400.763 33.5335 400.959 33.1124C399.88 33.0404 398.8 32.9683 397.72 32.8963C398.011 33.459 398.302 34.0218 398.592 34.5845C393.507 34.726 395.229 34.3736 392.409 33.3211C390.303 33.2135 393.86 34.2951 389.405 34.5698C384.225 34.8889 387.623 33.1694 380.914 33.5372C380.818 33.8179 380.721 34.0987 380.625 34.3794C379.149 34.0987 377.674 33.8179 376.199 33.5372C376.394 33.8863 376.589 34.2354 376.784 34.5845C373.739 34.4492 369.543 35.1155 368.534 33.7459C371.62 34.4053 371.59 32.014 370.787 31.5743C369.131 30.6723 344.658 31.5115 339.914 31.5707C333.848 31.6467 329.264 30.8807 323.723 32.0577C327.478 33.0231 340.681 32.2322 343.183 32.9C343.431 32.9655 343.361 35.1577 344.954 32.6912C350.088 33.1096 356.224 32.4107 362.638 32.4825C362.442 33.1136 362.246 33.7447 362.05 34.3758C358.108 33.0336 354.46 35.9816 354.973 33.5298C354.188 33.5298 353.404 33.5298 352.619 33.5298C352.619 33.9522 352.619 34.3745 352.619 34.7969C351.437 34.7969 350.254 34.7969 349.071 34.7969C349.071 34.3745 349.071 33.9522 349.071 33.5298C348.092 33.5298 347.112 33.5298 346.133 33.5298C346.031 33.951 345.929 34.3721 345.827 34.7932C342.893 33.9185 332.894 36.2573 337.29 33.7422C335.912 33.7422 334.534 33.7422 333.156 33.7422C333.161 34.0511 333.165 34.3599 333.17 34.6687C332.578 34.7102 331.986 34.7517 331.393 34.7932C331.588 34.5137 331.783 34.2342 331.978 33.9546C329.264 34.4555 326.691 32.9839 324.909 33.951C326.085 34.1621 327.26 34.3733 328.436 34.5845C326.181 34.1833 322.028 35.0145 321.656 35.0166C320.524 35.0208 319.926 34.3965 318.699 34.3648C317.591 34.3377 317.743 34.8174 317.537 34.8005C311.56 34.3122 313.838 31.715 311.048 34.7896C310.75 34.3696 310.453 33.9497 310.156 33.5298C309.761 33.8802 309.366 34.2305 308.97 34.5808C307.205 34.5479 305.44 34.5149 303.675 34.4819C304.264 35.0068 304.852 35.5317 305.441 36.0566C302.795 36.2909 301.561 35.2385 301.305 35.2143C300.58 35.1531 300.248 35.8137 300.024 35.8149C289.243 35.7578 295.791 35.1762 290.404 32.6949C288.483 33.6686 290.426 34.6448 290.699 35.6355C288.145 35.1707 287.348 35.4451 284.651 35.3901C283.95 35.3752 283.195 34.8407 282.752 34.8335C282.369 34.8272 281.17 35.3951 280.25 35.3974C278.716 35.4017 276.674 35.0631 274.573 35.0715C272.826 35.08 267.48 35.4811 263.75 35.4853C262.159 35.4853 262.528 35.0103 262.117 35.0093C261.946 35.0093 260.706 35.5783 259.685 35.5805C251.359 35.5932 242.826 35.2331 234.458 35.2436C228.563 35.25 222.573 35.7076 216.667 35.6611C215.41 35.6505 216.075 35.2328 215.526 35.218C215.338 35.2143 215.111 35.9432 213.167 35.6501C212.465 35.5444 213.273 35.0346 212.582 35.0093C212.246 34.9972 212.104 35.6362 210.139 35.7819C206.57 36.0481 204.651 35.1963 204.332 35.2217C203.731 35.2707 203.907 35.7996 203.111 35.8186C199.217 35.9115 195.966 36.0012 192.491 36.0456C190.869 36.0667 179.68 36.1737 179.065 36.0786C177.691 35.8673 178.97 34.7629 177.208 34.8005C176.714 35.0801 176.22 35.3596 175.726 35.6391C176.511 35.8515 177.295 36.0639 178.08 36.2763C175.92 35.9213 173.471 36.4235 171.872 36.4045C171.576 36.4002 168.858 35.8993 167.471 35.9541C168.06 35.7465 168.65 35.539 169.239 35.3315C169.031 35.1545 168.822 34.9775 168.614 34.8005C165.84 35.0689 162.907 35.062 160.063 35.0239C159.038 35.011 159.384 34.581 158.346 34.5662C152.299 34.4755 153.826 36.2634 148.008 32.9073C149.972 33.2115 157.139 32.7846 158.181 32.8963C158.907 32.9745 161.721 35.8103 160.689 32.9C166.495 32.9126 161.452 34.5179 166.875 34.167C166.767 33.8118 166.658 33.4566 166.55 33.1014C168.443 32.8774 169.841 32.6979 170.992 33.3247C171.378 31.6015 177.81 32.6097 181.338 32.4935C186.436 32.3286 192.196 31.9083 197.247 31.8343C198.987 31.8092 199.973 32.4846 200.191 32.4825C200.51 32.4776 201.407 31.8861 202.044 31.8819C204.422 31.8651 211.657 32.865 213.457 31.2228C199.307 31.2228 185.156 31.2228 171.005 31.2228C172.784 32.03 158.471 32.1088 157.745 32.0687C157.073 32.0326 157.638 31.4659 157.439 31.4315C155.952 31.1884 154.682 32.0101 154.21 32.0101C153.85 32.01 153.123 31.6244 151.843 31.6329C151.608 31.6341 151.543 32.0418 151.29 32.043C149.621 32.043 147.972 32.0373 146.296 32.0394C146.194 32.0354 145.771 31.4399 145.348 31.4388C144.924 31.4388 144.505 32.0339 144.398 32.0357C143.058 32.0315 140.762 31.6445 139.487 31.6402C139.045 31.6404 139.351 32.0765 138.856 32.0723C137.334 32.0618 137.835 31.208 135.953 31.4278C135.322 31.5019 135.362 32.1548 134.154 32.0687C133.299 32.0074 133.391 30.8439 133.255 30.8016C133.068 30.7505 130.115 31.6693 129.149 30.9078C131.26 28.8974 126.84 30.8029 127.053 31.6512C125.883 31.4376 124.713 31.224 123.543 31.0104C123.144 31.2252 122.744 31.44 122.345 31.6549C117.625 30.6869 114.745 31.2681 110.101 30.9701C109.876 30.9553 105.963 30.4777 106.146 30.1754C108.488 29.6556 110.825 29.6318 112.324 30.5929C114.791 28.7604 114.833 30.2207 118.816 29.9777C120.15 29.8952 120.245 29.3981 120.398 29.3918C125.585 29.1445 133.891 28.9306 137.385 30.3842C138.365 29.991 134.843 29.8351 136.213 29.5456C136.959 29.387 154.93 28.9228 149.189 30.5966C149.785 30.5502 150.38 30.5038 150.976 30.4574C151.572 28.8764 154.536 29.238 154.199 30.8126C154.48 30.4904 154.761 30.1681 155.042 29.8458C155.596 29.5732 156.253 29.4272 157.173 29.3405C160.698 29.0109 181.669 29.5593 182.784 29.3332C182.809 28.9596 182.835 28.5861 182.86 28.2126C173.595 27.7899 164.608 28.7181 154.505 27.6487C154.799 27.999 155.092 28.3493 155.386 28.6996C151.355 28.2089 147.323 27.7182 143.292 27.2275C147.559 26.5934 154.347 26.061 158.825 26.583C159.622 26.6761 159.038 27.1647 159.221 27.2239C159.699 27.3776 160.213 26.5299 161.929 26.4475C163.647 26.3652 167.961 26.9661 168.356 26.9492C169.119 26.9143 171.176 25.9445 172.473 25.9568C174.179 25.9737 173.035 26.574 173.378 26.5867C174.794 26.6457 176.063 26.3482 177.172 26.3926C178.819 26.4586 182.24 27.5142 183.391 25.9641C182.214 25.8933 181.038 25.8225 179.862 25.7517C186.241 25.1959 191.228 27.1773 197.513 25.6492C198.941 23.7724 193.748 24.026 198.138 23.225C197.341 23.2518 196.544 23.2787 195.747 23.3055C195.56 23.6986 195.373 24.0916 195.186 24.4847C193.813 24.2039 192.44 23.9232 191.067 23.6424C191.458 23.9928 191.85 24.3431 192.242 24.6934C187.374 24.9576 182.458 25.3168 180.758 23.4337C180.658 23.889 180.558 24.3443 180.458 24.7996C175.938 24.246 169.153 26.1758 170.42 23.6424C170.206 23.7767 169.992 23.911 169.778 24.0452C167.046 23.5274 168.213 24.5751 167.186 24.6934C166.893 24.7267 161.583 24.1858 163.936 23.4337C158.755 22.8588 160.353 25.2267 158.926 25.3306C155.609 24.1576 149.644 25.9172 152.152 24.0636C151.658 23.994 151.164 23.9244 150.67 23.8548C149.048 25.3132 147.448 23.6631 145.689 23.1114C145.094 23.0785 144.498 23.0455 143.902 23.0126C143.503 23.5033 143.104 23.994 142.705 24.4847C137.099 22.1492 138.874 28.5364 136.313 23.17C136.712 22.849 137.111 22.528 137.51 22.2069C138.456 22.0543 139.402 21.9018 140.348 21.7492C136.532 21.6076 132.716 21.466 128.9 21.3244C124.056 19.8202 121.3 21.4522 115.918 20.2624C115.414 20.4052 114.911 20.548 114.407 20.6909C114.92 19.4756 116.875 19.6541 113.234 19.1089C112.924 18.2496 115.383 18.1384 116.503 18.7976C116.774 18.9584 114.474 19.6166 117.059 19.6399C118.815 19.6564 115.625 18.6238 120.888 19.0063C120.693 18.7964 120.498 18.5864 120.303 18.3765C120.874 18.3826 121.444 18.3887 122.015 18.3948C122.522 18.8806 123.03 19.3664 123.537 19.8523C124.841 19.1506 125.573 18.1672 128.553 18.3765C127.745 18.6808 128.842 19.6564 130.316 19.6399C130.316 19.2883 130.316 18.9368 130.316 18.5852C133.887 18.3591 132.654 19.3905 135.622 18.5852C135.919 18.8647 136.216 19.1443 136.513 19.4238C138.13 18.2719 144.083 17.4883 142.997 19.2151C144.667 17.5369 148.174 18.2941 149.479 19.6362C149.579 19.2871 149.679 18.938 149.779 18.5889C150.473 18.5181 151.168 18.4473 151.862 18.3765C152.249 18.5876 152.637 18.7988 153.024 19.01C153.516 18.7988 154.008 18.5876 154.5 18.3765C154.797 18.7268 155.094 19.0771 155.391 19.4275C156.182 19.0076 156.973 18.5876 157.764 18.1677C158.248 18.4473 158.731 18.7268 159.215 19.0063C159.265 18.2756 164.06 18.1129 165.399 18.5925C165.798 18.3801 166.197 18.1677 166.596 17.9553C166.791 18.3032 166.986 18.6511 167.181 18.999C167.478 18.7207 167.775 18.4424 168.072 18.1641C168.756 18.4424 169.441 18.7207 170.125 18.999C172.916 17.2935 173.006 18.7899 173.643 18.7793C174.825 18.7597 178.848 17.6917 179.52 17.7466C180.192 17.802 180.517 18.4141 181.059 18.4717C189.998 19.4333 186.324 17.7906 188.117 17.5306C189.085 17.389 189.77 17.96 190.625 17.8968C192.089 17.7911 199.471 17.0355 199.896 17.1094C200.515 17.2162 199.058 19.9091 201.069 19.2151C201.135 17.7691 205.435 19.2285 203.425 17.212C205.196 17.389 206.966 17.566 208.736 17.743C208.536 16.0288 210.719 17.1313 213.097 17.0362C216.467 16.9029 224.054 15.7759 223.776 17.5342C224.583 17.1302 225.391 16.7261 226.198 16.3221C231.72 16.8756 237.137 16.2956 242.619 16.2745C258.888 16.209 276.538 16.5907 292.73 16.9373C293.509 16.9544 293.397 17.5289 293.957 17.5416C296.902 17.605 304.556 17.1987 308.68 17.3255C310.002 17.3657 310.645 17.926 311.064 17.9517C312.486 18.0426 312.15 17.3044 312.805 17.3255C313.838 17.3594 319.303 18.0446 321.185 18.1165C322.117 18.1521 323.22 17.5655 324.311 17.7466C324.405 17.7613 324.231 18.3659 324.311 18.3765C326.299 18.4505 325.103 17.9279 325.776 17.9554C330.573 18.1519 335.701 18.1639 340.905 18.2886C342.198 18.3203 344.175 18.7465 345.285 18.7866C345.708 18.8008 344.949 18.3421 346.412 18.3802C346.913 18.3931 347.084 18.9896 347.649 19.0283C350.086 19.191 350.902 17.2742 352.996 18.8159C357.038 18.7145 364.074 18.2223 367.762 18.2117C368.635 18.2099 369.059 18.5622 369.891 18.5559C370.481 18.5517 371.519 18.0059 372.44 17.9993C373.36 17.993 374.813 18.5127 376.584 18.4937C378.447 18.4746 380.765 18.1659 381.185 18.1678C381.693 18.1678 381.929 18.8242 382.436 18.8159C383.971 18.7948 388.078 18.1496 390.055 18.0799C392.179 18.006 393.454 18.3242 394.18 18.3179C394.852 18.3091 395.636 17.7552 395.943 17.7503C396.421 17.7418 396.534 18.3892 397.141 18.3838C398.132 18.3733 399.154 17.9662 400.64 17.9554C427.407 17.7546 453.65 18.1102 479.691 18.5816C482.594 18.6344 484.234 18.1804 488.512 18.3875C490.247 18.472 489.516 19.14 490.866 19.0137C491.468 18.9566 491.316 18.4312 492.077 18.4058C495.44 18.2959 499.359 18.7841 500.817 18.7757C501.395 18.7732 502.056 18.1764 503.241 18.1678C512.074 18.1001 522.525 18.2677 532.031 18.1641C537.065 18.1092 544.685 17.8051 550.462 17.765C566.424 17.653 583.595 17.7912 598.152 17.732C620.134 17.6453 642.009 17.0936 663.943 17.7467C653.681 16.3031 639.708 16.4236 628.284 16.2672C595.286 15.8191 560.151 16.6578 526.333 16.6261C514.567 16.6155 499.731 16.6487 486.849 16.3148C486.265 16.3 485.054 16.7589 483.792 16.7103C483.523 16.699 480.197 15.8618 479.076 15.8534C480.138 17.3413 475.748 16.0152 474.391 16.0511C472.679 16.0979 469.109 16.8415 465.103 16.421C461.468 16.0406 462.471 15.4682 462.27 15.4323C460.985 15.2003 460.536 16.1227 459.551 16.2159C455.527 16.5879 434.826 16.052 429.049 16.0182C427.556 16.0097 427.513 15.4234 427.177 15.4213C426.286 15.4174 425.018 15.9965 423.591 15.9925C421.018 15.9841 418.055 15.4307 416.639 15.4286C413.251 15.4223 406.824 16.0751 402.422 16.0877C401.184 16.0916 401.26 15.4814 400.699 15.4835C398.232 15.4942 391.807 16.2132 388.744 16.2196C383.77 16.2301 378.653 15.8357 373.596 16.0365C373.276 15.7643 372.955 15.4921 372.635 15.2199C372.129 15.5055 371.623 15.7911 371.118 16.0768C362.568 15.8591 353.864 16.4721 345.361 16.432C344.381 16.4277 339.531 15.9068 338.722 15.9046C338.05 15.9046 337.388 16.5789 336.39 16.4796C334.993 16.3417 336.308 15.0577 334.026 15.4249C333.412 15.5242 334.007 16.0739 332.775 16.2452C332.367 16.3023 324.465 16.5249 324.04 16.4869C323.332 16.4228 322.701 15.2452 322.518 15.2198C321.568 15.0869 321.609 15.9907 320.971 16.0731C319.091 16.3198 316.635 15.7119 316.329 15.7252C312.635 15.8922 305.729 16.6136 301.852 16.1866C301.316 16.1271 301.38 15.4541 301.286 15.4322C300.679 15.2928 300.301 16.059 299.724 16.0768C296.614 16.1634 291.744 15.6475 288.616 15.5165C288.256 15.5022 287.496 15.8708 286.853 15.8351C283.218 15.6279 284.397 15.0365 284.191 15.0111C283.701 14.9483 282.84 15.6006 281.536 15.641C278.179 15.7488 271.74 15.6551 268.14 15.6044C265.444 15.5642 265.485 14.8172 265.307 14.8024C264.929 14.7755 263.879 15.372 262.103 15.4396C258.687 15.5726 259.076 14.9858 257.672 15.0111C257.554 15.0111 257.76 15.5855 256.202 15.6446C253.192 15.7586 246.431 15.194 243.209 15.2235C241.97 15.2341 241.68 15.7879 240.412 15.7984C238.4 15.8174 233.86 15.2183 233.502 15.2198C233.402 15.2198 233.177 15.857 232.587 15.857C231.938 15.8569 231.299 15.529 230.816 15.5311C228.06 15.5399 223.313 16.6519 224.632 14.3776C223.749 14.9391 222.866 15.5006 221.983 16.0621C216.212 15.9501 210.606 16.175 204.888 16.2891C203.602 16.3144 202.528 15.8837 201.443 15.9046C200.357 15.9258 195.569 16.6383 194.769 16.6517C193.341 16.6749 185.226 16.75 184.217 16.6993C182.246 16.6021 180.334 15.6622 179.531 15.846C178.888 15.994 179.483 16.5236 178.256 16.6736C176.131 16.9332 172.521 16.2529 171.872 16.2635C171.595 16.2678 172.113 16.6806 169.518 16.7103C168.12 16.7272 167.369 16.2724 166.861 16.2745C166.704 16.2769 166.94 17.0144 164.172 16.9153C162.26 16.8456 161.445 16.2766 161.244 16.2745C160.943 16.2707 160.216 16.8779 159.007 16.8567C156.18 16.8038 151.012 16.1077 148.327 16.0548C147.808 16.0442 147.985 16.7777 145.914 16.7103C144.433 16.6617 144.692 16.0781 144.137 16.0548C143.258 16.0188 141.948 16.7334 140.007 16.7103C137.564 16.6807 119.424 15.9395 118.486 15.7472C117.855 15.6182 117.122 15.6101 116.809 15.2931C117.077 14.9891 117.346 14.6852 117.614 14.3812C120.392 15.4478 119.271 14.2288 120.008 14.1505C121.076 14.0385 125.101 14.194 126.075 13.9235C126.422 13.8258 125.628 13.177 127.491 12.8432C129.491 12.4863 130.381 13.6414 131.178 12.0632C134.016 13.8153 136.742 11.9557 133.455 11.459C131.621 11.182 113.622 10.5564 109.946 10.4592C106.966 10.3811 101.385 10.8507 97.7203 10.7302C95.5664 10.6584 90.262 10.5769 90.4861 9.73782C88.5743 9.63214 90.5976 10.4675 90.1963 10.5837C89.3573 10.8265 83.3898 10.2496 82.2606 10.2725C76.69 10.3824 69.6607 11.3204 64.2495 10.2615C64.5014 10.0369 64.7533 9.81228 65.0051 9.58767C66.2208 9.17553 71.8621 9.76474 72.4994 8.68682C64.2495 8.68682 55.9996 8.68682 47.7497 8.68682C47.9031 9.60411 37.6708 9.59179 37.1868 9.17753C37.3663 8.73321 37.5462 8.28888 37.7258 7.84456C43.508 9.53081 42.9895 7.30186 46.8722 8.48541C48.4529 8.5021 47.9757 7.76798 48.7545 7.6285C56.5068 6.2424 48.8789 9.13498 54.8133 8.47809C53.0269 7.41324 57.8871 7.0241 60.0649 6.88878C60.5607 6.85919 67.0706 7.12907 67.8435 7.11216C72.1868 7.01705 79.645 6.43369 83.9588 7.01695C87.3574 7.0867 89.2285 6.32821 92.3143 6.15272C94.6565 6.01959 93.9851 6.55266 95.0878 6.5592C97.4009 6.574 98.1622 4.95107 99.6433 7.2147C101.212 6.93273 102.78 6.65076 104.348 6.36878C104.348 6.72033 104.348 7.07188 104.348 7.42344C105.333 7.42344 106.318 7.42344 107.303 7.42344C107.593 7.07311 107.882 6.72277 108.172 6.37244C111.298 6.85226 109.993 7.69878 110.577 8.69415C111.253 8.76251 111.928 8.83086 112.603 8.89922C113.126 8.13509 113.649 7.37095 114.171 6.60681C117.187 6.66907 120.202 6.73132 123.218 6.79357C123.412 7.14391 123.608 7.49424 123.803 7.84457C123.809 7.49424 123.815 7.14391 123.822 6.79357C128.928 6.72156 134.034 6.64954 139.14 6.57752C140.499 6.01551 132.317 5.58963 131.698 5.55582C128.251 5.36989 119.099 5.93333 119.087 4.68426C116.945 5.61623 110.495 5.38483 108.489 4.2668C111.534 4.33393 114.579 4.40107 117.625 4.46821C117.526 4.04952 117.428 3.63083 117.329 3.21214C121.124 4.9008 121.679 4.80786 125.579 3.21214C125.583 3.77365 125.586 4.33515 125.59 4.89666C128.31 2.94417 133.117 6.25621 133.255 3.84567C134.703 4.04097 136.151 4.23628 137.599 4.43159C140.726 4.13774 135.871 2.28386 148.113 3.01073C148.957 3.06146 148.781 3.67551 150.05 3.63327C150.416 3.62059 152.511 2.72731 156.518 2.82031C157.143 2.83517 157.19 3.36789 157.839 3.43553C159.338 3.59613 162.323 2.54253 160.968 4.25948C166.903 4.76022 164.443 3.35109 166.284 2.79102C167.511 2.41932 167.265 3.43518 168.327 3.20482C169.641 2.91914 168.676 1.89504 173.938 2.36622C173.348 2.4358 172.757 2.50538 172.167 2.57496C172.464 2.85327 172.761 3.13158 173.058 3.40989C176.062 2.7421 175.778 3.71783 177.194 2.15383C179.377 2.8513 181.266 2.90684 184.252 2.78003C190.053 2.53275 187.079 0.847223 193.699 3.11694C194.772 2.79834 195.844 2.47975 196.917 2.16115C198.68 2.8311 197.254 3.66929 199.885 3.83835C197.826 2.18342 203.378 2.78685 204.316 1.31157C204.415 1.66312 204.513 2.01468 204.611 2.36623C205.199 2.36623 205.787 2.36623 206.375 2.36623C206.376 2.08425 206.378 1.80228 206.38 1.52031C207.163 1.73148 207.946 1.94266 208.728 2.15383C209.317 1.8743 209.906 1.59477 210.494 1.31523C211.462 1.90482 212.43 2.4944 213.398 3.08398C214.005 3.12426 214.613 3.16454 215.22 3.20483C215.028 2.78492 214.836 2.36501 214.643 1.9451C215.424 2.08548 216.205 2.22585 216.986 2.36623C216.078 1.6772 216.649 0.869309 219.08 0.890444C221.086 0.907395 218.826 2.34548 223.14 1.74735C223.441 1.70471 223.973 0.679071 228.05 0.520583C232.94 0.330546 230.564 1.07344 231.436 1.09918C231.607 1.10341 233.1 0.587243 234.499 0.51326C235.293 0.471143 236.057 0.887871 236.162 0.886783C236.652 0.867765 236.794 0.278216 237.473 0.25692C239.196 0.206207 241.508 0.495075 243.196 0.465654C243.963 0.452973 244.685 0.103682 245.027 0.0994549C245.558 0.0954174 246.231 0.628896 246.768 0.626783C248.751 0.615622 251.76 -1.1544 252.681 1.30425C254.587 -0.956583 258.579 1.77683 258.287 0.260584C263.38 0.832825 276.965 -1.02731 276.566 1.52031C279.451 -0.658043 279.193 0.919506 280.402 0.886787C281.753 0.850858 281.053 0.428326 282.127 0.447348C284.634 0.491761 287.031 0.673262 289.526 0.681716C289.134 1.03083 288.743 1.37994 288.351 1.72905C290.971 1.84106 290.069 1.02862 292.741 0.87214C297.657 0.586816 295.585 1.23504 296.311 2.15018C296.116 1.26671 301.912 1.40407 302.502 1.52031C302.854 1.59117 301.312 2.72986 304.861 2.36257C304.667 2.01224 304.473 1.66191 304.279 1.31158C305.896 1.79074 310.289 1.18274 311.034 1.3006C311.376 1.35555 313.207 4.18083 314.883 1.94511C315.085 2.29544 315.287 2.64577 315.489 2.9961C317.35 2.57497 319.211 2.15384 321.071 1.73271C321.368 2.3638 321.665 2.99488 321.963 3.62596C322.553 3.62596 323.143 3.62596 323.734 3.62596C323.342 3.06568 322.95 2.50539 322.558 1.94511C326.204 2.19867 330.658 1.31517 331.41 3.20484C332.19 2.8545 332.971 2.50417 333.752 2.15384C334.261 2.78249 334.769 3.41113 335.277 4.03977C338.893 3.88122 338.953 3.46096 341.425 2.79103C341.329 3.28174 341.232 3.77245 341.136 4.26315C342.959 3.57415 346.288 2.93262 348.92 2.84596C350.171 2.80599 352.319 3.48218 352.614 3.4209C352.912 3.35628 355.846 0.699574 356.165 2.99977C360.484 1.98103 362.386 3.02147 364.138 2.9961C365.277 2.97903 365.796 2.42696 367.082 2.3699C368.923 2.28749 370.776 2.5544 371.838 2.51638C372.446 2.49314 372.56 1.9547 372.979 1.93779C374.96 1.85564 373.799 2.40583 375.887 2.3699C376.08 2.36369 377.607 1.7069 379.327 1.79131C380.289 1.83799 382.778 2.57677 382.997 2.57498C383.971 2.5623 383.193 1.08538 386.521 2.79104C386.424 2.51028 386.328 2.22953 386.231 1.94878C390.35 1.2365 391 2.48832 391.832 2.57498C391.938 2.5821 392.941 2.0982 393.541 2.16483C394.555 2.27881 394.963 2.94129 395.188 2.97047C395.978 3.07193 398.642 2.78049 400.383 3.4209C400.017 1.53559 406.116 0.865066 407.468 2.99977C408.548 2.57864 409.627 2.15751 410.707 1.73638C411.195 2.08793 411.684 2.43949 412.172 2.79104C412.469 2.44071 412.766 2.09038 413.063 1.74004C414.637 2.51151 416.211 3.28297 417.784 4.05443C417.885 3.28175 417.985 2.50906 418.085 1.73638C418.525 1.82427 418.966 1.91216 419.407 2.00005C419.751 2.61404 420.095 3.22804 420.439 3.84203C420.989 3.72485 421.54 3.60766 422.091 3.49048C422.227 3.04616 422.363 2.60184 422.5 2.15751C425.46 1.64532 423.939 5.88316 429.579 2.15751C430.457 2.50784 431.335 2.85818 432.212 3.20851C433.203 1.50346 435.061 2.53591 436.559 2.34428C437.615 2.20903 437.558 1.53171 438.997 1.51666C440.437 1.50187 440.385 2.14963 440.497 2.15385C441.671 2.1937 442.556 1.62257 443.417 1.73638C443.547 1.75329 443.872 2.52252 444.969 2.57132C446.066 2.61993 446.728 1.80181 448.362 1.95611C449.2 2.03432 449.442 2.68243 450.185 2.73977C453.726 3.01876 457.291 -0.263168 459.946 3.62964C460.545 3.13644 464.886 1.41004 466.745 1.50934C469.634 1.66789 468.521 2.43149 469.67 2.57132C469.835 2.59245 470.715 2.33452 473.139 2.3809C473.573 2.3893 473.472 1.95816 473.535 1.95245C476.361 1.9609 481.849 2.30125 484.953 2.36259C485.231 2.36893 486.683 1.16718 489.143 2.78372C492.79 1.58966 499.658 4.15507 504.468 2.35527C505.134 2.31723 505.944 2.7471 506.239 2.73245C508.782 2.5993 507.85 1.2942 513.598 3.20485C513.133 2.53929 514.477 1.93844 516.377 1.98907C519.233 2.06516 517.204 3.3063 519.5 3.20485C519.5 2.85452 519.5 2.50419 519.5 2.15386C524.78 3.09618 525.831 1.59837 531.13 1.58991C533.036 1.58781 535.851 2.36414 536.305 2.36626C536.481 2.36399 538.566 1.51936 538.765 1.51301C539.886 1.48765 540.519 1.8771 541.487 1.87921C544.685 1.88747 548.501 0.788695 547.811 2.78373C548.69 2.3626 549.569 1.94147 550.449 1.52034C553.771 3.65081 556.255 0.71454 556.952 2.78373C557.546 2.35649 558.14 1.92926 558.734 1.50203C572.983 1.71809 587.232 1.93415 601.481 2.1502C602.048 1.48443 608.261 1.72072 608.58 1.82429C610.043 2.29357 608.498 3.74541 611.483 3.41359C611.814 2.77763 612.144 2.14166 612.475 1.50569C616.227 1.29859 614.422 1.93144 615.904 2.3626C616.522 2.28417 616.323 1.79063 617.16 1.75471C621.704 1.55817 631.021 1.53486 635.989 1.49471C636.991 1.48627 636.84 1.94762 637.151 1.9488C638.007 1.94457 639.695 1.36318 641.412 1.36288C652.027 1.36711 667.069 1.69496 677.756 2.18317C678.482 2.21699 678.572 2.76725 679.062 2.79472C679.74 2.83048 681.257 2.38569 681.97 2.43219C682.643 2.47447 683.074 2.89241 683.793 2.9412C687.086 3.16947 691.513 2.46336 695.036 3.69558C695.332 3.79952 699.023 6.01479 699.107 6.1601C699.596 7.02244 696.316 8.3772 701.704 9.639C696.889 10.7402 698.393 12.6868 704.648 13.6379C701.511 13.8833 698.374 14.1286 695.236 14.374C695.232 14.6047 695.227 14.8354 695.223 15.0661C698.079 16.2094 700.912 16.59 705.255 16.6957C705.119 16.9093 704.984 17.1229 704.849 17.3365C701.013 18.4038 696.386 18.6011 693.465 20.0574C697.749 21.1352 702.033 22.2131 706.317 23.2909C706.103 23.4594 705.889 23.6278 705.675 23.7963C703.621 24.2338 699.136 24.4906 697.43 24.8985C690.917 26.454 703.131 26.0625 701.124 27.0115C694.248 26.9773 687.371 26.9432 680.494 26.909C680.253 27.6078 706.708 29.538 706.436 31.6476C704.274 31.7892 702.113 31.9308 699.952 32.0724C700.915 32.6083 701.878 33.1441 702.842 33.68C702.576 33.8497 702.311 34.0194 702.045 34.189C698.399 34.6053 694.752 35.0215 691.106 35.4378C702.192 35.0194 707.344 35.3231 710 39.5429C709.699 39.6503 709.399 39.7577 709.098 39.8651C706.696 37.2253 695.36 38.0791 689.335 38.6054C690.563 39.3787 695.868 38.7813 696.989 39.2462C697.306 39.3795 696.199 39.9163 696.935 40.191C698.858 40.9054 707.055 41.8245 705.864 42.6995C705.097 43.2617 691.907 44.0331 689.335 43.9739C695.365 44.9841 701.579 45.2764 707.627 46.5043C703.81 48.2163 700.428 50.3113 693.46 50.4043C691.335 51.3026 706.088 52.547 706.43 53.0373C703.877 53.5634 701.324 54.0895 698.771 54.6156C700.93 54.4753 703.09 54.3349 705.249 54.1945C705.256 54.3703 705.262 54.5461 705.268 54.7218C699.674 55.5377 694.556 57.0351 688.154 56.9337C688.36 57.8637 692.191 57.7712 694.05 57.7796ZM81.3749 4.88567C81.2458 4.11458 83.5931 4.241 84.9149 4.25581C84.7161 4.11543 84.5177 3.97505 84.319 3.83468C87.1398 3.98051 92.3903 4.27643 92.5851 2.78002C94.5972 2.59404 93.7076 3.89533 94.3565 4.04341C94.6102 4.10259 97.2365 3.34528 99.3373 4.26679C99.8366 4.26313 100.336 4.25947 100.835 4.25581C100.932 3.7651 101.028 3.27439 101.125 2.78369C101.821 3.37937 102.517 3.97506 103.213 4.57074C95.9373 4.67572 88.6616 4.78069 81.3857 4.88567C81.3822 4.88567 81.3785 4.88567 81.3749 4.88567ZM153.899 4.25215C156.548 4.52903 160.607 4.96621 159.787 3.62229C158.113 3.69309 156.439 3.76389 154.765 3.83468C154.476 3.97384 154.188 4.113 153.899 4.25215ZM417.475 5.31049C419.688 6.63359 421.726 5.48913 425.148 5.72796C425.144 5.44843 425.139 5.1689 425.135 4.88936C423.735 5.56058 420.036 5.11399 417.475 5.31049ZM15.6304 9.94288C15.143 9.83913 14.6553 9.73537 14.1679 9.63161C16.1506 8.12886 16.5054 9.18787 18.7478 9.04203C18.883 9.03291 18.8361 8.68893 18.8832 8.68682C19.4319 8.66361 19.9396 9.07767 20.4351 9.07133C21.3911 9.05863 22.1705 8.63907 23.864 8.65386C25.1736 8.66669 25.186 9.32627 25.6462 9.30936C26.0383 9.29305 29.9244 7.47855 32.4254 8.26203C37.1816 9.75421 17.0819 10.0824 15.6304 9.94288ZM1.53298 8.70146C2.00336 8.69536 2.47366 8.68926 2.94411 8.68315C1.52958 9.69699 4.38418 9.54291 6.47858 9.52175C6.41361 10.494 1.98276 10.0781 1.71631e-06 10.3677C0.510993 9.81227 1.02198 9.25687 1.53298 8.70146ZM61.0156 10.7851C59.1751 10.8842 59.4819 9.67075 59.5585 9.30936C60.1444 9.30936 60.7303 9.30936 61.3163 9.30936C61.216 9.80129 61.1157 10.2932 61.0156 10.7851ZM47.1728 11.2063C47.7452 10.382 51.741 10.0215 53.6351 9.95387C53.7178 9.95374 53.1975 10.4061 54.5371 10.364C54.9393 10.3508 58.8962 8.70475 58.0255 10.5727C54.4098 10.7839 50.7941 10.9951 47.1782 11.2063C47.1764 11.2063 47.1748 11.2063 47.1728 11.2063ZM43.1373 10.7192C43.8901 10.4604 44.6432 10.2017 45.396 9.94289C45.7852 10.3298 46.1744 10.7168 46.5634 11.1037C45.7066 11.2014 44.8499 11.299 43.9931 11.3967C43.708 11.1709 43.4225 10.9451 43.1373 10.7192ZM609.631 11.8179C609.456 11.4041 609.281 10.9903 609.105 10.5765C608.427 10.3228 605.128 12.1246 606.172 12.4734C607.325 12.2549 608.478 12.0364 609.631 11.8179ZM623.563 12.6858C624.249 12.8945 624.935 13.1032 625.621 13.312C626.41 12.6101 627.2 11.9082 627.989 11.2063C624.561 10.733 620.914 10.1876 621.502 12.2573C620.717 12.2573 619.933 12.2573 619.148 12.2573C619.809 11.4015 619.72 11.1196 617.667 10.5765C617.218 11.7673 615.095 11.1606 612.664 11.4224C614.432 11.492 616.2 11.5615 617.967 11.6311C617.967 11.8411 617.967 12.051 617.967 12.261C614.027 12.1851 618.924 13.5169 621.491 12.6821C621.693 12.9616 621.896 13.2412 622.098 13.5207C622.586 13.2424 623.075 12.9641 623.563 12.6858ZM338.763 12.261C339.251 12.4721 339.74 12.6833 340.228 12.8945C342.121 10.144 338.267 12.7531 335.524 10.5764C336.43 12.23 332.247 12.1609 332.008 12.2719C332.489 12.8286 332.97 13.3852 333.452 13.9418C335.222 13.3815 336.993 12.8212 338.763 12.261ZM352.608 14.1579C350.915 12.7862 359.234 12.7021 362.026 13.0043C362.704 13.0787 363.914 13.8318 364.404 13.7367C364.701 13.4584 364.998 13.1801 365.295 12.9018C365.647 13.8637 371.097 12.7823 373.244 12.2646C373.446 12.615 373.648 12.9653 373.851 13.3156C374.634 13.1765 375.416 13.0373 376.199 12.8981C376.101 13.2473 376.002 13.5964 375.904 13.9455C376.496 13.5256 377.088 13.1057 377.68 12.6858C380.005 12.2187 378.572 14.1219 380.318 13.528C382.26 12.8686 379.079 11.7352 379.138 10.9976C377.562 11.1878 373.979 11.6136 372.38 11.6348C371.462 11.6461 372.503 10.3246 368.545 11.8435C367.677 11.4895 366.81 11.1355 365.942 10.7815C364.35 11.3442 362.757 11.907 361.164 12.4697C360.867 11.9802 360.57 11.4907 360.273 11.0012C360.103 10.9246 356.42 12.0361 356.617 12.4038C355.125 11.4681 352.062 11.3013 348.836 11.2539C348.525 11.52 348.214 11.7861 347.904 12.0522C351.024 11.4775 348.897 12.3338 349.827 12.8432C350.364 13.137 352.007 13.714 352.608 14.1579ZM587.89 12.8908C593.13 11.6967 589.886 12.682 595.55 12.6821C595.154 12.0498 594.759 11.4175 594.363 10.7852C591.579 11.9405 586.997 11.1722 587.885 12.8908C587.887 12.8908 587.888 12.8908 587.89 12.8908ZM643.313 10.7889C640.316 11.1714 641.82 12.1547 638.021 12.4697C638.019 12.4697 638.017 12.4697 638.015 12.4697C639.98 12.5405 641.944 12.6113 643.909 12.6821C643.71 12.051 643.512 11.4199 643.313 10.7889ZM468.102 11.5542C465.228 11.2795 465.793 11.7714 463.186 10.7888C459.303 11.9808 462.59 11.8124 462.59 12.8945C463.477 12.5771 464.365 12.2597 465.252 11.9424C467.404 12.9543 465.363 13.4638 465.363 13.561C465.365 13.561 465.367 13.561 465.369 13.561C465.369 13.8858 465.299 13.9542 466.124 14.1506C466.783 13.2851 467.442 12.4197 468.102 11.5542ZM455.803 12.8908C456.788 12.1722 457.231 11.2496 454.641 10.7888C454.639 10.7888 454.637 10.7888 454.635 10.7888C454.427 12.3949 451.944 11.0986 450.811 11.2063C450.514 11.3809 450.217 11.5554 449.92 11.73C451.881 12.1169 453.842 12.5039 455.803 12.8908ZM412.468 14.3666C412.457 12.5924 414.631 12.4237 411.571 10.7888C410.977 10.8206 410.383 10.8523 409.789 10.8841C409.399 11.2734 409.009 11.6628 408.619 12.0522C401.083 8.8418 398.837 14.3084 411.571 12.2646C411.573 12.2634 411.575 12.2622 411.577 12.261C411.873 12.9628 412.171 13.6647 412.468 14.3666ZM425.739 14.2165C425.835 13.2851 425.93 12.3537 426.026 11.4224C427.69 13.6691 429.84 11.5254 433.103 13.1105C433.398 12.8274 433.694 12.5442 433.989 12.261C435.208 12.8842 447.187 13.0637 444.592 11.6311C443.459 11.0055 440.991 11.8552 440.779 11.8362C440.059 11.7659 439.12 10.9657 437.905 11.0122C437.203 11.0402 435.723 11.9807 434.289 11.979C431.085 11.9748 425.237 9.44971 421.024 11.8398C420.72 11.5591 420.417 11.2783 420.113 10.9976C416.987 11.1689 418.031 12.0585 415.122 10.9976C413.112 15.4214 426.816 10.7794 423.962 14.3666C423.964 14.3666 423.966 14.3666 423.968 14.3666C424.558 14.3166 425.148 14.2665 425.739 14.2165ZM511.821 12.8908C512.01 13.6852 515.636 12.4595 514.784 14.363C515.968 13.7001 517.151 13.0373 518.335 12.3745C518.326 12.1975 518.317 12.0205 518.308 11.8435C517.131 11.9827 515.955 12.1218 514.779 12.261C514.774 11.9802 514.77 11.6995 514.765 11.4187C513.012 12.4344 505.697 11.9919 505.919 10.9976C505.529 11.4175 505.138 11.8374 504.747 12.2573C501.247 11.1139 498.237 12.3296 494.425 11.2136C494.13 11.5615 493.834 11.9094 493.539 12.2573C493.347 11.9766 493.155 11.6958 492.962 11.415C491.574 11.3796 490.185 11.3442 488.797 11.3088C484.272 12.4393 493.064 13.9028 494.13 13.7368C494.271 13.7135 494.249 12.9867 495.134 12.8725C496.707 12.6722 505.506 13.3958 508.227 12.9165C508.25 13.3986 508.274 13.8808 508.297 14.363C509.472 13.8722 510.647 13.3815 511.821 12.8908ZM395.654 12.4697C395.455 11.979 395.256 11.4883 395.058 10.9976C391.63 11.4877 389.472 11.0593 390.35 12.6821C390.352 12.6821 390.354 12.6821 390.356 12.6821C392.122 12.6113 393.888 12.5405 395.654 12.4697ZM140.917 12.0522C141.007 13.0277 142.646 13.3923 144.763 12.6931C144.661 12.4099 144.559 12.1267 144.457 11.8435C143.354 12.6741 141.977 11.2263 138.572 11.4187C138.572 11.9094 138.572 12.4001 138.572 12.8908C139.353 12.6113 140.135 12.3317 140.917 12.0522ZM398.611 12.6821C399.656 13.2607 402.588 11.5053 400.659 11.4187C399.183 11.3532 398.051 12.3714 398.611 12.6821ZM655.103 11.7373C654.328 11.6348 653.554 11.5322 652.779 11.4297C652.375 11.8472 651.972 12.2646 651.568 12.6821C651.57 12.6821 651.572 12.6821 651.574 12.6821C652.75 12.3672 653.926 12.0522 655.103 11.7373ZM477.925 11.4736C475.298 11.5347 472.671 11.5957 470.043 11.6567C470.017 11.9289 469.991 12.2012 469.965 12.4734C472.597 11.48 473.655 12.5507 474.269 12.6162C474.266 12.6162 474.263 12.6162 474.261 12.6162C476.231 12.8317 478.108 12.9903 479.973 13.3156C479.29 12.7016 478.608 12.0876 477.925 11.4736ZM486.931 13.1911C486.488 11.2678 485.91 11.0438 481.874 12.3965C482.034 12.6333 482.194 12.8701 482.353 13.1069C484.445 12.9654 485.665 12.5213 485.297 13.5244C485.842 13.4133 486.386 13.3022 486.931 13.1911ZM445.789 12.5759C446.274 13.1882 450.118 12.5733 449.909 12.2646C449.826 12.142 444.845 11.3754 445.789 12.5759ZM111.734 12.477C112.619 12.6174 113.505 12.7577 114.391 12.8981C113.213 13.1069 112.034 13.3156 110.856 13.5243C111.149 13.1752 111.441 12.8261 111.734 12.477ZM102.01 15.2125C101.379 14.9674 103.432 13.2381 99.6569 12.7919C102.404 12.7553 105.151 12.7187 107.899 12.6821C106.61 12.9616 105.322 13.2411 104.034 13.5207C104.258 14.0175 104.483 14.5143 104.708 15.0111C103.809 15.0782 102.91 15.1454 102.01 15.2125ZM99.0611 13.9455C100.54 15.2598 92.7503 15.3585 92.0245 15.1979C91.8628 15.1597 91.0945 14.1633 90.8111 13.9491C91.9876 13.9479 93.1638 13.9467 94.3402 13.9455C93.9466 13.6317 93.5529 13.318 93.1593 13.0043C94.5361 12.8969 95.9129 12.7895 97.2897 12.6821C96.7011 12.997 96.1124 13.3119 95.5238 13.6269C96.7029 13.7331 97.8819 13.8393 99.0611 13.9455ZM130.316 13.6269C129.331 13.5939 128.346 13.5609 127.361 13.528C127.558 14.0187 127.755 14.5094 127.952 15.0001C128.541 15.0001 129.131 15.0001 129.721 15.0001C129.919 14.5424 130.118 14.0846 130.316 13.6269ZM110.247 14.2604C111.681 11.8977 115.589 17.0629 111.022 15.1503C110.561 14.9558 110.111 14.4887 110.247 14.2604ZM89.1048 14.9159C86.0423 16.6384 86.7334 12.8353 89.6248 13.9491C89.7702 14.0084 89.3346 14.7887 89.1048 14.9159ZM66.1427 14.9708C65.8947 14.958 65.4609 13.7266 63.093 14.8976C62.702 14.7572 62.3112 14.6168 61.9202 14.4764C62.8351 13.9043 70.661 13.5639 69.5797 14.784C68.3818 14.8031 67.3819 15.0089 66.1427 14.9708ZM73.7209 19.5263C74.8955 19.4922 76.07 19.458 77.2446 19.4238C76.8573 19.0381 76.47 18.6523 76.0827 18.2666C76.6604 18.1616 77.2382 18.0567 77.816 17.9517C78.8037 18.6169 79.7914 19.2822 80.779 19.9475C78.226 20.0537 75.6728 20.1599 73.1196 20.2661C73.32 20.0195 73.5205 19.7729 73.7209 19.5263ZM104.949 20.4785C102.689 19.9944 99.9202 20.5096 96.2496 20.4272C96.2479 20.426 96.246 20.4247 96.2443 20.4235C96.0611 20.4179 95.7366 19.888 95.1473 19.8669C94.6451 19.85 84.7323 20.4319 85.5053 19.5337C89.3408 18.7285 90.7735 19.9526 91.6941 17.9553C91.8809 18.3765 92.0678 18.7976 92.2547 19.2187C95.9428 19.9479 96.9952 18.4901 99.0664 17.9553C99.0585 18.2727 99.0501 18.5901 99.0421 18.9075C100.425 18.9392 101.808 18.9709 103.191 19.0027C102.996 18.7939 102.801 18.5852 102.606 18.3765C103.096 18.3765 103.585 18.3765 104.074 18.3765C105.266 19.3169 106.777 19.5361 104.949 20.4785ZM68.3934 19.0027C67.3077 21.41 56.7266 19.761 51.8936 20.2661C54.431 18.8165 58.362 19.8155 61.1294 19.8303C66.4792 19.8576 62.7813 18.9705 63.6889 18.5815C64.1373 18.3892 67.1719 19.9326 68.3934 19.0027ZM113.204 20.0573C110.537 19.8629 109.044 20.4171 106.737 19.5337C106.93 19.3579 107.123 19.1821 107.316 19.0063C108.106 19.1672 114.549 19.675 113.204 20.0573ZM44.811 19.6362C49.9627 20.5006 47.4215 18.321 50.1006 19.9548C48.3375 20.0585 46.5742 20.1623 44.811 20.2661C44.811 20.0561 44.811 19.8461 44.811 19.6362ZM404.507 21.7382C406.678 21.7933 409.103 22.2326 410.401 21.3244C408.926 21.184 407.451 21.0437 405.975 20.9033C405.486 21.1816 404.997 21.4599 404.507 21.7382ZM342.598 30.6112C343.094 30.8289 345.054 30.1864 345.26 30.1864C345.644 30.1864 345.539 30.5029 345.545 30.5856C348.057 30.5282 345.739 29.5466 347.598 29.3332C347.916 29.298 352.282 29.7832 354.057 29.7433C356.79 29.682 359.518 29.7456 360.539 29.7287C362.262 29.701 365.461 28.9647 368.293 28.9267C369.461 28.9123 369.868 29.5018 371.042 29.487C378.578 29.3876 393.412 28.5783 400.098 28.9523C401.75 29.0453 403.325 29.8173 404.199 29.7543C404.888 29.4723 405.576 29.1904 406.265 28.9084C408.384 31.4467 409.092 29.1891 411.376 28.9523C412.827 28.8027 413.505 29.5548 413.7 29.5529C414.992 29.5381 415.629 29.1801 416.644 29.1208C417.783 29.0553 419.419 29.3945 419.826 29.3332C420.076 29.2921 419.278 28.2925 423.697 28.3115C428.2 28.3312 432.646 28.4369 437.225 28.4836C435.698 25.4657 434.382 27.5312 432.513 27.6414C432.011 27.6709 432.329 27.1918 431.892 27.2129C430.659 27.27 428.298 27.7408 427.277 27.6267C426.175 27.5036 426.552 26.393 425.154 26.8028C425.083 26.8239 425.307 27.2825 424.978 27.3594C421.673 28.1181 420.592 27.3204 416.414 27.2971C413.646 27.2803 396.835 27.7354 396.258 27.4363C393.248 25.83 410.962 25.819 413.034 25.9458C413.759 25.9904 412.999 26.4968 413.659 26.594C413.939 26.6329 416.458 25.6672 418.946 25.587C421.956 25.4898 428.003 26.1485 430.871 26.1253C455.525 25.9245 479.837 26.5081 504.468 26.5208C504.993 26.5208 505.684 25.9422 507.396 25.9422C539.332 25.9528 572.431 26.4089 604.775 26.1363C611.826 26.0771 618.819 25.533 625.936 25.9642C626.819 25.5418 627.701 25.1195 628.584 24.6971C626.326 25.0329 622.188 24.0776 621.811 24.0636C621.675 24.0594 620.819 24.5356 619.438 24.5104C617.497 24.4765 616.645 24.0636 616.486 24.0636C615.992 24.0623 616.316 24.5015 615.844 24.4994C612.327 24.4804 609.606 24.605 606.378 24.6092C602.732 24.6133 600.884 23.7953 598.228 24.6935C597.928 24.3431 597.627 23.9928 597.326 23.6425C595.343 25.1576 583.529 24.9898 578.744 24.9095C577.234 24.884 577.499 24.2687 576.991 24.2687C576.668 24.2694 576.795 25.0751 572.845 24.9168C570.856 24.8365 570.335 24.2496 569.337 24.2687C568.796 24.2799 568.884 24.8619 568.105 24.8619C563.603 24.8619 559.927 24.6731 555.519 24.5653C554.28 24.5357 554.266 24.0499 553.989 24.0563C552.968 24.078 551.192 24.9006 548.596 24.8985C544.324 24.8943 535.809 24.8915 532.316 24.492C531.802 24.4329 531.377 23.8501 531 23.8585C530.428 23.8734 530.203 24.4815 530.103 24.4847C528.191 24.4953 529.341 23.9299 528.061 24.0673C527.371 24.1413 526.651 24.8348 525.046 24.9132C522.928 25.0167 523.345 24.1936 522.46 24.276C522.366 24.2889 522.338 24.8613 521.469 24.8802C518.17 24.9479 513.385 25.0801 510.264 25.078C509.367 25.078 508.7 24.6926 507.45 24.6861C504.93 24.6734 490.608 24.919 489.433 24.6971C489.309 24.6739 490.583 23.8295 488.553 23.8549C487.963 24.2064 487.374 24.558 486.784 24.9095C485.798 24.3468 484.813 23.7841 483.827 23.2213C483.862 25.1656 478.062 25.4659 478.12 23.4777C477.485 23.3971 476.851 23.3165 476.216 23.236C474.894 24.6096 474.014 24.1025 471.46 24.9095C471.062 24.4884 470.664 24.0672 470.266 23.6461C470.165 23.9269 470.065 24.2076 469.965 24.4884C468.602 22.9669 466.366 24.4946 466.095 24.503C465.051 24.5368 464.266 24.15 463.776 24.1625C461.947 24.2026 457.988 24.7355 455.851 24.4884C455.751 24.4757 455.85 23.8253 455.242 23.745C454.146 23.5999 454.039 24.5521 452.577 23.4337C452.282 23.7145 451.986 23.9952 451.691 24.276C451.378 24.1307 451.065 23.9855 450.751 23.8402C448.902 23.9147 447.053 23.9891 445.204 24.0636C446.886 22.9624 444.951 22.3474 443.122 23.214C442.503 23.5078 443.052 24.1781 442.845 24.2796C442.562 24.417 434.264 24.0757 433.715 23.6425C433.323 23.8536 432.93 24.0648 432.537 24.276C432.338 23.8536 432.14 23.4313 431.941 23.0089C431.725 23.1566 431.508 23.3043 431.291 23.452C429.132 22.7081 423.526 24.4144 422.51 24.2796C421.968 24.2078 422.456 22.4076 419.853 22.5915C419.763 23.0858 419.673 23.5802 419.583 24.0746C418.987 24.1454 418.391 24.2162 417.795 24.287C416.677 24.2429 415.049 23.3861 414.997 22.8002C414.648 23.1517 414.298 23.5033 413.949 23.8548C413.011 22.7094 408.007 23.1154 405.994 23.8402C405.406 23.4947 404.817 23.1493 404.229 22.8039C403.438 23.2238 402.647 23.6437 401.856 24.0636C400.024 24.19 401.959 23.4919 401.569 23.4337C400.743 23.3132 396.533 24.4925 396.81 23.0236C396.236 23.0199 395.662 23.0162 395.088 23.0126C394.792 23.4325 394.497 23.8524 394.202 24.2723C393.216 22.8246 391.511 23.3357 388.013 22.8075C387.72 23.1408 387.426 23.474 387.133 23.8072C386.051 23.3336 384.97 22.86 383.888 22.3864C383.666 22.9381 383.444 23.4899 383.222 24.0416C382.752 24.1209 382.281 24.2003 381.811 24.2796C380.855 23.0437 379.139 24.3793 378.265 23.8695C376.991 23.1255 377.977 22.239 380.343 22.0678C380.166 21.1677 373.117 21.581 371.492 21.6467C371.599 21.8224 371.707 21.9982 371.814 22.174C373.476 22.0348 375.138 21.8957 376.8 21.7565C378.193 24.0201 373.679 23.413 371.608 23.7047C371.419 23.7326 370.345 24.5902 368.258 24.5103C367.449 24.4786 364.296 23.2251 363.694 23.1554C358.833 22.583 362.407 24.3741 357.652 22.8038C358.643 24.0065 355.91 23.0071 353.066 23.2396C352.582 23.2793 348.476 24.2543 348.199 24.2796C346.47 24.436 348.352 23.373 345.851 23.6498C345.55 23.9293 345.25 24.2088 344.949 24.4884C344.367 24.4884 343.784 24.4884 343.202 24.4884C339.668 21.9972 338.846 23.8317 337.59 24.0672C337.083 24.1623 337.736 23.5124 336.42 23.6498C335.925 23.7009 335.375 24.2416 334.042 24.2796C329.871 24.3978 328.455 22.0831 324.619 24.492C324.031 24.1429 323.442 23.7938 322.854 23.4447C322.456 23.8634 322.059 24.2821 321.662 24.7008C318.624 23.4858 319.721 24.7302 318.623 24.7154C315.726 24.6773 309.795 24.4392 309.276 23.4374C306.775 25.7386 303.784 23.1425 302.798 23.2323C302.212 23.5118 301.626 23.7914 301.04 24.0709C300.351 23.7901 299.662 23.5094 298.973 23.2286C299.308 25.4884 295.741 23.2662 295.398 23.2323C295.003 23.1985 289.516 23.8673 287.473 23.8548C285.434 23.8422 281.879 23.2298 281.566 23.2286C281.206 23.2286 277.734 23.8429 275.02 23.8365C272.645 23.8299 258.573 22.9573 259.46 23.9647C260.38 24.2437 261.691 24.4855 262.824 24.6165C266.341 25.0181 286.984 25.5325 292.259 25.6932C302.839 26.0123 313.873 25.9531 324.5 26.1729C325.125 26.1856 325.221 26.7713 325.757 26.7844C326.571 26.8013 328.638 26.2151 329.44 26.2278C332.438 26.2785 336.085 26.3741 337.69 26.3889C341.278 26.4186 343.738 26.7713 346.452 26.8284C347.302 26.8453 351.598 26.1192 354.542 26.4256C355.076 26.5904 355.609 26.7551 356.143 26.9199C354.626 27.1123 350.647 27.6099 348.8 27.667C346.051 27.7493 344.618 27.2742 343.603 27.2825C342.753 27.2888 338.411 27.8299 336.434 27.8428C335.82 27.847 335.694 27.2327 335.169 27.2349C332.319 27.2497 328.565 27.2661 326.093 27.8684C327.102 27.6718 320.801 27.295 320.47 27.2971C319.904 27.2973 319.289 27.872 318.133 27.872C315.909 27.8717 316.191 26.6696 313.412 27.872C312.724 27.5217 312.036 27.1714 311.348 26.8211C311.306 28.4226 302.613 26.2441 300.141 28.1906C300.076 28.4105 311.372 29.0342 312.304 29.0659C317.898 29.2581 326.176 28.8654 331.605 29.1464C333.238 29.2309 338.375 30.2046 338.763 30.1864C339.388 30.159 338.823 29.602 339.093 29.5822C344.621 29.1681 341.863 30.2874 342.598 30.6112ZM99.0664 21.5331C100.746 21.599 102.425 21.6649 104.104 21.7309C103.982 22.0824 103.86 22.434 103.738 22.7855C102.969 22.6488 102.2 22.5121 101.431 22.3754C100.84 22.5853 100.248 22.7953 99.6569 23.0052C99.46 22.5145 99.2633 22.0238 99.0664 21.5331ZM94.9279 23.0052C93.4718 23.1822 93.4006 22.4409 93.0645 22.4047C92.0616 22.2948 91.194 22.5945 90.2207 22.5841C91.3419 20.8231 93.7301 21.6301 94.9279 23.0052ZM125.005 23.6388C124.677 23.5545 122.485 21.6587 119.992 23.4227C118.127 22.8624 116.262 22.3021 114.396 21.7418C117.565 22.5978 121.95 21.708 123.502 21.7418C124.091 21.7547 124.204 22.3366 124.675 22.3461C127.389 22.3926 130.028 21.074 130.306 23.0016C127.738 22.4415 125.424 23.7423 125.005 23.6388ZM108.624 22.954C108.19 22.5511 107.756 22.1483 107.322 21.7455C108.891 21.7455 110.46 21.7455 112.029 21.7455C111.605 22.1532 111.18 22.5609 110.756 22.9686C110.045 22.9637 109.335 22.9588 108.624 22.954ZM229.337 24.2869C228.369 24.2821 227.401 24.2772 226.433 24.2723C226.486 24.5659 227.594 24.5647 228.001 24.763C228 24.763 227.998 24.763 227.996 24.763C228.45 24.987 228.256 25.3651 229.082 25.532C229.167 25.117 229.252 24.702 229.337 24.2869ZM629.757 25.9568C631.379 25.978 646.36 25.9801 645.084 24.9095C644.441 24.3748 639.317 24.8411 637.807 24.8326C635.77 24.8218 630.271 23.6639 629.757 25.9568ZM656.289 26.1656C656.549 25.0987 647.186 24.929 646.271 25.1146C646.465 25.2667 646.764 25.6054 647.023 25.6822C648.286 26.0499 654.271 25.874 656.289 26.1656ZM283.535 27.3667C282.78 26.8272 282.026 26.2876 281.271 25.7481C281.47 26.45 281.668 27.1519 281.867 27.8537C282.423 27.6914 282.979 27.529 283.535 27.3667ZM356.75 26.594C369.323 26.6282 381.897 26.6624 394.47 26.6966C393.364 26.9883 392.258 27.28 391.152 27.5718C380.318 27.4682 368.764 27.1728 358.302 27.623C357.784 27.28 357.267 26.937 356.75 26.594ZM128.548 26.7991C131.769 26.8095 134.46 26.294 137.965 27.114C134.625 27.9087 132.971 26.6791 129.726 27.8501C129.724 27.8501 129.722 27.8501 129.721 27.8501C129.33 27.4997 128.939 27.1494 128.548 26.7991ZM200.473 27.0115C199.493 27.5022 198.514 27.9929 197.534 28.4836C198.712 28.4836 199.891 28.4836 201.069 28.4836C200.87 27.9929 200.672 27.5022 200.473 27.0115ZM466.425 29.3222C469.795 28.2512 478.415 30.1896 481.153 28.9011C481.33 28.8165 479.703 28.2728 482.334 27.2202C480.346 27.4357 478.943 27.6557 478.794 28.4836C478.204 28.2029 477.614 27.9221 477.023 27.6414C476.044 27.8538 475.064 28.0661 474.084 28.2785C474.191 27.4542 474.113 27.4982 472.608 28.0625C471.922 27.8538 471.236 27.645 470.55 27.4363C470.259 27.7854 469.969 28.1345 469.678 28.4836C469.084 27.9953 468.49 27.5071 467.896 27.0188C465.58 27.5485 466.99 28.4946 466.425 29.3222ZM454.63 29.1208C455.178 29.3023 470.801 28.7103 463.7 27.0664C461.855 27.1189 460.01 27.1714 458.164 27.2239C459.693 29.9462 454.664 27.5117 454.251 27.4546C452.274 27.1887 449.756 27.836 448.322 27.8025C447.089 27.7729 446.356 27.2845 445.489 27.2971C442.534 27.3394 437.868 27.3572 437.225 28.4836C439.522 28.507 441.855 28.5192 444.243 28.4909C446.769 28.4613 448.989 29.5245 453.733 28.0661C454.906 28.2229 454.488 29.0743 454.63 29.1208ZM194.585 28.3701C194.703 27.2386 188.74 27.5092 188.702 27.9563C188.69 28.2183 190.632 28.2121 190.91 28.3115C190.911 28.3115 190.913 28.3115 190.915 28.3115C191.03 28.3549 190.444 28.788 191.356 28.9084C192.433 28.7289 193.509 28.5495 194.585 28.3701ZM606.457 28.4873C607.263 29.1222 625.675 28.8939 626.217 28.5898C626.365 28.5054 626.159 28.2269 626.217 28.0662C621.922 28.962 615.815 27.9017 611.738 27.8318C610.601 27.8129 610.941 28.2627 610.877 28.2712C610.874 28.2712 610.871 28.2712 610.869 28.2712C610.224 28.2723 607.312 27.1734 606.457 28.4873ZM487.05 28.3847C486.267 28.2077 485.484 28.0307 484.702 27.8538C484.503 28.2041 484.304 28.5544 484.106 28.9047C484.107 28.9047 484.109 28.9047 484.111 28.9047C485.091 28.7314 486.07 28.5581 487.05 28.3847ZM514.169 29.5383C513.979 29.2917 513.788 29.0451 513.598 28.7985C511.627 28.7644 509.656 28.7302 507.685 28.696C507.884 28.5569 508.083 28.4177 508.281 28.2785C505.301 27.9066 504.067 28.7731 502.48 28.6484C502.482 28.6484 502.483 28.6484 502.485 28.6484C502.314 28.6339 502.108 28.1201 501.472 28.1028C500.015 28.0626 495.84 27.8714 495.335 28.3884C494.267 29.4914 502.671 28.9679 504.237 29.0183C504.946 29.0415 505.797 29.4911 506.228 29.5017C506.7 29.5115 507.343 28.9044 508.492 28.9231C508.829 28.9294 512.558 29.6437 514.169 29.5383ZM548.956 28.8022C548.349 28.2463 547.08 28.7832 546.614 28.6924C546.502 28.6709 547.368 28.2056 546.318 28.0662C546.021 28.3835 545.724 28.7009 545.427 29.0183C546.604 28.9463 547.78 28.8742 548.956 28.8022ZM184.566 28.9047C184.738 29.024 187.939 28.9804 188.093 28.9047C190.01 27.8902 183.38 28.0001 184.566 28.9047ZM103.782 30.0656C105.254 31.5401 87.7835 30.0905 86.0903 30.1681C86.175 29.2414 90.331 30.1731 88.1542 28.901C90.2312 29.6006 95.9735 29.2291 97.3249 29.432C98.145 29.5547 98.352 30.3551 98.476 30.3805C98.9623 30.4707 103.263 29.5458 103.782 30.0656ZM71.6544 29.5382C73.3145 29.714 74.9749 29.8898 76.6352 30.0656C74.676 30.1705 72.717 30.2755 70.7579 30.3805C71.0567 30.0997 71.3555 29.819 71.6544 29.5382ZM69.5662 29.9594C69.6193 30.8576 63.9837 30.1734 62.5026 30.3805C64.1724 28.8525 66.958 30.2931 69.5662 29.9594ZM163.332 31.2228C165.929 31.8167 167.044 29.0786 163.887 30.2706C163.791 30.31 163.224 31.1913 163.332 31.2228ZM467.227 33.1746C467.669 33.1915 473.175 34.0793 473.494 33.6397C474.502 32.2373 470.889 32.7997 469.678 32.2701C467.725 31.412 470.597 30.705 465.829 31.2228C466.024 30.942 466.219 30.6613 466.414 30.3805C463.624 30.2875 464.537 32.2324 464.036 32.4825C463.883 32.5585 462.138 32.395 461.823 32.5191C457.891 34.086 466.816 33.1616 467.227 33.1746ZM227.606 31.4315C232.775 32.2558 230.551 31.0463 235.856 31.1202C236.033 30.5031 228.279 30.8904 227.606 31.4315ZM416.893 32.065C422.239 31.8221 426.635 32.6292 431.622 31.545C431.297 29.8753 415.506 31.6339 416.893 32.065ZM668.079 33.7569C647.278 30.7832 623.286 31.7622 601.14 31.8087C598.726 31.8129 598.495 31.1509 597.622 31.2228C597.05 31.2693 597.15 31.8025 596.389 31.8051C568.908 31.8917 542.595 32.5893 516.271 32.2701C514.613 32.249 506.546 31.1039 504.823 32.8304C503.519 34.1402 509.314 33.119 510.28 33.1307C511.006 33.1391 511.037 33.7547 511.52 33.7569C512.034 33.759 511.61 33.3384 512.206 33.3321C514.731 33.3025 517.487 33.4669 519.77 33.431C542.164 33.0865 563.951 33.185 586.227 33.2442C588.924 33.2506 588.369 33.7438 588.505 33.7459C588.507 33.7447 588.509 33.7435 588.51 33.7422C602.968 33.7888 619.479 32.6824 634.792 33.1051C645.575 33.4444 656.359 33.7838 667.142 34.1231C667.454 34.001 667.766 33.879 668.079 33.7569ZM455.811 31.4352C457.156 33.2951 457.457 31.4198 462.284 32.1786C462.677 31.8612 463.069 31.5438 463.462 31.2264C460.909 31.296 458.356 31.3656 455.803 31.4352C455.805 31.4352 455.808 31.4352 455.811 31.4352ZM487.692 32.1127C488.507 34.6246 499.301 32.8493 504.162 33.3284C505.053 32.0669 497.987 32.6336 496.321 32.5008C495.489 32.4353 491.033 31.1378 487.646 31.8563C487.661 31.9418 487.676 32.0272 487.692 32.1127ZM122.061 33.7569C122.846 33.6836 123.632 33.6104 124.417 33.5371C122.452 33.2588 120.487 32.9805 118.521 32.7022C121.657 32.8816 124.792 33.0611 127.927 33.2405C127.343 33.7617 126.759 34.283 126.175 34.8042C124.804 34.4551 123.433 34.106 122.061 33.7569ZM132.234 33.4895C126.743 33.6858 132.475 32.2905 133.845 32.9109C134.666 33.2829 132.794 33.4684 132.234 33.4895ZM146.516 34.3867C143.955 35.3018 138.78 35.3648 140.619 33.5371C143.387 34.3931 145.171 33.6819 149.183 34.1743C148.598 34.5247 148.011 34.875 147.426 35.2253C147.423 35.2253 147.42 35.2253 147.417 35.2253C147.117 34.9458 146.816 34.6663 146.516 34.3867ZM129.726 34.5955C126.13 33.5455 136.541 33.9045 133.269 34.5955C133.115 34.6272 129.868 34.6356 129.726 34.5955ZM645.084 35.6465C645.517 35.0493 642.751 35.0604 641.831 35.0203C637.843 34.8428 632.727 35.1027 628.579 35.0203C628.891 35.2168 629.204 35.4133 629.516 35.6099C634.706 35.6221 639.895 35.6343 645.084 35.6465ZM615.603 35.0166C612.753 35.0166 609.903 35.0166 607.052 35.0166C606.787 35.0166 605.541 35.5291 606.467 35.6538C609.513 35.4414 612.558 35.229 615.603 35.0166ZM437.819 35.0166C440.004 35.351 433.711 37.0653 433.994 35.229C435.269 35.1582 436.544 35.0874 437.819 35.0166ZM417.484 35.749C418.854 35.5745 420.224 35.3999 421.595 35.2253C421.597 35.4365 421.599 35.6477 421.6 35.8589C420.228 35.8222 418.856 35.7856 417.484 35.749ZM656.289 36.0676C654.837 35.345 651.374 35.4562 649.215 35.4414C650.702 36.0623 654.248 35.7571 656.289 36.0676ZM470.561 35.7563C470.384 35.2639 479.077 35.3878 476.067 36.2544C474.232 36.0884 472.396 35.9223 470.561 35.7563ZM488.217 36.4851C486.353 36.5928 484.908 36.4236 485.292 35.6501C486.281 35.6831 487.269 35.7161 488.258 35.749C488.244 35.9944 488.231 36.2397 488.217 36.4851ZM156.263 35.8588C159.405 35.7893 162.547 35.7197 165.689 35.6501C165.572 35.8613 165.456 36.0725 165.339 36.2836C162.31 36.352 159.281 36.4204 156.252 36.4887C156.256 36.2788 156.26 36.0688 156.263 35.8588ZM658.066 37.9645C660.223 37.8266 662.381 37.6887 664.539 37.5507C662.379 37.4091 660.22 37.2675 658.06 37.1259C658.06 37.4067 658.06 37.6874 658.06 37.9682C658.062 37.967 658.064 37.9658 658.066 37.9645ZM113.223 38.5944C122.821 39.5792 110.575 40.6202 108.042 39.1729C108.039 39.1742 108.037 39.1754 108.034 39.1766C107.812 39.0487 108.281 38.4301 107.912 38.1805C108.889 38.4601 109.866 38.7396 110.843 39.0191C111.734 38.6713 112.625 38.3234 113.516 37.9755C113.809 38.1122 114.103 38.2489 114.396 38.3856C114.005 38.4552 113.614 38.5248 113.223 38.5944ZM74.4874 39.1437C65.7846 39.0294 74.6893 37.4826 78.997 38.7042C78.9658 38.9869 75.2892 39.1542 74.4874 39.1437ZM97.2951 38.8104C98.6666 38.67 100.038 38.5297 101.409 38.3893C101.584 38.5663 101.759 38.7433 101.935 38.9203C100.882 39.096 99.8294 39.2718 98.7766 39.4476C98.2828 39.2352 97.7888 39.0228 97.2951 38.8104ZM142.396 41.5423C144.603 41.7367 147.418 39.7686 140.332 40.2862C140.336 40.4974 140.339 40.7085 140.343 40.9197C140.625 40.886 141.454 40.6879 141.5 40.7037C141.629 40.7565 141.476 41.4617 142.396 41.5423ZM58.3722 44.7062C58.1245 44.7866 57.9894 47.0141 55.4119 44.7099C54.6328 44.8503 53.8536 44.9906 53.0744 45.131C52.8733 44.6403 52.6718 44.1496 52.4705 43.6589C55.4859 44.0393 55.8056 43.0465 56.024 43.0254C57.0264 42.9325 56.2846 43.4431 56.9313 43.4502C58.6011 43.4671 62.3954 43.1242 60.6744 44.5817C60.0549 45.1038 58.62 44.6259 58.3722 44.7062ZM64.2684 45.9733C63.9028 45.7873 65.0808 45.1357 64.8048 44.9516C64.5628 44.791 60.9284 44.1262 61.9121 43.0254C62.5089 43.0718 63.1056 43.1181 63.7024 43.1645C63.9046 43.466 64.1069 43.7675 64.3091 44.069C64.8869 43.7907 65.4647 43.5124 66.0425 43.2341C67.0161 43.9781 69.0882 44.9419 66.6275 45.5485C67.5321 45.485 68.4367 45.4215 69.3414 45.3581C69.8098 45.0016 70.2786 44.6452 70.747 44.2888C70.5015 44.832 70.2559 45.3751 70.0103 45.9183C68.0965 45.9367 66.1824 45.955 64.2684 45.9733ZM36.2254 45.7645C36.3354 45.4838 36.4457 45.203 36.5557 44.9223C33.2336 45.4442 28.0596 45.6427 30.998 43.8823C35.4986 43.7358 39.9991 43.5893 44.4996 43.4428C44.7984 43.654 45.0973 43.8652 45.396 44.0764C42.0387 43.2627 43.0761 46.7249 40.1553 45.7316C39.6628 45.5632 41.0918 44.3524 37.9966 45.1274C38.1068 45.4093 38.2169 45.6913 38.3271 45.9733C37.6265 45.9037 36.9258 45.8341 36.2254 45.7645ZM7.66487 45.3434C13.3534 45.7492 7.08748 46.7738 6.0371 45.922C6.03896 45.922 6.04055 45.922 6.04256 45.922C3.16377 43.5912 9.35387 44.7174 9.73136 44.7026C10.2333 44.6819 11.4024 43.0133 14.1326 45.4459C11.9767 45.4118 9.82078 45.3776 7.66487 45.3434ZM26.2367 45.7609C25.7585 45.8158 26.0233 45.3921 25.8168 45.3983C25.815 45.3983 25.8132 45.3983 25.8114 45.3983C22.7665 45.4892 15.524 45.8686 14.7393 44.5011C16.9932 44.387 27.0784 44.0915 27.6884 45.0212C27.2043 45.2677 26.7205 45.5143 26.2367 45.7609ZM47.663 44.7428C49.5324 45.6282 45.324 45.7461 44.2207 45.3361C44.0121 45.2473 45.7265 43.8257 47.663 44.7428ZM191.056 47.0279C195.169 46.4953 189.765 45.9638 191.635 45.131C190.85 45.2018 190.064 45.2726 189.279 45.3434C189.871 45.9049 190.463 46.4664 191.056 47.0279ZM378.572 48.7088C379.53 48.8072 379.076 48.2989 379.159 48.2913C379.789 48.3055 380.383 48.7197 380.625 48.6759C385.093 47.8398 382.121 47.4129 382.076 47.3136C381.982 46.8107 383.156 46.2222 381.529 45.6474C380.541 45.8256 379.554 46.0038 378.566 46.182C378.076 45.9025 377.586 45.623 377.095 45.3434C375.133 45.9432 377.701 46.1077 377.992 46.9034C378.104 47.2163 376.258 47.5907 378.572 48.7088ZM198.425 48.7125C199.092 47.829 200.727 46.7145 199.121 45.8268C199.12 45.8268 199.118 45.8268 199.116 45.8268C198.819 45.6644 197.61 45.5751 197.239 45.3471C194.591 46.5241 195.606 47.7404 198.425 48.7125ZM360.856 50.2908C359.263 50.0845 357.671 49.8782 356.078 49.6719C356.105 49.1421 356.132 48.6124 356.159 48.0826C357.011 48.2254 357.864 48.3682 358.716 48.5111C359.015 48.2694 359.314 48.0277 359.612 47.786C358.554 47.1818 357.496 46.5775 356.438 45.9733C355.163 46.1845 353.889 46.3957 352.614 46.6068C353.2 46.8864 353.786 47.1659 354.372 47.4454C351.256 47.754 351.934 46.4658 349.356 45.9733C348.473 46.464 347.59 46.9547 346.707 47.4454C345.428 46.9523 344.15 46.4591 342.872 45.966C340.724 46.1964 340.535 46.5719 341.981 47.1342C340.913 47.7766 339.743 46.7661 338.457 47.028C338.351 47.0491 338.551 47.6542 338.457 47.6615C331.807 48.0694 332.16 46.4804 331.098 46.4127C330.349 46.3663 327.356 47.4387 327.309 47.8043C327.251 48.297 333.475 50.24 323.728 50.2908C328.767 51.6347 334.496 50.2667 330.792 48.295C332.387 48.4934 339.42 48.0015 339.868 48.0606C340.522 48.1499 340.292 48.898 341.111 48.9175C341.595 48.9281 342.877 47.2182 346.707 48.7125C347.196 48.4317 347.685 48.151 348.175 47.8702C348.633 48.1009 349.092 48.3316 349.551 48.5623C348.606 49.3851 347.662 50.2078 346.718 51.0305C350.458 50.1366 353.562 51.8159 355.84 50.4007C357.809 50.5654 358.766 50.7282 357.92 51.4516C358.511 51.4516 359.102 51.4516 359.694 51.4516C360.081 51.0647 360.468 50.6777 360.856 50.2908ZM210.51 47.4491C212.468 48.2705 213.171 46.4984 212.867 46.3981C211.15 45.8466 209.492 47.0217 210.51 47.4491ZM375.018 47.7677C372.859 47.3112 370.699 46.8546 368.539 46.3981C368.539 46.9584 368.539 47.5187 368.539 48.0789C370.699 47.9752 372.859 47.8714 375.018 47.7677ZM190.454 48.2877C190.256 47.8678 190.057 47.4478 189.859 47.0279C187.493 48.5617 185.145 46.3611 183.976 46.8155C183.722 46.9148 184.234 47.6563 184.718 47.8153C185.019 47.9146 190.036 48.4293 190.454 48.2877ZM91.9839 48.0862C92.865 47.8043 93.7462 47.5223 94.6273 47.2403C94.5785 47.7127 94.5299 48.1851 94.4811 48.6575C94.0458 48.7454 93.6108 48.8333 93.1756 48.9212C92.7785 48.6429 92.3811 48.3646 91.9839 48.0862ZM102.01 47.3355C103.582 47.3734 105.154 47.4112 106.726 47.4491C100.731 47.8823 105.651 48.0938 102.01 48.7088C102.01 48.251 102.01 47.7933 102.01 47.3355ZM117.92 48.2913C117.727 48.5733 117.534 48.8553 117.34 49.1372C115.769 49.1372 114.197 49.1372 112.625 49.1372C113.619 50.1162 114.613 51.0952 115.607 52.0742C116.183 52.0766 116.759 52.079 117.335 52.0815C117.53 50.8181 117.725 49.5547 117.92 48.2913ZM421.029 50.8145C421.979 50.8314 425.285 49.9759 425.143 49.6609C423.77 49.274 422.397 48.887 421.024 48.5001C421.017 49.0616 421.011 49.6231 421.005 50.1846C420.81 49.9051 420.616 49.6255 420.422 49.346C419.641 49.556 418.86 49.7659 418.079 49.9759C417.686 49.4852 417.292 48.9945 416.899 48.5037C416.503 49.064 416.108 49.6243 415.712 50.1846C419.483 51.1779 419.353 50.1851 420.138 50.1956C420.536 50.2003 420.788 50.548 420.929 50.7229C420.962 50.7534 420.996 50.7839 421.029 50.8145ZM373.526 51.3418C378.028 51.4813 380.601 50.003 383.858 51.2393C381.769 48.6058 368.28 51.3259 363.523 49.1299C363.03 49.5523 362.536 49.9746 362.042 50.397C364.632 50.0209 366.426 50.8908 367.689 51.0159C368.692 51.1152 368.587 50.6726 368.664 50.679C368.668 50.679 368.671 50.679 368.675 50.679C371.023 50.8607 371.75 51.2868 373.526 51.3418ZM187.109 50.353C188.319 51.0203 190.436 50.9536 190.46 49.9795C189.282 49.6975 188.104 49.4156 186.925 49.1336C187.167 49.383 186.903 50.2389 187.109 50.353ZM119.748 51.0122C120.692 51.3292 122.923 51.0514 121.961 50.2102C121.788 50.0609 119.566 50.6522 120.869 49.1336C118.705 49.1571 119.211 50.83 119.748 51.0122ZM296.59 49.346C295.795 49.3741 295.001 49.4021 294.206 49.4302C294.021 49.8233 293.836 50.2163 293.651 50.6094C294.631 50.1883 295.61 49.7671 296.59 49.346ZM176.899 51.0268C175.843 49.1032 174.038 50.9752 172.056 49.3936C171.324 49.3814 170.592 49.3692 169.86 49.357C169.858 49.357 169.856 49.357 169.854 49.357C169.834 49.8819 169.814 50.4067 169.795 50.9316C172.163 50.9634 174.531 50.9951 176.899 51.0268ZM346.127 50.2945C345.638 50.0503 345.149 49.8062 344.659 49.5621C343.788 49.8465 342.917 50.1309 342.046 50.4153C342.517 50.6192 342.988 50.823 343.459 51.0269C344.349 50.7827 345.238 50.5386 346.127 50.2945ZM164.028 51.1916C166.589 51.4326 167.553 49.7604 164.277 49.7561C162.897 49.7561 161.345 50.9399 164.028 51.1916ZM469.954 50.1919C469.077 50.0491 468.199 49.9063 467.322 49.7635C467.023 50.115 466.724 50.4666 466.425 50.8181C467.601 50.6094 468.778 50.4007 469.954 50.1919ZM107.603 50.8218C107.706 50.4702 107.809 50.1187 107.912 49.7671C108.695 49.8379 109.478 49.9087 110.26 49.9795C110.064 50.3286 109.867 50.6777 109.67 51.0268C108.981 50.9585 108.292 50.8901 107.603 50.8218ZM464.05 49.9759C463.348 49.9087 462.647 49.8416 461.945 49.7745C461.474 49.9454 461.003 50.1162 460.531 50.2871C461.188 50.4568 461.844 50.6265 462.5 50.7962C463.017 50.5227 463.533 50.2493 464.05 49.9759ZM139.753 51.0305C140.738 51.4532 144.674 50.1362 141.128 49.8001C138.869 49.5867 139.605 50.9662 139.753 51.0305ZM134.441 51.4516C138.194 52.2569 135.38 48.1698 130.901 50.8181C135.41 50.455 134.221 51.403 134.441 51.4516ZM101.439 53.5609C101.345 53.5588 101.267 52.9711 100.513 52.9494C97.7983 52.8733 94.2151 52.6411 92.2737 52.6052C87.6064 52.5185 73.3102 53.5809 71.6381 51.8801C71.29 51.5229 72.0912 50.4556 71.9496 50.4006C71.534 50.2473 69.1429 50.7652 69.5851 49.9795C71.9316 49.9856 74.2778 49.9917 76.6243 49.9978C76.0483 50.552 75.4723 51.1062 74.8964 51.6604C80.7429 51.3645 78.8076 51.3987 80.4893 50.1919C81.4788 50.6594 82.4681 51.1269 83.4577 51.5944C85.6118 51.1245 87.7659 50.6545 89.92 50.1846C89.4316 50.5349 88.9432 50.8852 88.4548 51.2356C91.7001 51.8844 90.7984 51.4589 92.5744 50.6094C92.5778 50.9597 92.5817 51.31 92.5851 51.6604C95.7184 50.8065 96.329 51.8564 97.0134 51.8691C98.4176 51.8897 100.208 47.7447 105.564 51.8691C107.822 49.8855 107.771 53.9209 109.098 51.8691C112.921 54.1028 105.651 53.2943 102.211 53.2204C102.209 53.2204 102.207 53.2204 102.206 53.2204C101.946 53.214 102.358 53.5902 101.439 53.5609ZM121.075 51.5066C118.761 53.3274 127.904 53.4978 124.878 50.8694C124.427 50.7839 123.977 50.6985 123.526 50.613C122.707 50.9109 121.889 51.2087 121.07 51.5066C121.072 51.5066 121.073 51.5066 121.075 51.5066ZM206.976 52.715C215.444 51.9668 210.629 50.9194 207.761 51.9423C207.189 52.1452 206.876 52.4234 206.976 52.715ZM379.958 52.7407C380.082 52.5222 380.206 52.3037 380.329 52.0852C377.49 52.2897 371.999 51.4468 372.074 52.9201C374.702 52.8603 377.33 52.8005 379.958 52.7407ZM357.494 53.7038C358.104 53.7926 360.596 54.0024 360.295 53.4511C359.215 53.0605 358.136 52.6699 357.056 52.2793C356.553 52.5234 356.05 52.7675 355.547 53.0117C356.249 53.0947 357.329 53.6805 357.494 53.7038Z" fill="#B92E2D"/>
</svg>
