<svg width="43" height="40" viewBox="0 0 43 40" fill="none" xmlns="http://www.w3.org/2000/svg">
<path d="M38.013 5.10669C38.0962 5.74727 38.2331 6.38627 38.2513 7.02882C38.2886 8.33735 37.94 9.57222 37.3696 10.7413C37.2191 11.05 37.2094 11.3056 37.3494 11.6297C39.115 15.7146 40.8694 19.8043 42.6157 23.8976C43.2769 25.4476 43.0899 26.8993 42.0157 28.2085C41.5901 28.7273 41.0388 29.0815 40.4204 29.3476C35.395 31.5096 30.3731 33.6802 25.3503 35.8481C22.4505 37.0997 19.5513 38.3519 16.6509 39.6024C14.3588 40.5906 12.1213 39.6938 11.1332 37.3905C9.42549 33.4103 7.71057 29.4333 6.02431 25.444C5.81562 24.9506 5.54174 24.6808 5.02736 24.5145C3.6886 24.0821 2.50887 23.3622 1.57003 22.2906C0.150182 20.6702 -0.260731 18.7781 0.152736 16.6972C0.603701 14.428 1.8225 12.5665 3.36269 10.9042C5.43317 8.66946 7.92849 7.03256 10.7026 5.81818C13.6564 4.52501 16.6213 3.25823 19.5823 1.982C22.2 0.853898 24.9177 0.133544 27.7743 0.0175234C29.8764 -0.0677688 31.9408 0.144376 33.9068 0.962236C35.3426 1.55928 36.5445 2.45061 37.3797 3.79283C37.4136 3.84759 37.4674 3.88975 37.5122 3.93781C37.679 4.32763 37.8461 4.71706 38.013 5.10669ZM23.3082 34.9982C25.6978 33.9668 28.0873 32.9356 30.4766 31.9042C32.1245 31.1927 32.6185 29.9531 31.9113 28.3032C30.1114 24.1046 28.3168 19.9036 26.5029 15.7111C26.3034 15.25 26.3246 14.8694 26.5583 14.4349C26.8076 13.971 27.0147 13.4781 27.1861 12.9794C28.111 10.2908 27.0931 7.81378 24.561 6.55351C22.7483 5.65114 20.8048 5.40215 18.8211 5.51345C13.5187 5.81108 8.91621 7.79684 5.05561 11.4557C3.55115 12.8817 2.3467 14.5359 1.79797 16.5817C1.37134 18.1723 1.53193 19.6824 2.57247 21.0207C3.48991 22.2004 4.7521 22.8374 6.15466 23.2166C6.65844 23.3527 6.96256 23.6094 7.17067 24.1001C8.96 28.3176 10.7715 32.5257 12.5777 36.7359C13.2421 38.2846 14.5175 38.7912 16.0667 38.1234C18.4811 37.0824 20.8946 36.04 23.3082 34.9982ZM19.3344 3.78456C19.3461 3.82179 19.3579 3.85882 19.3697 3.89605C19.7775 3.91122 20.186 3.91752 20.5932 3.94313C22.339 4.05304 24.0189 4.42829 25.5603 5.28535C27.6695 6.45797 28.9364 8.20734 29.0793 10.6723C29.1623 12.1064 28.8056 13.4572 28.1801 14.7372C28.0405 15.0228 28.0331 15.2549 28.1617 15.5525C29.9204 19.6249 31.6634 23.7039 33.4144 27.7796C33.6903 28.4218 33.8524 29.0831 33.8163 29.7847C33.8049 30.0039 33.7692 30.2222 33.7382 30.497C33.9068 30.4241 34.0246 30.3733 34.1426 30.3225C35.9863 29.5267 37.8302 28.7312 39.6737 27.9351C41.2929 27.236 41.7882 25.985 41.0903 24.3569C39.2799 20.1339 37.4725 15.9094 35.6528 11.6903C35.4796 11.2887 35.4914 10.9462 35.6903 10.5591C35.9435 10.0664 36.1732 9.55587 36.3548 9.03269C37.2913 6.33446 36.3048 3.91949 33.76 2.64483C32.2883 1.90774 30.7057 1.65304 29.0832 1.60321C26.7371 1.53111 24.4583 1.93295 22.2406 2.67596C21.2584 3.00471 20.3022 3.41247 19.3344 3.78456Z" fill="white"/>
<path d="M15.9934 29.3125C15.6795 29.2375 15.3652 29.2475 15.1885 29.0961C15.01 28.943 14.9299 28.6373 14.8807 28.3838C14.8518 28.2356 14.9564 28.055 15.0195 27.8963C16.5017 24.1576 17.9864 20.4199 19.471 16.6822C19.7378 16.0107 20.1297 15.7544 20.6085 15.9355C21.0993 16.121 21.2163 16.5928 20.9417 17.285C19.4576 21.0228 17.976 24.7619 16.4829 28.4963C16.3753 28.7645 16.1839 28.9995 15.9934 29.3125Z" fill="white"/>
<path d="M14.9476 18.9177C14.906 19.2575 14.9237 19.5171 14.839 19.7372C14.2987 21.1432 13.7412 22.5425 13.1779 23.9395C12.9592 24.4816 12.5314 24.6843 12.085 24.4911C11.6593 24.3069 11.5044 23.8729 11.7088 23.3504C12.2577 21.9477 12.819 20.5499 13.3738 19.1494C13.5124 18.7993 13.7606 18.535 14.1336 18.5683C14.4016 18.5923 14.6545 18.7852 14.9476 18.9177Z" fill="white"/>
<path d="M24.3751 21.0043C24.3295 21.3372 24.3411 21.5834 24.26 21.7938C23.7174 23.1989 23.1598 24.5982 22.5968 25.9954C22.39 26.5083 21.9675 26.7209 21.5382 26.5599C21.0907 26.3923 20.9203 25.9396 21.1306 25.4017C21.6791 23.9988 22.2373 22.5999 22.7966 21.2013C22.9393 20.8444 23.1895 20.5592 23.5939 20.6245C23.8617 20.6679 24.1043 20.8666 24.3751 21.0043Z" fill="white"/>
<path d="M15.6243 17.1079C15.236 17.2686 14.7566 17.0706 14.5991 16.6842C14.4425 16.2995 14.6455 15.8076 15.0252 15.6522C15.4076 15.4956 15.8972 15.7001 16.0535 16.0816C16.212 16.4685 16.0115 16.9477 15.6243 17.1079Z" fill="white"/>
<path d="M20.9608 29.5012C20.5864 29.6699 20.0914 29.4782 19.922 29.0992C19.7516 28.7179 19.9389 28.2337 20.3233 28.0621C20.7065 27.8911 21.1899 28.0757 21.3599 28.4578C21.5275 28.8351 21.3377 29.3314 20.9608 29.5012Z" fill="white"/>
<path d="M34.4302 20.8968C33.705 19.2055 33.0007 17.5046 32.2433 15.8281C31.984 15.2541 31.9688 14.7431 32.1663 14.1532C32.7351 12.4542 32.877 10.7098 32.5109 8.94818C32.3797 8.31667 32.1544 7.70406 31.9576 7.08752C31.765 6.48397 32.0807 5.94345 32.6507 5.94168C33.0406 5.9405 33.2901 6.15541 33.4325 6.50505C33.9926 7.88036 34.2883 9.30984 34.2898 10.7972C34.291 12.0636 34.1106 13.3042 33.7219 14.5093C33.6268 14.8038 33.6423 15.0536 33.7666 15.3412C35.2214 18.7073 36.663 22.0792 38.1082 25.4498C38.1394 25.5228 38.171 25.5957 38.202 25.6688C38.4685 26.2948 38.3576 26.764 37.8958 26.9639C37.4336 27.1641 37.015 26.9234 36.7471 26.2989C35.9739 24.4987 35.2022 22.6978 34.4302 20.8968Z" fill="white"/>
</svg>
