<svg width="48" height="34" viewBox="0 0 48 34" fill="none" xmlns="http://www.w3.org/2000/svg">
<path d="M23.7717 10.2343L23.0591 14.9619C22.9817 15.4753 23.3102 15.9682 23.8241 16.042C32.1056 17.2324 40.7163 7.84244 45.4895 0.802627C46.0681 -0.0507282 47.3977 0.364747 47.2651 1.3872C45.0893 18.1634 30.2178 25.24 21.9551 26.8696C21.5304 26.9533 21.2008 27.2888 21.1363 27.7168L20.395 32.6345C20.2798 33.3983 19.379 33.7487 18.778 33.2635L1.33288 19.1791C0.738055 18.6988 0.880208 17.7559 1.59017 17.4723L22.412 9.15659C23.1294 8.87009 23.8869 9.47049 23.7717 10.2343Z" fill="#B92E2D"/>
</svg>
