<svg width="61" height="61" viewBox="0 0 61 61" fill="none" xmlns="http://www.w3.org/2000/svg">
<path d="M54.1 30.5V60H6.9V30.5M30.5 60V15.75M30.5 15.75H17.225C15.269 15.75 13.3932 14.973 12.0101 13.5899C10.627 12.2068 9.85 10.331 9.85 8.375C9.85 6.41903 10.627 4.54317 12.0101 3.16009C13.3932 1.77701 15.269 1 17.225 1C27.55 1 30.5 15.75 30.5 15.75ZM30.5 15.75H43.775C45.731 15.75 47.6068 14.973 48.9899 13.5899C50.373 12.2068 51.15 10.331 51.15 8.375C51.15 6.41903 50.373 4.54317 48.9899 3.16009C47.6068 1.77701 45.731 1 43.775 1C33.45 1 30.5 15.75 30.5 15.75ZM1 15.75H60V30.5H1V15.75Z" stroke="#B92E2D" stroke-width="2" stroke-linecap="round" stroke-linejoin="round"/>
</svg>
