<svg width="74" height="61" viewBox="0 0 74 61" fill="none" xmlns="http://www.w3.org/2000/svg">
<path d="M13.9899 0.000488281C13.4376 0.000488281 12.9899 0.448204 12.9899 1.00049C12.9899 1.55277 13.4376 2.00049 13.9899 2.00049V0.000488281ZM49.2476 52.217V53.217H50.2476V52.217H49.2476ZM24.0105 51.217C23.4582 51.217 23.0105 51.6647 23.0105 52.217C23.0105 52.7693 23.4582 53.217 24.0105 53.217V51.217ZM1.96924 51.217C1.41695 51.217 0.969238 51.6647 0.969238 52.217C0.969238 52.7693 1.41695 53.217 1.96924 53.217V51.217ZM9.89295 53.217C10.4452 53.217 10.8929 52.7693 10.8929 52.217C10.8929 51.6647 10.4452 51.217 9.89295 51.217V53.217ZM67.281 26.7004L68.012 26.0181L68.012 26.0181L67.281 26.7004ZM69.2591 28.82L68.528 29.5023L68.5282 29.5025L69.2591 28.82ZM71.7316 31.7576L72.5893 31.2435L72.5891 31.2432L71.7316 31.7576ZM72.8027 34.4751L71.8248 34.6841L71.8249 34.6846L72.8027 34.4751ZM3.96907 10.3923C3.41679 10.3923 2.96907 10.84 2.96907 11.3923C2.96907 11.9446 3.41679 12.3923 3.96907 12.3923V10.3923ZM21.7835 12.3923C22.3358 12.3923 22.7835 11.9446 22.7835 11.3923C22.7835 10.84 22.3358 10.3923 21.7835 10.3923V12.3923ZM1 22.2686C0.447715 22.2686 0 22.7163 0 23.2686C0 23.8209 0.447715 24.2686 1 24.2686V22.2686ZM14.3608 24.2686C14.9131 24.2686 15.3608 23.8209 15.3608 23.2686C15.3608 22.7163 14.9131 22.2686 14.3608 22.2686V24.2686ZM3.96907 34.1449C3.41679 34.1449 2.96907 34.5926 2.96907 35.1449C2.96907 35.6972 3.41679 36.1449 3.96907 36.1449V34.1449ZM20.299 36.1449C20.8513 36.1449 21.299 35.6972 21.299 35.1449C21.299 34.5926 20.8513 34.1449 20.299 34.1449V36.1449ZM13.9899 1.00049V2.00049H31.4332V1.00049V0.000488281H13.9899V1.00049ZM31.4332 1.00049V2.00049C35.6603 2.00049 38.7301 2.00261 41.0736 2.31768C43.3882 2.62888 44.844 3.22879 45.9316 4.31644L46.6387 3.60934L47.3458 2.90223C45.8246 1.38104 43.8765 0.676526 41.34 0.335512C38.8324 -0.00163543 35.6038 0.000488281 31.4332 0.000488281V1.00049ZM46.6387 3.60934L45.9316 4.31644C47.0193 5.4041 47.6192 6.85984 47.9304 9.17452C48.2455 11.518 48.2476 14.5878 48.2476 18.8149H49.2476H50.2476C50.2476 14.6443 50.2497 11.4157 49.9126 8.90803C49.5715 6.37158 48.867 4.42343 47.3458 2.90223L46.6387 3.60934ZM49.2476 18.8149H48.2476V52.217H49.2476H50.2476V18.8149H49.2476ZM49.2476 52.217V51.217H24.0105V52.217V53.217H49.2476V52.217ZM1.96924 52.217V53.217H9.89295V52.217V51.217H1.96924V52.217ZM48.3316 21.0417V22.0417H54.2582V21.0417V20.0417H48.3316V21.0417ZM54.2582 21.0417V22.0417C58.1588 22.0417 59.8167 22.0611 61.2798 22.6968L61.6783 21.7796L62.0768 20.8625C60.1436 20.0224 57.9868 20.0417 54.2582 20.0417V21.0417ZM61.6783 21.7796L61.2798 22.6968C62.7429 23.3325 63.8881 24.5313 66.5499 27.3828L67.281 26.7004L68.012 26.0181C65.4675 23.2923 64.0101 21.7025 62.0768 20.8625L61.6783 21.7796ZM67.281 26.7004L66.5499 27.3827L68.528 29.5023L69.2591 28.82L69.9902 28.1377L68.012 26.0181L67.281 26.7004ZM69.2591 28.82L68.5282 29.5025C69.8824 30.9527 70.4563 31.5757 70.874 32.2721L71.7316 31.7576L72.5891 31.2432C72.0374 30.3235 71.2872 29.5267 69.99 28.1375L69.2591 28.82ZM71.7316 31.7576L70.8739 32.2718C71.3215 33.0184 71.643 33.8334 71.8248 34.6841L72.8027 34.4751L73.7806 34.2661C73.5527 33.1995 73.1497 32.1783 72.5893 31.2435L71.7316 31.7576ZM72.8027 34.4751L71.8249 34.6846C71.995 35.4784 72.0001 36.3252 72.0001 38.3097H73.0001H74.0001C74.0001 36.4098 74.0053 35.3146 73.7805 34.2656L72.8027 34.4751ZM73.0001 38.3097H72.0001V44.9207H73.0001H74.0001V38.3097H73.0001ZM73.0001 44.9207H72.0001C72.0001 46.8403 71.6455 48.4758 70.9208 49.5997C70.2365 50.6609 69.1805 51.3403 67.5 51.3403V52.3403V53.3403C69.8493 53.3403 71.5433 52.3248 72.6016 50.6836C73.6196 49.105 74.0001 47.0307 74.0001 44.9207H73.0001ZM40.3403 52.217V53.217H53.0221V52.217V51.217H40.3403V52.217ZM24.0103 52.5882H23.0103C23.0103 55.9303 20.301 58.6397 16.9588 58.6397V59.6397V60.6397C21.4055 60.6397 25.0103 57.0349 25.0103 52.5882H24.0103ZM16.9588 59.6397V58.6397C13.6166 58.6397 10.9072 55.9303 10.9072 52.5882H9.90723H8.90723C8.90723 57.0349 12.512 60.6397 16.9588 60.6397V59.6397ZM9.90723 52.5882H10.9072C10.9072 49.246 13.6166 46.5366 16.9588 46.5366V45.5366V44.5366C12.512 44.5366 8.90723 48.1414 8.90723 52.5882H9.90723ZM16.9588 45.5366V46.5366C20.301 46.5366 23.0103 49.246 23.0103 52.5882H24.0103H25.0103C25.0103 48.1414 21.4055 44.5366 16.9588 44.5366V45.5366ZM67.8043 52.5882H66.8043C66.8043 55.9303 64.0949 58.6397 60.7527 58.6397V59.6397V60.6397C65.1995 60.6397 68.8043 57.0349 68.8043 52.5882H67.8043ZM60.7527 59.6397V58.6397C57.4105 58.6397 54.7012 55.9303 54.7012 52.5882H53.7012H52.7012C52.7012 57.0349 56.306 60.6397 60.7527 60.6397V59.6397ZM53.7012 52.5882H54.7012C54.7012 49.246 57.4105 46.5366 60.7527 46.5366V45.5366V44.5366C56.306 44.5366 52.7012 48.1414 52.7012 52.5882H53.7012ZM60.7527 45.5366V46.5366C64.0949 46.5366 66.8043 49.246 66.8043 52.5882H67.8043H68.8043C68.8043 48.1414 65.1995 44.5366 60.7527 44.5366V45.5366ZM3.96907 11.3923V12.3923H21.7835V11.3923V10.3923H3.96907V11.3923ZM1 23.2686V24.2686H14.3608V23.2686V22.2686H1V23.2686ZM3.96907 35.1449V36.1449H20.299V35.1449V34.1449H3.96907V35.1449Z" fill="#B92E2D"/>
</svg>
