<svg width="61" height="61" viewBox="0 0 61 61" fill="none" xmlns="http://www.w3.org/2000/svg">
<path d="M17.4287 45.0996C16.6785 45.0996 15.9592 45.3982 15.4287 45.9287C14.8983 46.4592 14.5996 47.1785 14.5996 47.9287V54.4639C14.5996 55.2141 14.8983 55.9344 15.4287 56.4648C15.9591 56.9951 16.6787 57.293 17.4287 57.293H28.3213C29.0713 57.293 29.7909 56.9951 30.3213 56.4648C30.8518 55.9344 31.1504 55.214 31.1504 54.4639V47.9287C31.1504 47.1785 30.8518 46.4592 30.3213 45.9287C29.7908 45.3983 29.0715 45.0996 28.3213 45.0996H17.4287ZM6.53613 0.650391H43.5713C45.1323 0.650391 46.6296 1.27024 47.7334 2.37402C48.8371 3.4778 49.457 4.97521 49.457 6.53613V9.36426H54.4639C56.0248 9.36426 57.5222 9.98424 58.626 11.0879C59.7298 12.1917 60.3496 13.689 60.3496 15.25V47.9287C60.3496 49.4897 59.7297 50.9871 58.626 52.0908C57.5222 53.1944 56.0247 53.8145 54.4639 53.8145H39.2139C38.8086 53.8143 38.4204 53.6528 38.1338 53.3662C37.8472 53.0796 37.6857 52.6914 37.6855 52.2861C37.6855 51.8807 37.8471 51.4917 38.1338 51.2051C38.4203 50.9186 38.8086 50.7569 39.2139 50.7568H54.4639C55.214 50.7568 55.9344 50.4592 56.4648 49.9287C56.9951 49.3983 57.2929 48.6787 57.293 47.9287V29.8496H41.3926C39.8318 29.8495 38.3352 29.2296 37.2314 28.126C36.1277 27.0222 35.5068 25.5249 35.5068 23.9639C35.5069 22.403 36.1278 20.9064 37.2314 19.8027C38.3352 18.6991 39.8317 18.0782 41.3926 18.0781H57.293V15.25C57.293 14.5 56.9951 13.7804 56.4648 13.25C55.9344 12.7195 55.2141 12.4219 54.4639 12.4219H6.54102C5.87177 12.4166 5.20819 12.2967 4.5791 12.0684L3.70703 11.752V47.9287C3.70707 48.6787 4.00486 49.3983 4.53516 49.9287C5.06562 50.4592 5.78595 50.7568 6.53613 50.7568C6.94135 50.7569 7.32965 50.9186 7.61621 51.2051C7.90287 51.4917 8.06445 51.8807 8.06445 52.2861C8.06434 52.6914 7.90277 53.0796 7.61621 53.3662C7.32965 53.6528 6.94138 53.8143 6.53613 53.8145C4.97528 53.8145 3.47778 53.1944 2.37402 52.0908C1.27027 50.9871 0.650427 49.4896 0.650391 47.9287V6.53613C0.650391 4.97514 1.27024 3.47781 2.37402 2.37402C3.47781 1.27024 4.97514 0.650391 6.53613 0.650391ZM41.3926 21.1357C40.6425 21.1358 39.923 21.4335 39.3926 21.9639C38.8622 22.4942 38.5646 23.2138 38.5645 23.9639C38.5645 24.7141 38.8621 25.4344 39.3926 25.9648C39.923 26.4952 40.6426 26.7929 41.3926 26.793H57.293V21.1357H41.3926ZM6.53613 3.70703C5.78595 3.70703 5.06562 4.0047 4.53516 4.53516C4.0047 5.06562 3.70703 5.78595 3.70703 6.53613C3.70714 7.28613 4.00484 8.00578 4.53516 8.53613C5.06562 9.06659 5.78595 9.36426 6.53613 9.36426H46.4004V6.53613C46.4004 5.78595 46.1018 5.06562 45.5713 4.53516C45.0409 4.00491 44.3213 3.70703 43.5713 3.70703H6.53613ZM15.9004 38.3975L15.8994 38.3867C15.8346 36.4623 16.5348 34.59 17.8467 33.1807C19.153 31.7773 20.9601 30.9463 22.875 30.8672C24.7899 30.9463 26.597 31.7773 27.9033 33.1807C29.2152 34.59 29.9154 36.4623 29.8506 38.3867L29.8496 38.3975V41.959L30.1113 42.1533L30.1133 42.1543C30.1147 42.1554 30.1168 42.1576 30.1201 42.1602C30.1271 42.1654 30.1387 42.1743 30.1533 42.1855C30.1826 42.208 30.2269 42.2423 30.2832 42.2871C30.3965 42.3772 30.5601 42.5102 30.7568 42.6797C31.1517 43.0199 31.6758 43.5032 32.1982 44.0752C32.7225 44.6493 33.2325 45.2999 33.6084 45.9746C33.9864 46.6532 34.207 47.3168 34.207 47.9287V54.4639C34.207 56.0248 33.5871 57.5222 32.4834 58.626C31.3796 59.7298 29.8823 60.3496 28.3213 60.3496H17.4287C15.8677 60.3496 14.3704 59.7298 13.2666 58.626C12.1629 57.5222 11.543 56.0248 11.543 54.4639V47.9287C11.543 47.323 11.7633 46.6626 12.1416 45.9844C12.5176 45.3104 13.0273 44.6587 13.5518 44.083C14.0745 43.5093 14.6 43.0237 14.9951 42.6816C15.192 42.5111 15.3555 42.3767 15.4688 42.2861C15.5252 42.241 15.5694 42.2072 15.5986 42.1846C15.6131 42.1734 15.6239 42.1645 15.6309 42.1592C15.6343 42.1565 15.6372 42.1544 15.6387 42.1533L15.6396 42.1523H15.6406L15.6396 42.1514L15.9004 41.957V38.3975ZM26.793 38.0293L26.7656 37.9375C26.4706 36.958 25.985 36.0448 25.3398 35.3652C24.6927 34.6836 23.8517 34.207 22.875 34.207C21.8983 34.207 21.0573 34.6836 20.4102 35.3652C19.765 36.0448 19.2794 36.958 18.9844 37.9375L18.957 38.0293V42.043H26.793V38.0293Z" fill="#B92E2D" stroke="#F8EFD8" stroke-width="1.3"/>
</svg>
