<svg width="169" height="26" viewBox="0 0 169 26" fill="none" xmlns="http://www.w3.org/2000/svg">
<path d="M169.001 23.3488L160.612 24.4312L159.598 20.6092H155.742L154.896 24.4312L146.271 23.5856L153.002 1.05946L162.405 0.585938L169.001 23.3488ZM158.989 15.4342L157.704 9.54904L156.452 15.4342H158.989Z" fill="white"/>
<path d="M141.769 0.992188L139.909 24.0257L132.772 24.3977V1.46571L141.769 0.992188Z" fill="white"/>
<path d="M126.512 8.53512C126.512 9.62873 126.349 10.5983 126.022 11.4439C125.695 12.2895 125.244 13.0279 124.669 13.6593C124.105 14.2907 123.44 14.8262 122.674 15.2659C121.907 15.7056 121.084 16.0664 120.205 16.3482C119.336 16.6188 118.434 16.8218 117.499 16.957C116.563 17.0811 115.644 17.1487 114.742 17.16V25.0407H106.861C106.861 22.4589 106.867 19.8884 106.878 17.3291C106.89 14.7698 106.906 12.188 106.929 9.58363C106.952 8.20816 106.957 6.83269 106.946 5.45722C106.935 4.08175 106.963 2.69501 107.03 1.29699C108.474 0.868568 109.917 0.54725 111.36 0.333037C112.803 0.118825 114.291 0.0117188 115.824 0.0117188C116.693 0.0117188 117.561 0.0850019 118.429 0.231568C119.297 0.36686 120.126 0.58671 120.915 0.891117C121.715 1.19552 122.454 1.57885 123.13 2.0411C123.818 2.49207 124.41 3.03324 124.906 3.6646C125.402 4.29597 125.791 5.01752 126.073 5.82928C126.366 6.62975 126.512 7.5317 126.512 8.53512ZM119.004 9.11011C119.004 8.37728 118.778 7.80792 118.327 7.40205C117.888 6.9849 117.313 6.77632 116.602 6.77632C116.366 6.77632 116.118 6.79887 115.858 6.84397C115.61 6.87779 115.373 6.92289 115.148 6.97926L114.945 11.9174C115.103 11.94 115.255 11.9512 115.402 11.9512C115.548 11.9512 115.7 11.9512 115.858 11.9512C116.264 11.9512 116.653 11.8836 117.025 11.7483C117.408 11.613 117.747 11.4213 118.04 11.1733C118.333 10.914 118.564 10.6152 118.733 10.277C118.914 9.9275 119.004 9.53853 119.004 9.11011Z" fill="white"/>
<path d="M74.0798 0.621094L73.9107 7.79157L68.8711 7.99451L67.5858 24.0266L60.4492 24.3987L60.483 8.36656L55.4434 8.63715L55.6463 0.654917L74.0798 0.621094Z" fill="white"/>
<path d="M52.649 23.3488L44.2609 24.4312L43.2462 20.6092H39.3904L38.5448 24.4312L29.9199 23.5856L36.6507 1.05946L46.0535 0.585938L52.649 23.3488ZM42.6374 15.4342L41.3521 9.54904L40.1006 15.4342H42.6374Z" fill="white"/>
<path d="M25.3497 3.56351C25.406 2.52627 25.468 1.47776 25.5357 0.417969H9.94329L9.69238 11.7243C12.1393 13.0112 17.2152 17.332 14.577 24.6843L23.9798 24.4661C24.0362 23.2372 24.0982 22.014 24.1659 20.7963C24.2448 19.5674 24.3181 18.3329 24.3857 17.0927H21.4093H17.2152L17.3843 14.6236L22.4578 14.4545L22.8299 9.21195H17.7902L17.9593 7.0811L25.1298 6.70905C25.22 5.64926 25.2933 4.60075 25.3497 3.56351Z" fill="white"/>
<path d="M9.0897 25.1253C-0.608037 25.818 -1.30058 13.0032 1.29687 8.67383C2.45142 10.1169 5.775 12.3996 8.22406 13.869C12.5535 16.4667 13.4192 20.796 11.6875 25.1253C11.3989 23.9708 9.77645 21.8662 7.3582 19.9301C5.19521 18.1984 2.88623 15.3122 2.59761 13.869C2.30898 15.0235 3.02885 18.0252 6.49233 20.796C7.35804 21.6619 9.08951 23.74 9.0897 25.1253Z" fill="#B92E2D"/>
<path d="M89.7773 0.0136719C91.4092 0.0138517 92.7061 1.64103 94.125 2.22949C95.596 2.8394 97.6579 2.62896 98.7666 3.7373C99.8753 4.84597 99.6645 6.90876 100.274 8.37988C100.863 9.79877 102.491 11.0955 102.491 12.7275C102.491 14.3593 100.863 15.6563 100.274 17.0752C99.6646 18.5463 99.8752 20.6082 98.7666 21.7168C97.6579 22.8254 95.5961 22.6147 94.125 23.2246C92.7058 23.8131 91.4093 25.4414 89.7773 25.4414C88.1454 25.4414 86.8486 23.8131 85.4297 23.2246C83.9586 22.6146 81.8958 22.8255 80.7871 21.7168C79.6788 20.6081 79.8892 18.5462 79.2793 17.0752C78.6908 15.6561 77.0636 14.3594 77.0635 12.7275C77.0635 11.0957 78.6907 9.79875 79.2793 8.37988C79.8893 6.90877 79.6785 4.84617 80.7871 3.7373C81.8958 2.62864 83.9586 2.83945 85.4297 2.22949C86.8487 1.64084 88.1456 0.0136719 89.7773 0.0136719ZM90.5801 9.49023C88.7924 9.04563 86.983 10.1344 86.5381 11.9219C86.0933 13.7097 87.1819 15.5201 88.9697 15.9648C90.7574 16.4095 92.5668 15.3208 93.0117 13.5332C93.4565 11.7453 92.3679 9.93499 90.5801 9.49023Z" fill="#B92E2D"/>
<path d="M89.5577 3.18555L89.8039 4.19029M94.9902 18.5199L95.9295 18.7772M91.9609 5.76444L91.1669 6.36038M94.2836 8.93385L94.5662 9.92756M85.0952 9.7226L84.8126 10.7163M86.8402 6.07123L87.6457 6.64954M95.3963 15.5561L96.3036 15.19M83.6541 18.7026L84.5616 18.3367M90.3491 18.231L90.9261 19.0657M88.7076 21.8645L89.084 20.9073M96.0659 6.11497L95.1014 6.00974M81.9059 11.6127L80.9414 11.5076M97.8414 10.6372L97.343 11.5284M83.767 6.2499L83.4233 5.27863M84.9548 14.2991L85.453 15.1901" stroke="white" stroke-width="0.5" stroke-miterlimit="10" stroke-linecap="round" stroke-linejoin="round"/>
</svg>
