<svg width="80" height="86" viewBox="0 0 80 86" fill="none" xmlns="http://www.w3.org/2000/svg">
<path d="M29.1845 0.0916061C19.3396 1.48363 11.7086 8.57796 9.56186 18.2886C9.32706 19.362 9.2432 20.754 9.17612 25.0643L9.07549 30.515L7.81763 30.7163C4.24531 31.32 1.15937 34.2215 0.253708 37.8274C-0.0817205 39.1188 -0.0817205 53.7602 0.236937 56.1753C1.42771 64.8629 5.956 72.5443 13.0335 77.8273C22.4759 84.8713 35.0545 86.0956 45.8217 81.0138L47.6666 80.1417L48.4884 80.8797C54.8783 86.6826 64.3374 87.387 71.5659 82.6407C73.4275 81.3996 73.763 81.0474 73.6959 80.3094C73.6288 79.5715 72.9747 78.9845 72.3541 79.1354C72.1529 79.2025 71.5156 79.5883 70.9621 80.0076C67.4401 82.6574 62.7609 83.7811 58.4171 83.0264C51.1047 81.7518 45.5198 75.7308 44.9161 68.4688C44.5806 64.5107 45.6037 60.6365 47.8175 57.5338C48.6393 56.3766 50.8196 54.2298 51.9265 53.4751C53.6372 52.3179 56.002 51.3451 58.2158 50.8923C59.5072 50.624 62.7944 50.624 64.0858 50.8923C74.9537 53.1229 80.6728 64.6281 75.7252 74.3556C75.2724 75.2277 74.9034 76.1333 74.9034 76.3514C74.9034 77.3241 76.3458 77.777 77.0334 77.039C77.4862 76.5359 78.4422 74.6239 78.9789 73.1313C80.4044 69.1229 80.3374 64.2256 78.7776 60.2005C77.8049 57.6848 75.742 54.6659 73.83 52.9888C71.5827 51.0097 68.4967 49.3829 65.6623 48.6953L64.1697 48.3263V43.7812C64.1697 38.733 64.0523 37.7938 63.264 36.0664C61.9055 33.1481 59.0712 31.0349 56.002 30.666L55.1131 30.5653V26.8588C55.1131 22.2802 54.8951 19.6471 54.3584 17.3997C52.2955 8.82953 45.2515 2.10418 36.48 0.343178C34.9874 0.0412903 30.61 -0.10965 29.1845 0.0916061ZM36.1278 2.84212C44.0607 4.55281 50.1991 10.5402 52.0104 18.3222C52.4129 20.0496 52.6142 23.3201 52.5638 27.0936L52.5135 30.5318L49.9643 30.5821L47.4318 30.6324L47.3479 25.4668C47.2641 19.7981 47.1467 19.0098 46.0565 16.5779C45.0335 14.3138 43.0377 11.8987 40.9412 10.3893C39.8175 9.56747 37.3354 8.39347 36.0104 8.05804C32.3878 7.13561 28.1614 7.62199 24.958 9.33267C21.9224 10.9427 19.6583 13.341 18.1992 16.427C16.9916 19.0098 16.8407 19.9825 16.7568 25.6178L16.673 30.6156H14.174H11.6751V25.7687C11.6751 22.2299 11.7421 20.5528 11.9266 19.4962C12.6813 15.1188 14.7107 11.3117 17.8805 8.24253C21.2348 5.00564 24.8574 3.29495 29.8721 2.54024C30.8784 2.38929 34.9371 2.59055 36.1278 2.84212ZM34.9371 10.4228C38.5429 11.2111 41.8469 13.7939 43.457 17.0979C44.7148 19.6471 44.7651 19.9825 44.849 25.6178L44.9161 30.6156H39.7001C34.5681 30.6156 34.501 30.6156 34.1488 30.9846C33.5283 31.6555 33.7798 32.6282 34.6687 32.9469C35.0377 33.081 38.4255 33.1314 45.5534 33.1314C57.0921 33.1314 56.807 33.0978 58.568 34.2886C59.7085 35.0433 60.6812 36.2508 61.2011 37.5255C61.5366 38.3473 61.5701 38.7666 61.6204 43.2278L61.6707 48.0579H61.285C60.2284 48.0747 57.6121 48.4269 56.4213 48.7288C48.7735 50.6911 43.0377 57.45 42.4003 65.2822C42.0481 69.4415 42.9203 73.1983 45.067 76.7539C45.5198 77.5086 45.872 78.1459 45.8553 78.1627C45.5534 78.431 43.0377 79.538 41.6959 80.0076C36.7316 81.7182 30.9622 82.0537 25.7128 80.93C21.218 79.9572 16.7568 77.7434 13.1006 74.7078C6.99583 69.6093 3.27257 62.3808 2.61848 54.364C2.40045 51.6303 2.40045 40.2592 2.61848 38.9175C2.97068 36.7037 4.58074 34.624 6.64363 33.6513L7.56606 33.2152L18.6855 33.1314L29.8218 33.0475L30.1404 32.645C30.5094 32.1754 30.5597 31.4878 30.2243 31.0182C29.9895 30.7163 29.6876 30.6995 24.6394 30.6156L19.3061 30.5318L19.2558 26.5905C19.2222 24.3934 19.2893 22.0287 19.3899 21.2404C19.9602 16.9469 22.543 13.3578 26.5346 11.362C29.0335 10.1042 32.0188 9.76873 34.9371 10.4228Z" fill="#727272"/>
<path d="M30.1224 42.775C26.9526 43.6806 24.7387 46.146 24.2524 49.3158C23.9002 51.5632 24.722 54.1292 26.3656 55.8735L27.137 56.6953L26.4326 61.2906C25.6779 66.255 25.6779 66.5233 26.5333 66.842C26.7681 66.9426 29.1999 67.0097 32.2356 67.0097H37.5186L37.9211 66.5904C38.1727 66.3556 38.3404 65.9866 38.3404 65.7183C38.3404 65.4667 38.0385 63.3368 37.6695 60.9888L37.0154 56.7288L37.8372 55.8232C40.7387 52.6366 40.6716 47.8735 37.6863 44.8882C36.5961 43.798 35.4557 43.1439 34.0636 42.775C32.8896 42.4731 31.1622 42.4731 30.1224 42.775ZM34.4326 45.5926C36.3613 46.5821 37.4179 48.276 37.4179 50.406C37.4179 51.4961 37.3509 51.8315 36.8645 52.8043C36.4452 53.6261 36.0762 54.1125 35.4892 54.5653C35.0532 54.9007 34.6003 55.3535 34.4997 55.5548C34.3655 55.8399 34.4829 56.9468 34.9861 60.1334C35.355 62.4646 35.6569 64.3934 35.6569 64.4269C35.6569 64.4604 34.0301 64.494 32.0511 64.494H28.4452L28.5291 64.1082C28.6465 63.5548 29.7869 56.1083 29.7869 55.8232C29.7869 55.689 29.3341 55.1523 28.7639 54.6324C27.506 53.4584 27.0196 52.6366 26.7681 51.2781C26.332 48.8462 27.6905 46.4479 30.0553 45.4416C31.397 44.8714 33.1412 44.9385 34.4326 45.5926Z" fill="#727272"/>
<path d="M58.9363 55.2528C56.4877 56.2256 54.8944 58.1878 54.5254 60.6868C54.3745 61.6763 54.6428 62.3807 55.2801 62.649C56.2361 63.0348 56.8399 62.4981 57.0244 61.0893C57.1418 60.0495 57.6281 59.1438 58.3996 58.4562C59.2717 57.7015 59.9594 57.4499 61.1501 57.4499C62.3577 57.4499 63.213 57.7686 63.9678 58.5065C66.5506 60.9719 65.1418 65.2151 61.6365 65.6176C61.0663 65.6679 60.5799 65.8356 60.3619 66.0536C59.9929 66.3891 59.9761 66.4897 59.9761 69.7937V73.1983L60.4122 73.5337C60.9992 73.9865 61.3682 73.9698 61.9384 73.4834L62.408 73.0809L62.4583 70.5484C62.5086 68.6197 62.5757 68.0159 62.7267 68.0159C62.8441 68.0159 63.4814 67.7476 64.1187 67.4289C65.561 66.7077 66.5338 65.7014 67.2382 64.192C67.7246 63.1857 67.7749 62.9174 67.7581 61.5589C67.7413 59.5463 67.322 58.4562 65.9971 57.0474C64.6051 55.5547 63.4478 55.0348 61.3179 54.9845C60.0768 54.951 59.5569 55.0013 58.9363 55.2528Z" fill="#727272"/>
<path d="M60.3089 76.9048C59.8057 77.408 59.856 78.2969 60.4095 78.7329C60.9797 79.1857 61.3655 79.169 61.9189 78.6994C62.8246 77.9111 62.3214 76.5694 61.1307 76.5694C60.8623 76.5694 60.4934 76.7203 60.3089 76.9048Z" fill="#727272"/>
</svg>
